G04 #@! TF.GenerationSoftware,KiCad,Pcbnew,6.0.0-d3dd2cf0fa~116~ubuntu20.04.1*
G04 #@! TF.CreationDate,2022-01-02T10:52:24-05:00*
G04 #@! TF.ProjectId,basic_mixer,62617369-635f-46d6-9978-65722e6b6963,0*
G04 #@! TF.SameCoordinates,Original*
G04 #@! TF.FileFunction,Copper,L2,Bot*
G04 #@! TF.FilePolarity,Positive*
%FSLAX46Y46*%
G04 Gerber Fmt 4.6, Leading zero omitted, Abs format (unit mm)*
G04 Created by KiCad (PCBNEW 6.0.0-d3dd2cf0fa~116~ubuntu20.04.1) date 2022-01-02 10:52:24*
%MOMM*%
%LPD*%
G01*
G04 APERTURE LIST*
G04 Aperture macros list*
%AMRoundRect*
0 Rectangle with rounded corners*
0 $1 Rounding radius*
0 $2 $3 $4 $5 $6 $7 $8 $9 X,Y pos of 4 corners*
0 Add a 4 corners polygon primitive as box body*
4,1,4,$2,$3,$4,$5,$6,$7,$8,$9,$2,$3,0*
0 Add four circle primitives for the rounded corners*
1,1,$1+$1,$2,$3*
1,1,$1+$1,$4,$5*
1,1,$1+$1,$6,$7*
1,1,$1+$1,$8,$9*
0 Add four rect primitives between the rounded corners*
20,1,$1+$1,$2,$3,$4,$5,0*
20,1,$1+$1,$4,$5,$6,$7,0*
20,1,$1+$1,$6,$7,$8,$9,0*
20,1,$1+$1,$8,$9,$2,$3,0*%
G04 Aperture macros list end*
G04 #@! TA.AperFunction,ComponentPad*
%ADD10C,1.800000*%
G04 #@! TD*
G04 #@! TA.AperFunction,ComponentPad*
%ADD11O,2.720000X3.240000*%
G04 #@! TD*
G04 #@! TA.AperFunction,ComponentPad*
%ADD12R,1.800000X1.800000*%
G04 #@! TD*
G04 #@! TA.AperFunction,SMDPad,CuDef*
%ADD13RoundRect,0.250000X-0.475000X0.250000X-0.475000X-0.250000X0.475000X-0.250000X0.475000X0.250000X0*%
G04 #@! TD*
G04 #@! TA.AperFunction,SMDPad,CuDef*
%ADD14RoundRect,0.250000X0.475000X-0.250000X0.475000X0.250000X-0.475000X0.250000X-0.475000X-0.250000X0*%
G04 #@! TD*
G04 #@! TA.AperFunction,SMDPad,CuDef*
%ADD15RoundRect,0.250000X0.450000X-0.262500X0.450000X0.262500X-0.450000X0.262500X-0.450000X-0.262500X0*%
G04 #@! TD*
G04 #@! TA.AperFunction,SMDPad,CuDef*
%ADD16RoundRect,0.250000X-0.450000X0.262500X-0.450000X-0.262500X0.450000X-0.262500X0.450000X0.262500X0*%
G04 #@! TD*
G04 #@! TA.AperFunction,SMDPad,CuDef*
%ADD17RoundRect,0.150000X-0.150000X0.825000X-0.150000X-0.825000X0.150000X-0.825000X0.150000X0.825000X0*%
G04 #@! TD*
G04 #@! TA.AperFunction,ComponentPad*
%ADD18R,1.700000X1.700000*%
G04 #@! TD*
G04 #@! TA.AperFunction,ComponentPad*
%ADD19O,1.700000X1.700000*%
G04 #@! TD*
G04 #@! TA.AperFunction,SMDPad,CuDef*
%ADD20RoundRect,0.150000X0.587500X0.150000X-0.587500X0.150000X-0.587500X-0.150000X0.587500X-0.150000X0*%
G04 #@! TD*
G04 #@! TA.AperFunction,ViaPad*
%ADD21C,1.000000*%
G04 #@! TD*
G04 #@! TA.AperFunction,Conductor*
%ADD22C,0.400000*%
G04 #@! TD*
G04 APERTURE END LIST*
D10*
X144780000Y-116970000D03*
X144780000Y-113870000D03*
X144780000Y-105570000D03*
X133350000Y-134750000D03*
X133350000Y-131650000D03*
X133350000Y-123350000D03*
D11*
X128550000Y-69970000D03*
X138150000Y-69970000D03*
D12*
X130850000Y-77470000D03*
D10*
X133350000Y-77470000D03*
X135850000Y-77470000D03*
X121920000Y-116970000D03*
X121920000Y-113870000D03*
X121920000Y-105570000D03*
X133350000Y-116970000D03*
X133350000Y-113870000D03*
X133350000Y-105570000D03*
D11*
X148310000Y-90290000D03*
X138710000Y-90290000D03*
D12*
X141010000Y-97790000D03*
D10*
X143510000Y-97790000D03*
X146010000Y-97790000D03*
X144780000Y-134750000D03*
X144780000Y-131650000D03*
X144780000Y-123350000D03*
D11*
X118390000Y-49650000D03*
X127990000Y-49650000D03*
D12*
X120690000Y-57150000D03*
D10*
X123190000Y-57150000D03*
X125690000Y-57150000D03*
D13*
X130048000Y-90998000D03*
X130048000Y-92898000D03*
D14*
X120777000Y-83632000D03*
X120777000Y-81732000D03*
D15*
X128397000Y-98157000D03*
X128397000Y-96332000D03*
D13*
X130048000Y-87061000D03*
X130048000Y-88961000D03*
D16*
X141732000Y-121492000D03*
X141732000Y-123317000D03*
D13*
X149098000Y-69751500D03*
X149098000Y-71651500D03*
D15*
X124587000Y-83632000D03*
X124587000Y-81807000D03*
D17*
X122682000Y-87507000D03*
X123952000Y-87507000D03*
X125222000Y-87507000D03*
X126492000Y-87507000D03*
X126492000Y-92457000D03*
X125222000Y-92457000D03*
X123952000Y-92457000D03*
X122682000Y-92457000D03*
D16*
X128397000Y-81807000D03*
X128397000Y-83632000D03*
D18*
X146050000Y-44450000D03*
D19*
X143510000Y-44450000D03*
X146050000Y-46990000D03*
X143510000Y-46990000D03*
X146050000Y-49530000D03*
X143510000Y-49530000D03*
X146050000Y-52070000D03*
X143510000Y-52070000D03*
X146050000Y-54610000D03*
X143510000Y-54610000D03*
D13*
X120777000Y-96332000D03*
X120777000Y-98232000D03*
D16*
X124587000Y-96332000D03*
X124587000Y-98157000D03*
X149098000Y-64770000D03*
X149098000Y-66595000D03*
D20*
X145131000Y-69789000D03*
X145131000Y-71689000D03*
X143256000Y-70739000D03*
D13*
X149098000Y-52075000D03*
X149098000Y-53975000D03*
D16*
X130429000Y-121492000D03*
X130429000Y-123317000D03*
X132207000Y-81807000D03*
X132207000Y-83632000D03*
D13*
X149098000Y-45085000D03*
X149098000Y-46985000D03*
D16*
X136017000Y-81807000D03*
X136017000Y-83632000D03*
D21*
X121350000Y-87500000D03*
X126975000Y-98800000D03*
X146614000Y-69789000D03*
X130048000Y-85344000D03*
X145034000Y-73279000D03*
X128143000Y-94361000D03*
X125730000Y-85344000D03*
X148082000Y-73533000D03*
X130048000Y-94742000D03*
X137250000Y-81750000D03*
D22*
X123952000Y-84267000D02*
X124587000Y-83632000D01*
X123952000Y-87507000D02*
X123952000Y-84267000D01*
X120777000Y-83632000D02*
X136017000Y-83632000D01*
X122682000Y-86106000D02*
X121920000Y-85344000D01*
X119944000Y-81732000D02*
X120777000Y-81732000D01*
X118999000Y-84328000D02*
X118999000Y-82677000D01*
X122682000Y-87507000D02*
X121357000Y-87507000D01*
X141732000Y-121492000D02*
X141732000Y-117119400D01*
X118999000Y-82677000D02*
X119944000Y-81732000D01*
X128397000Y-103784400D02*
X128397000Y-98157000D01*
X120015000Y-85344000D02*
X118999000Y-84328000D01*
X122682000Y-87507000D02*
X122682000Y-86106000D01*
X141732000Y-117119400D02*
X128397000Y-103784400D01*
X120852000Y-81807000D02*
X120777000Y-81732000D01*
X121920000Y-85344000D02*
X120015000Y-85344000D01*
X127754000Y-98800000D02*
X128397000Y-98157000D01*
X121357000Y-87507000D02*
X121350000Y-87500000D01*
X124587000Y-81807000D02*
X120852000Y-81807000D01*
X126975000Y-98800000D02*
X127754000Y-98800000D01*
X125222000Y-95697000D02*
X124587000Y-96332000D01*
X128397000Y-96332000D02*
X120777000Y-96332000D01*
X125222000Y-92457000D02*
X125222000Y-95697000D01*
X119380000Y-97282000D02*
X120330000Y-98232000D01*
X119380000Y-95504000D02*
X119380000Y-97282000D01*
X123952000Y-92939138D02*
X121895138Y-94996000D01*
X130429000Y-121492000D02*
X130429000Y-112241213D01*
X121895138Y-94996000D02*
X119888000Y-94996000D01*
X120330000Y-98232000D02*
X120777000Y-98232000D01*
X123952000Y-92457000D02*
X123952000Y-92939138D01*
X120777000Y-98232000D02*
X124512000Y-98232000D01*
X124587000Y-106399213D02*
X124587000Y-98157000D01*
X119888000Y-94996000D02*
X119380000Y-95504000D01*
X130429000Y-112241213D02*
X124587000Y-106399213D01*
X124512000Y-98232000D02*
X124587000Y-98157000D01*
X145131000Y-69789000D02*
X146614000Y-69789000D01*
X149098000Y-69751500D02*
X149098000Y-66595000D01*
X146614000Y-69789000D02*
X149060500Y-69789000D01*
X149060500Y-69789000D02*
X149098000Y-69751500D01*
X145131000Y-71689000D02*
X145131000Y-73182000D01*
X145131000Y-73182000D02*
X145034000Y-73279000D01*
X125222000Y-87507000D02*
X125222000Y-85852000D01*
X149098000Y-71651500D02*
X149098000Y-72517000D01*
X126492000Y-93980000D02*
X126873000Y-94361000D01*
X126873000Y-94361000D02*
X128143000Y-94361000D01*
X126492000Y-92457000D02*
X126492000Y-93980000D01*
X149098000Y-72517000D02*
X148082000Y-73533000D01*
X130048000Y-87061000D02*
X130048000Y-85344000D01*
X130048000Y-92898000D02*
X130048000Y-94742000D01*
X125222000Y-85852000D02*
X125730000Y-85344000D01*
X146050000Y-44450000D02*
X148463000Y-44450000D01*
X151525000Y-46500000D02*
X150110000Y-45085000D01*
X141200000Y-83375000D02*
X133600000Y-90975000D01*
X151525000Y-62343000D02*
X151525000Y-46500000D01*
X122682000Y-91518000D02*
X122682000Y-92457000D01*
X141200000Y-68125000D02*
X141200000Y-83375000D01*
X130071000Y-90975000D02*
X130048000Y-90998000D01*
X146050000Y-44450000D02*
X143510000Y-44450000D01*
X130048000Y-90998000D02*
X123202000Y-90998000D01*
X144555000Y-64770000D02*
X141200000Y-68125000D01*
X133600000Y-90975000D02*
X130071000Y-90975000D01*
X148463000Y-44450000D02*
X149098000Y-45085000D01*
X149098000Y-64770000D02*
X151525000Y-62343000D01*
X149098000Y-64770000D02*
X144555000Y-64770000D01*
X123202000Y-90998000D02*
X122682000Y-91518000D01*
X150110000Y-45085000D02*
X149098000Y-45085000D01*
X146050000Y-54610000D02*
X148463000Y-54610000D01*
X140500000Y-83227164D02*
X134766164Y-88961000D01*
X148463000Y-54610000D02*
X149098000Y-53975000D01*
X149098000Y-53975000D02*
X149098000Y-58902000D01*
X149098000Y-58902000D02*
X140500000Y-67500000D01*
X134766164Y-88961000D02*
X130048000Y-88961000D01*
X130048000Y-88961000D02*
X126756200Y-88961000D01*
X126756200Y-88961000D02*
X126492000Y-88696800D01*
X140500000Y-67500000D02*
X140500000Y-83227164D01*
X146050000Y-54610000D02*
X143510000Y-54610000D01*
X126492000Y-88696800D02*
X126492000Y-87507000D01*
X133317000Y-123317000D02*
X133350000Y-123350000D01*
X130429000Y-123317000D02*
X133317000Y-123317000D01*
X141732000Y-123317000D02*
X144747000Y-123317000D01*
X144747000Y-123317000D02*
X144780000Y-123350000D01*
X128397000Y-81807000D02*
X123190000Y-76600000D01*
X123190000Y-76600000D02*
X123190000Y-57150000D01*
X132207000Y-78613000D02*
X132207000Y-81807000D01*
X133350000Y-77470000D02*
X132207000Y-78613000D01*
X136074000Y-81750000D02*
X137250000Y-81750000D01*
X136017000Y-81807000D02*
X136074000Y-81750000D01*
G04 #@! TA.AperFunction,Conductor*
G36*
X149830057Y-38609500D02*
G01*
X149844858Y-38611805D01*
X149844861Y-38611805D01*
X149853730Y-38613186D01*
X149869999Y-38611059D01*
X149894567Y-38610266D01*
X150116985Y-38624844D01*
X150133326Y-38626995D01*
X150377824Y-38675629D01*
X150393743Y-38679895D01*
X150629790Y-38760022D01*
X150645017Y-38766329D01*
X150868592Y-38876584D01*
X150882865Y-38884825D01*
X151090133Y-39023316D01*
X151103210Y-39033349D01*
X151290632Y-39197714D01*
X151302286Y-39209368D01*
X151466651Y-39396790D01*
X151476684Y-39409867D01*
X151615175Y-39617135D01*
X151623416Y-39631408D01*
X151733671Y-39854983D01*
X151739978Y-39870210D01*
X151820105Y-40106257D01*
X151824371Y-40122176D01*
X151873005Y-40366673D01*
X151875156Y-40383014D01*
X151889264Y-40598268D01*
X151888239Y-40621304D01*
X151888196Y-40624854D01*
X151886814Y-40633730D01*
X151888454Y-40646270D01*
X151890936Y-40665251D01*
X151892000Y-40681589D01*
X151892000Y-45560840D01*
X151871998Y-45628961D01*
X151818342Y-45675454D01*
X151748068Y-45685558D01*
X151683488Y-45656064D01*
X151676905Y-45649935D01*
X150631450Y-44604480D01*
X150625596Y-44598215D01*
X150625201Y-44597762D01*
X150587561Y-44554615D01*
X150535280Y-44517871D01*
X150529986Y-44513939D01*
X150485693Y-44479209D01*
X150479718Y-44474524D01*
X150472802Y-44471401D01*
X150470516Y-44470017D01*
X150455835Y-44461643D01*
X150453475Y-44460378D01*
X150447261Y-44456010D01*
X150440182Y-44453250D01*
X150440180Y-44453249D01*
X150387725Y-44432798D01*
X150381656Y-44430247D01*
X150323427Y-44403955D01*
X150315960Y-44402571D01*
X150313405Y-44401770D01*
X150297152Y-44397141D01*
X150294572Y-44396478D01*
X150287491Y-44393718D01*
X150279960Y-44392727D01*
X150279958Y-44392726D01*
X150234354Y-44386722D01*
X150169427Y-44357999D01*
X150161784Y-44350973D01*
X150051488Y-44240870D01*
X150051483Y-44240866D01*
X150046303Y-44235695D01*
X149987920Y-44199707D01*
X149901968Y-44146725D01*
X149901966Y-44146724D01*
X149895738Y-44142885D01*
X149815995Y-44116436D01*
X149734389Y-44089368D01*
X149734387Y-44089368D01*
X149727861Y-44087203D01*
X149721025Y-44086503D01*
X149721022Y-44086502D01*
X149677969Y-44082091D01*
X149623400Y-44076500D01*
X149143660Y-44076500D01*
X149075539Y-44056498D01*
X149054565Y-44039595D01*
X148984442Y-43969472D01*
X148978588Y-43963206D01*
X148945556Y-43925340D01*
X148945553Y-43925337D01*
X148940561Y-43919615D01*
X148888280Y-43882871D01*
X148882986Y-43878939D01*
X148838693Y-43844209D01*
X148832718Y-43839524D01*
X148825802Y-43836401D01*
X148823516Y-43835017D01*
X148808835Y-43826643D01*
X148806475Y-43825378D01*
X148800261Y-43821010D01*
X148793182Y-43818250D01*
X148793180Y-43818249D01*
X148740725Y-43797798D01*
X148734656Y-43795247D01*
X148676427Y-43768955D01*
X148668960Y-43767571D01*
X148666405Y-43766770D01*
X148650152Y-43762141D01*
X148647572Y-43761478D01*
X148640491Y-43758718D01*
X148632960Y-43757727D01*
X148632958Y-43757726D01*
X148603339Y-43753827D01*
X148577139Y-43750378D01*
X148570641Y-43749348D01*
X148507814Y-43737704D01*
X148500234Y-43738141D01*
X148500233Y-43738141D01*
X148445608Y-43741291D01*
X148438354Y-43741500D01*
X147534500Y-43741500D01*
X147466379Y-43721498D01*
X147419886Y-43667842D01*
X147408500Y-43615500D01*
X147408500Y-43551866D01*
X147401745Y-43489684D01*
X147350615Y-43353295D01*
X147263261Y-43236739D01*
X147146705Y-43149385D01*
X147010316Y-43098255D01*
X146948134Y-43091500D01*
X145151866Y-43091500D01*
X145089684Y-43098255D01*
X144953295Y-43149385D01*
X144836739Y-43236739D01*
X144749385Y-43353295D01*
X144746233Y-43361703D01*
X144704919Y-43471907D01*
X144662277Y-43528671D01*
X144595716Y-43553371D01*
X144526367Y-43538163D01*
X144493743Y-43512476D01*
X144443151Y-43456875D01*
X144443142Y-43456866D01*
X144439670Y-43453051D01*
X144435619Y-43449852D01*
X144435615Y-43449848D01*
X144268414Y-43317800D01*
X144268410Y-43317798D01*
X144264359Y-43314598D01*
X144068789Y-43206638D01*
X144063920Y-43204914D01*
X144063916Y-43204912D01*
X143863087Y-43133795D01*
X143863083Y-43133794D01*
X143858212Y-43132069D01*
X143853119Y-43131162D01*
X143853116Y-43131161D01*
X143643373Y-43093800D01*
X143643367Y-43093799D01*
X143638284Y-43092894D01*
X143564452Y-43091992D01*
X143420081Y-43090228D01*
X143420079Y-43090228D01*
X143414911Y-43090165D01*
X143194091Y-43123955D01*
X142981756Y-43193357D01*
X142783607Y-43296507D01*
X142779474Y-43299610D01*
X142779471Y-43299612D01*
X142609100Y-43427530D01*
X142604965Y-43430635D01*
X142565525Y-43471907D01*
X142511280Y-43528671D01*
X142450629Y-43592138D01*
X142447715Y-43596410D01*
X142447714Y-43596411D01*
X142432798Y-43618277D01*
X142324743Y-43776680D01*
X142304166Y-43821010D01*
X142255738Y-43925340D01*
X142230688Y-43979305D01*
X142170989Y-44194570D01*
X142147251Y-44416695D01*
X142147548Y-44421848D01*
X142147548Y-44421851D01*
X142153085Y-44517872D01*
X142160110Y-44639715D01*
X142161247Y-44644761D01*
X142161248Y-44644767D01*
X142185304Y-44751508D01*
X142209222Y-44857639D01*
X142293266Y-45064616D01*
X142295965Y-45069020D01*
X142395936Y-45232158D01*
X142409987Y-45255088D01*
X142556250Y-45423938D01*
X142728126Y-45566632D01*
X142801955Y-45609774D01*
X142850679Y-45661412D01*
X142863750Y-45731195D01*
X142837019Y-45796967D01*
X142796562Y-45830327D01*
X142788457Y-45834546D01*
X142779738Y-45840036D01*
X142609433Y-45967905D01*
X142601726Y-45974748D01*
X142454590Y-46128717D01*
X142448104Y-46136727D01*
X142328098Y-46312649D01*
X142323000Y-46321623D01*
X142233338Y-46514783D01*
X142229775Y-46524470D01*
X142174389Y-46724183D01*
X142175912Y-46732607D01*
X142188292Y-46736000D01*
X147368344Y-46736000D01*
X147381875Y-46732027D01*
X147383180Y-46722947D01*
X147341214Y-46555875D01*
X147337894Y-46546124D01*
X147252972Y-46350814D01*
X147248105Y-46341739D01*
X147132426Y-46162926D01*
X147126136Y-46154757D01*
X146982293Y-45996677D01*
X146951241Y-45932831D01*
X146959635Y-45862333D01*
X147004812Y-45807564D01*
X147031256Y-45793895D01*
X147138297Y-45753767D01*
X147146705Y-45750615D01*
X147263261Y-45663261D01*
X147350615Y-45546705D01*
X147401745Y-45410316D01*
X147408500Y-45348134D01*
X147408500Y-45284500D01*
X147428502Y-45216379D01*
X147482158Y-45169886D01*
X147534500Y-45158500D01*
X147738500Y-45158500D01*
X147806621Y-45178502D01*
X147853114Y-45232158D01*
X147864500Y-45284500D01*
X147864500Y-45385400D01*
X147864837Y-45388646D01*
X147864837Y-45388650D01*
X147868499Y-45423938D01*
X147875474Y-45491166D01*
X147877655Y-45497702D01*
X147877655Y-45497704D01*
X147901522Y-45569242D01*
X147931450Y-45658946D01*
X148024522Y-45809348D01*
X148149697Y-45934305D01*
X148154235Y-45937102D01*
X148194824Y-45994353D01*
X148198054Y-46065276D01*
X148162428Y-46126687D01*
X148153932Y-46134062D01*
X148143793Y-46142098D01*
X148029261Y-46256829D01*
X148020249Y-46268240D01*
X147935184Y-46406243D01*
X147929037Y-46419424D01*
X147877862Y-46573710D01*
X147874995Y-46587086D01*
X147865328Y-46681438D01*
X147865000Y-46687855D01*
X147865000Y-46712885D01*
X147869475Y-46728124D01*
X147870865Y-46729329D01*
X147878548Y-46731000D01*
X150312884Y-46731000D01*
X150328123Y-46726525D01*
X150329328Y-46725135D01*
X150330999Y-46717452D01*
X150330999Y-46687905D01*
X150330662Y-46681386D01*
X150324036Y-46617528D01*
X150336901Y-46547707D01*
X150385472Y-46495925D01*
X150454328Y-46478623D01*
X150521608Y-46501294D01*
X150538458Y-46515430D01*
X150779595Y-46756567D01*
X150813621Y-46818879D01*
X150816500Y-46845662D01*
X150816500Y-61997340D01*
X150796498Y-62065461D01*
X150779595Y-62086435D01*
X149153935Y-63712095D01*
X149091623Y-63746121D01*
X149064840Y-63749000D01*
X148597600Y-63749000D01*
X148594354Y-63749337D01*
X148594350Y-63749337D01*
X148498692Y-63759262D01*
X148498688Y-63759263D01*
X148491834Y-63759974D01*
X148485298Y-63762155D01*
X148485296Y-63762155D01*
X148353194Y-63806228D01*
X148324054Y-63815950D01*
X148173652Y-63909022D01*
X148168479Y-63914204D01*
X148058357Y-64024518D01*
X147996074Y-64058597D01*
X147969184Y-64061500D01*
X145244660Y-64061500D01*
X145176539Y-64041498D01*
X145130046Y-63987842D01*
X145119942Y-63917568D01*
X145149436Y-63852988D01*
X145155565Y-63846405D01*
X149578528Y-59423443D01*
X149584793Y-59417589D01*
X149622664Y-59384552D01*
X149622665Y-59384551D01*
X149628385Y-59379561D01*
X149665136Y-59327271D01*
X149669028Y-59322029D01*
X149708476Y-59271718D01*
X149711600Y-59264799D01*
X149712988Y-59262507D01*
X149721357Y-59247835D01*
X149722622Y-59245475D01*
X149726990Y-59239261D01*
X149750203Y-59179723D01*
X149752759Y-59173642D01*
X149775918Y-59122352D01*
X149779045Y-59115427D01*
X149780430Y-59107954D01*
X149781234Y-59105388D01*
X149785855Y-59089165D01*
X149786520Y-59086573D01*
X149789282Y-59079491D01*
X149797622Y-59016139D01*
X149798654Y-59009623D01*
X149808911Y-58954281D01*
X149810295Y-58946814D01*
X149806709Y-58884620D01*
X149806500Y-58877367D01*
X149806500Y-55037516D01*
X149826502Y-54969395D01*
X149880158Y-54922902D01*
X149887874Y-54919863D01*
X149889997Y-54918868D01*
X149896946Y-54916550D01*
X150047348Y-54823478D01*
X150172305Y-54698303D01*
X150176146Y-54692072D01*
X150261275Y-54553968D01*
X150261276Y-54553966D01*
X150265115Y-54547738D01*
X150320797Y-54379861D01*
X150331500Y-54275400D01*
X150331500Y-53674600D01*
X150320526Y-53568834D01*
X150264550Y-53401054D01*
X150171478Y-53250652D01*
X150046303Y-53125695D01*
X150041765Y-53122898D01*
X150001176Y-53065647D01*
X149997946Y-52994724D01*
X150033572Y-52933313D01*
X150042068Y-52925938D01*
X150052207Y-52917902D01*
X150166739Y-52803171D01*
X150175751Y-52791760D01*
X150260816Y-52653757D01*
X150266963Y-52640576D01*
X150318138Y-52486290D01*
X150321005Y-52472914D01*
X150330672Y-52378562D01*
X150331000Y-52372146D01*
X150331000Y-52347115D01*
X150326525Y-52331876D01*
X150325135Y-52330671D01*
X150317452Y-52329000D01*
X147883116Y-52329000D01*
X147867877Y-52333475D01*
X147866672Y-52334865D01*
X147865001Y-52342548D01*
X147865001Y-52372095D01*
X147865338Y-52378614D01*
X147875257Y-52474206D01*
X147878149Y-52487600D01*
X147929588Y-52641784D01*
X147935761Y-52654962D01*
X148021063Y-52792807D01*
X148030099Y-52804208D01*
X148144828Y-52918738D01*
X148153762Y-52925794D01*
X148194823Y-52983712D01*
X148198053Y-53054635D01*
X148162426Y-53116046D01*
X148154593Y-53122846D01*
X148148652Y-53126522D01*
X148023695Y-53251697D01*
X148019855Y-53257927D01*
X148019854Y-53257928D01*
X147961031Y-53353357D01*
X147930885Y-53402262D01*
X147875203Y-53570139D01*
X147864500Y-53674600D01*
X147864500Y-53775500D01*
X147844498Y-53843621D01*
X147790842Y-53890114D01*
X147738500Y-53901500D01*
X147278286Y-53901500D01*
X147210165Y-53881498D01*
X147172494Y-53843941D01*
X147132818Y-53782612D01*
X147130014Y-53778277D01*
X146979670Y-53613051D01*
X146975619Y-53609852D01*
X146975615Y-53609848D01*
X146808414Y-53477800D01*
X146808410Y-53477798D01*
X146804359Y-53474598D01*
X146762569Y-53451529D01*
X146712598Y-53401097D01*
X146697826Y-53331654D01*
X146722942Y-53265248D01*
X146750294Y-53238641D01*
X146925328Y-53113792D01*
X146933200Y-53107139D01*
X147084052Y-52956812D01*
X147090730Y-52948965D01*
X147215003Y-52776020D01*
X147220313Y-52767183D01*
X147314670Y-52576267D01*
X147318469Y-52566672D01*
X147380377Y-52362910D01*
X147382555Y-52352837D01*
X147383986Y-52341962D01*
X147381775Y-52327778D01*
X147368617Y-52324000D01*
X142193225Y-52324000D01*
X142179694Y-52327973D01*
X142178257Y-52337966D01*
X142208565Y-52472446D01*
X142211645Y-52482275D01*
X142291770Y-52679603D01*
X142296413Y-52688794D01*
X142407694Y-52870388D01*
X142413777Y-52878699D01*
X142553213Y-53039667D01*
X142560580Y-53046883D01*
X142724434Y-53182916D01*
X142732881Y-53188831D01*
X142801969Y-53229203D01*
X142850693Y-53280842D01*
X142863764Y-53350625D01*
X142837033Y-53416396D01*
X142796584Y-53449752D01*
X142783607Y-53456507D01*
X142779474Y-53459610D01*
X142779471Y-53459612D01*
X142634001Y-53568834D01*
X142604965Y-53590635D01*
X142450629Y-53752138D01*
X142447715Y-53756410D01*
X142447714Y-53756411D01*
X142388005Y-53843941D01*
X142324743Y-53936680D01*
X142230688Y-54139305D01*
X142170989Y-54354570D01*
X142147251Y-54576695D01*
X142160110Y-54799715D01*
X142161247Y-54804761D01*
X142161248Y-54804767D01*
X142185304Y-54911508D01*
X142209222Y-55017639D01*
X142293266Y-55224616D01*
X142295965Y-55229020D01*
X142407291Y-55410688D01*
X142409987Y-55415088D01*
X142556250Y-55583938D01*
X142728126Y-55726632D01*
X142921000Y-55839338D01*
X143129692Y-55919030D01*
X143134760Y-55920061D01*
X143134763Y-55920062D01*
X143242017Y-55941883D01*
X143348597Y-55963567D01*
X143353772Y-55963757D01*
X143353774Y-55963757D01*
X143566673Y-55971564D01*
X143566677Y-55971564D01*
X143571837Y-55971753D01*
X143576957Y-55971097D01*
X143576959Y-55971097D01*
X143788288Y-55944025D01*
X143788289Y-55944025D01*
X143793416Y-55943368D01*
X143798366Y-55941883D01*
X144002429Y-55880661D01*
X144002434Y-55880659D01*
X144007384Y-55879174D01*
X144207994Y-55780896D01*
X144389860Y-55651173D01*
X144548096Y-55493489D01*
X144607594Y-55410689D01*
X144636132Y-55370974D01*
X144692127Y-55327326D01*
X144738455Y-55318500D01*
X144820234Y-55318500D01*
X144888355Y-55338502D01*
X144927667Y-55378665D01*
X144949987Y-55415088D01*
X145096250Y-55583938D01*
X145268126Y-55726632D01*
X145461000Y-55839338D01*
X145669692Y-55919030D01*
X145674760Y-55920061D01*
X145674763Y-55920062D01*
X145782017Y-55941883D01*
X145888597Y-55963567D01*
X145893772Y-55963757D01*
X145893774Y-55963757D01*
X146106673Y-55971564D01*
X146106677Y-55971564D01*
X146111837Y-55971753D01*
X146116957Y-55971097D01*
X146116959Y-55971097D01*
X146328288Y-55944025D01*
X146328289Y-55944025D01*
X146333416Y-55943368D01*
X146338366Y-55941883D01*
X146542429Y-55880661D01*
X146542434Y-55880659D01*
X146547384Y-55879174D01*
X146747994Y-55780896D01*
X146929860Y-55651173D01*
X147088096Y-55493489D01*
X147147594Y-55410689D01*
X147176132Y-55370974D01*
X147232127Y-55327326D01*
X147278455Y-55318500D01*
X148263500Y-55318500D01*
X148331621Y-55338502D01*
X148378114Y-55392158D01*
X148389500Y-55444500D01*
X148389500Y-58556340D01*
X148369498Y-58624461D01*
X148352595Y-58645435D01*
X140019480Y-66978550D01*
X140013215Y-66984404D01*
X139969615Y-67022439D01*
X139965248Y-67028653D01*
X139932872Y-67074719D01*
X139928939Y-67080014D01*
X139889524Y-67130282D01*
X139886401Y-67137198D01*
X139885017Y-67139484D01*
X139876643Y-67154165D01*
X139875378Y-67156525D01*
X139871010Y-67162739D01*
X139868250Y-67169818D01*
X139868249Y-67169820D01*
X139847798Y-67222275D01*
X139845247Y-67228344D01*
X139818955Y-67286573D01*
X139817571Y-67294040D01*
X139816770Y-67296595D01*
X139812141Y-67312848D01*
X139811478Y-67315428D01*
X139808718Y-67322509D01*
X139807727Y-67330040D01*
X139807726Y-67330042D01*
X139800379Y-67385852D01*
X139799348Y-67392359D01*
X139787704Y-67455186D01*
X139788141Y-67462766D01*
X139788141Y-67462767D01*
X139791291Y-67517392D01*
X139791500Y-67524646D01*
X139791500Y-68408087D01*
X139771498Y-68476208D01*
X139717842Y-68522701D01*
X139647568Y-68532805D01*
X139582988Y-68503311D01*
X139565338Y-68484531D01*
X139558986Y-68476208D01*
X139553167Y-68468583D01*
X139359264Y-68279030D01*
X139140028Y-68119453D01*
X138900053Y-67993196D01*
X138895752Y-67991677D01*
X138895747Y-67991675D01*
X138717998Y-67928906D01*
X138644366Y-67902904D01*
X138546347Y-67883585D01*
X138382794Y-67851348D01*
X138382788Y-67851347D01*
X138378322Y-67850467D01*
X138373768Y-67850240D01*
X138373766Y-67850240D01*
X138112064Y-67837211D01*
X138112058Y-67837211D01*
X138107495Y-67836984D01*
X137837559Y-67862738D01*
X137833130Y-67863822D01*
X137833123Y-67863823D01*
X137703069Y-67895648D01*
X137574168Y-67927190D01*
X137569933Y-67928905D01*
X137569931Y-67928906D01*
X137327069Y-68027275D01*
X137322840Y-68028988D01*
X137088839Y-68166001D01*
X136877068Y-68335359D01*
X136873947Y-68338700D01*
X136737719Y-68484531D01*
X136691963Y-68533512D01*
X136537402Y-68756312D01*
X136535374Y-68760388D01*
X136535373Y-68760390D01*
X136439651Y-68952799D01*
X136416621Y-68999090D01*
X136332153Y-69256760D01*
X136331373Y-69261251D01*
X136331373Y-69261252D01*
X136297843Y-69454366D01*
X136285765Y-69523925D01*
X136281500Y-69609600D01*
X136281500Y-70298884D01*
X136281665Y-70301152D01*
X136281665Y-70301164D01*
X136289725Y-70412238D01*
X136296125Y-70500451D01*
X136297109Y-70504906D01*
X136297109Y-70504909D01*
X136353429Y-70760000D01*
X136354585Y-70765237D01*
X136450655Y-71018810D01*
X136582324Y-71255859D01*
X136617092Y-71301416D01*
X136698316Y-71407844D01*
X136746833Y-71471417D01*
X136750099Y-71474610D01*
X136750101Y-71474612D01*
X136822173Y-71545067D01*
X136940736Y-71660970D01*
X137159972Y-71820547D01*
X137399947Y-71946804D01*
X137404248Y-71948323D01*
X137404253Y-71948325D01*
X137537087Y-71995233D01*
X137655634Y-72037096D01*
X137718131Y-72049414D01*
X137917206Y-72088652D01*
X137917212Y-72088653D01*
X137921678Y-72089533D01*
X137926232Y-72089760D01*
X137926234Y-72089760D01*
X138187936Y-72102789D01*
X138187942Y-72102789D01*
X138192505Y-72103016D01*
X138462441Y-72077262D01*
X138466870Y-72076178D01*
X138466877Y-72076177D01*
X138626584Y-72037096D01*
X138725832Y-72012810D01*
X138853462Y-71961115D01*
X138972931Y-71912725D01*
X138972932Y-71912725D01*
X138977160Y-71911012D01*
X139211161Y-71773999D01*
X139422932Y-71604641D01*
X139520349Y-71500357D01*
X139573425Y-71443540D01*
X139634543Y-71407414D01*
X139705490Y-71410067D01*
X139763741Y-71450655D01*
X139790800Y-71516292D01*
X139791500Y-71529552D01*
X139791500Y-82881503D01*
X139771498Y-82949624D01*
X139754595Y-82970598D01*
X134509599Y-88215595D01*
X134447287Y-88249621D01*
X134420504Y-88252500D01*
X131189480Y-88252500D01*
X131121359Y-88232498D01*
X131100462Y-88215673D01*
X131083884Y-88199123D01*
X130996303Y-88111695D01*
X130991765Y-88108898D01*
X130951176Y-88051647D01*
X130947946Y-87980724D01*
X130983572Y-87919313D01*
X130992068Y-87911938D01*
X131002207Y-87903902D01*
X131116739Y-87789171D01*
X131125751Y-87777760D01*
X131210816Y-87639757D01*
X131216963Y-87626576D01*
X131268138Y-87472290D01*
X131271005Y-87458914D01*
X131280672Y-87364562D01*
X131281000Y-87358146D01*
X131281000Y-87333115D01*
X131276525Y-87317876D01*
X131275135Y-87316671D01*
X131267452Y-87315000D01*
X128833116Y-87315000D01*
X128817877Y-87319475D01*
X128816672Y-87320865D01*
X128815001Y-87328548D01*
X128815001Y-87358095D01*
X128815338Y-87364614D01*
X128825257Y-87460206D01*
X128828149Y-87473600D01*
X128879588Y-87627784D01*
X128885761Y-87640962D01*
X128971063Y-87778807D01*
X128980099Y-87790208D01*
X129094828Y-87904738D01*
X129103762Y-87911794D01*
X129144823Y-87969712D01*
X129148053Y-88040635D01*
X129112426Y-88102046D01*
X129104593Y-88108846D01*
X129098652Y-88112522D01*
X129093479Y-88117704D01*
X128995835Y-88215518D01*
X128933552Y-88249597D01*
X128906662Y-88252500D01*
X127426500Y-88252500D01*
X127358379Y-88232498D01*
X127311886Y-88178842D01*
X127300500Y-88126500D01*
X127300500Y-86788885D01*
X128815000Y-86788885D01*
X128819475Y-86804124D01*
X128820865Y-86805329D01*
X128828548Y-86807000D01*
X129775885Y-86807000D01*
X129791124Y-86802525D01*
X129792329Y-86801135D01*
X129794000Y-86793452D01*
X129794000Y-86788885D01*
X130302000Y-86788885D01*
X130306475Y-86804124D01*
X130307865Y-86805329D01*
X130315548Y-86807000D01*
X131262884Y-86807000D01*
X131278123Y-86802525D01*
X131279328Y-86801135D01*
X131280999Y-86793452D01*
X131280999Y-86763905D01*
X131280662Y-86757386D01*
X131270743Y-86661794D01*
X131267851Y-86648400D01*
X131216412Y-86494216D01*
X131210239Y-86481038D01*
X131124937Y-86343193D01*
X131115901Y-86331792D01*
X131001171Y-86217261D01*
X130989760Y-86208249D01*
X130851757Y-86123184D01*
X130838576Y-86117037D01*
X130684290Y-86065862D01*
X130670914Y-86062995D01*
X130576562Y-86053328D01*
X130570145Y-86053000D01*
X130320115Y-86053000D01*
X130304876Y-86057475D01*
X130303671Y-86058865D01*
X130302000Y-86066548D01*
X130302000Y-86788885D01*
X129794000Y-86788885D01*
X129794000Y-86071116D01*
X129789525Y-86055877D01*
X129788135Y-86054672D01*
X129780452Y-86053001D01*
X129525905Y-86053001D01*
X129519386Y-86053338D01*
X129423794Y-86063257D01*
X129410400Y-86066149D01*
X129256216Y-86117588D01*
X129243038Y-86123761D01*
X129105193Y-86209063D01*
X129093792Y-86218099D01*
X128979261Y-86332829D01*
X128970249Y-86344240D01*
X128885184Y-86482243D01*
X128879037Y-86495424D01*
X128827862Y-86649710D01*
X128824995Y-86663086D01*
X128815328Y-86757438D01*
X128815000Y-86763855D01*
X128815000Y-86788885D01*
X127300500Y-86788885D01*
X127300500Y-86615498D01*
X127297562Y-86578169D01*
X127251145Y-86418399D01*
X127224952Y-86374109D01*
X127170491Y-86282020D01*
X127170489Y-86282017D01*
X127166453Y-86275193D01*
X127048807Y-86157547D01*
X127041983Y-86153511D01*
X127041980Y-86153509D01*
X126912427Y-86076892D01*
X126912428Y-86076892D01*
X126905601Y-86072855D01*
X126897990Y-86070644D01*
X126897988Y-86070643D01*
X126810142Y-86045122D01*
X126745831Y-86026438D01*
X126739426Y-86025934D01*
X126739421Y-86025933D01*
X126710958Y-86023693D01*
X126710950Y-86023693D01*
X126708502Y-86023500D01*
X126275498Y-86023500D01*
X126273050Y-86023693D01*
X126273042Y-86023693D01*
X126244579Y-86025933D01*
X126244574Y-86025934D01*
X126238169Y-86026438D01*
X126173858Y-86045122D01*
X126086012Y-86070643D01*
X126086010Y-86070644D01*
X126078399Y-86072855D01*
X125935193Y-86157547D01*
X125932253Y-86160487D01*
X125867729Y-86185821D01*
X125798106Y-86171920D01*
X125779360Y-86159871D01*
X125771677Y-86153911D01*
X125642221Y-86077352D01*
X125627790Y-86071107D01*
X125493395Y-86032061D01*
X125479294Y-86032101D01*
X125476000Y-86039370D01*
X125476000Y-88968878D01*
X125479973Y-88982409D01*
X125487871Y-88983544D01*
X125627790Y-88942893D01*
X125642226Y-88936646D01*
X125662759Y-88924503D01*
X125731576Y-88907044D01*
X125798907Y-88929562D01*
X125844763Y-88988420D01*
X125856827Y-89020349D01*
X125856829Y-89020353D01*
X125859513Y-89027456D01*
X125863817Y-89033718D01*
X125865054Y-89036085D01*
X125873299Y-89050897D01*
X125874632Y-89053151D01*
X125877685Y-89060105D01*
X125890122Y-89076312D01*
X125916579Y-89110791D01*
X125920459Y-89116132D01*
X125952339Y-89162520D01*
X125952344Y-89162525D01*
X125956643Y-89168781D01*
X125962312Y-89173831D01*
X125962312Y-89173832D01*
X126003169Y-89210234D01*
X126008446Y-89215216D01*
X126234764Y-89441535D01*
X126240617Y-89447800D01*
X126278639Y-89491385D01*
X126330929Y-89528136D01*
X126336171Y-89532028D01*
X126386482Y-89571476D01*
X126393401Y-89574600D01*
X126395693Y-89575988D01*
X126410365Y-89584357D01*
X126412725Y-89585622D01*
X126418939Y-89589990D01*
X126426018Y-89592750D01*
X126426020Y-89592751D01*
X126478475Y-89613202D01*
X126484544Y-89615753D01*
X126542773Y-89642045D01*
X126550246Y-89643430D01*
X126552812Y-89644234D01*
X126569035Y-89648855D01*
X126571627Y-89649520D01*
X126578709Y-89652282D01*
X126586244Y-89653274D01*
X126642061Y-89660622D01*
X126648577Y-89661654D01*
X126686970Y-89668770D01*
X126711386Y-89673295D01*
X126718966Y-89672858D01*
X126718967Y-89672858D01*
X126773580Y-89669709D01*
X126780833Y-89669500D01*
X128906520Y-89669500D01*
X128974641Y-89689502D01*
X128995536Y-89706325D01*
X129099697Y-89810305D01*
X129200125Y-89872210D01*
X129247617Y-89924981D01*
X129259041Y-89995053D01*
X129230767Y-90060177D01*
X129200311Y-90086613D01*
X129113101Y-90140581D01*
X129098652Y-90149522D01*
X129093479Y-90154704D01*
X128995835Y-90252518D01*
X128933552Y-90286597D01*
X128906662Y-90289500D01*
X123230912Y-90289500D01*
X123222342Y-90289208D01*
X123172224Y-90285791D01*
X123172220Y-90285791D01*
X123164648Y-90285275D01*
X123157171Y-90286580D01*
X123157170Y-90286580D01*
X123130692Y-90291201D01*
X123101697Y-90296262D01*
X123095179Y-90297223D01*
X123031758Y-90304898D01*
X123024657Y-90307581D01*
X123022048Y-90308222D01*
X123005738Y-90312685D01*
X123003202Y-90313450D01*
X122995716Y-90314757D01*
X122988759Y-90317811D01*
X122937205Y-90340442D01*
X122931101Y-90342933D01*
X122871344Y-90365513D01*
X122865081Y-90369817D01*
X122862715Y-90371054D01*
X122847903Y-90379299D01*
X122845649Y-90380632D01*
X122838695Y-90383685D01*
X122787998Y-90422587D01*
X122782668Y-90426459D01*
X122736280Y-90458339D01*
X122736275Y-90458344D01*
X122730019Y-90462643D01*
X122724968Y-90468313D01*
X122724966Y-90468314D01*
X122688565Y-90509170D01*
X122683584Y-90514446D01*
X122201480Y-90996550D01*
X122195215Y-91002404D01*
X122151615Y-91040439D01*
X122147248Y-91046653D01*
X122114872Y-91092719D01*
X122110939Y-91098014D01*
X122071524Y-91148282D01*
X122068400Y-91155200D01*
X122064461Y-91161705D01*
X122063341Y-91161026D01*
X122044603Y-91188137D01*
X122007547Y-91225193D01*
X122003511Y-91232017D01*
X122003509Y-91232020D01*
X121988989Y-91256572D01*
X121922855Y-91368399D01*
X121876438Y-91528169D01*
X121875934Y-91534574D01*
X121875933Y-91534579D01*
X121873693Y-91563042D01*
X121873500Y-91565498D01*
X121873500Y-93348502D01*
X121873693Y-93350950D01*
X121873693Y-93350958D01*
X121875927Y-93379333D01*
X121876438Y-93385831D01*
X121878233Y-93392008D01*
X121920586Y-93537790D01*
X121922855Y-93545601D01*
X121926892Y-93552427D01*
X122003509Y-93681980D01*
X122003511Y-93681983D01*
X122007547Y-93688807D01*
X122014859Y-93696119D01*
X122015767Y-93697783D01*
X122018011Y-93700675D01*
X122017544Y-93701037D01*
X122048885Y-93758431D01*
X122043820Y-93829246D01*
X122014859Y-93874309D01*
X121638573Y-94250595D01*
X121576261Y-94284621D01*
X121549478Y-94287500D01*
X119916911Y-94287500D01*
X119908342Y-94287208D01*
X119858223Y-94283791D01*
X119858219Y-94283791D01*
X119850647Y-94283275D01*
X119787685Y-94294264D01*
X119781195Y-94295221D01*
X119717758Y-94302898D01*
X119710649Y-94305584D01*
X119708078Y-94306216D01*
X119691772Y-94310676D01*
X119689204Y-94311451D01*
X119681716Y-94312758D01*
X119646722Y-94328119D01*
X119623212Y-94338439D01*
X119617105Y-94340931D01*
X119564452Y-94360827D01*
X119557344Y-94363513D01*
X119551083Y-94367816D01*
X119548717Y-94369053D01*
X119533937Y-94377280D01*
X119531652Y-94378631D01*
X119524695Y-94381685D01*
X119518675Y-94386305D01*
X119518669Y-94386308D01*
X119487542Y-94410194D01*
X119473998Y-94420587D01*
X119468668Y-94424459D01*
X119422280Y-94456339D01*
X119422275Y-94456344D01*
X119416019Y-94460643D01*
X119410968Y-94466313D01*
X119410966Y-94466314D01*
X119374565Y-94507170D01*
X119369584Y-94512446D01*
X118899480Y-94982550D01*
X118893215Y-94988404D01*
X118849615Y-95026439D01*
X118845248Y-95032653D01*
X118812872Y-95078719D01*
X118808939Y-95084014D01*
X118769524Y-95134282D01*
X118766401Y-95141198D01*
X118765017Y-95143484D01*
X118756643Y-95158165D01*
X118755378Y-95160525D01*
X118751010Y-95166739D01*
X118748250Y-95173818D01*
X118748249Y-95173820D01*
X118727798Y-95226275D01*
X118725247Y-95232344D01*
X118698955Y-95290573D01*
X118697571Y-95298040D01*
X118696770Y-95300595D01*
X118692141Y-95316848D01*
X118691478Y-95319428D01*
X118688718Y-95326509D01*
X118687727Y-95334040D01*
X118687726Y-95334042D01*
X118680379Y-95389852D01*
X118679348Y-95396359D01*
X118667704Y-95459186D01*
X118668141Y-95466766D01*
X118668141Y-95466767D01*
X118671291Y-95521392D01*
X118671500Y-95528646D01*
X118671500Y-97253088D01*
X118671208Y-97261658D01*
X118668922Y-97295195D01*
X118667275Y-97319352D01*
X118678015Y-97380887D01*
X118678261Y-97382299D01*
X118679223Y-97388821D01*
X118686898Y-97452242D01*
X118689581Y-97459343D01*
X118690222Y-97461952D01*
X118694685Y-97478262D01*
X118695450Y-97480798D01*
X118696757Y-97488284D01*
X118699811Y-97495241D01*
X118722442Y-97546795D01*
X118724933Y-97552899D01*
X118747513Y-97612656D01*
X118751817Y-97618919D01*
X118753054Y-97621285D01*
X118761299Y-97636097D01*
X118762632Y-97638351D01*
X118765685Y-97645305D01*
X118770307Y-97651328D01*
X118804579Y-97695991D01*
X118808459Y-97701332D01*
X118840339Y-97747720D01*
X118840344Y-97747725D01*
X118844643Y-97753981D01*
X118850313Y-97759032D01*
X118850314Y-97759034D01*
X118891170Y-97795435D01*
X118896446Y-97800416D01*
X119506595Y-98410565D01*
X119540621Y-98472877D01*
X119543500Y-98499660D01*
X119543500Y-98532400D01*
X119543837Y-98535646D01*
X119543837Y-98535650D01*
X119553484Y-98628622D01*
X119554474Y-98638166D01*
X119556655Y-98644702D01*
X119556655Y-98644704D01*
X119588946Y-98741490D01*
X119610450Y-98805946D01*
X119703522Y-98956348D01*
X119828697Y-99081305D01*
X119834927Y-99085145D01*
X119834928Y-99085146D01*
X119972090Y-99169694D01*
X119979262Y-99174115D01*
X120059005Y-99200564D01*
X120140611Y-99227632D01*
X120140613Y-99227632D01*
X120147139Y-99229797D01*
X120153975Y-99230497D01*
X120153978Y-99230498D01*
X120197031Y-99234909D01*
X120251600Y-99240500D01*
X121302400Y-99240500D01*
X121305646Y-99240163D01*
X121305650Y-99240163D01*
X121401308Y-99230238D01*
X121401312Y-99230237D01*
X121408166Y-99229526D01*
X121414702Y-99227345D01*
X121414704Y-99227345D01*
X121561004Y-99178535D01*
X121575946Y-99173550D01*
X121726348Y-99080478D01*
X121748502Y-99058285D01*
X121829165Y-98977482D01*
X121891448Y-98943403D01*
X121918338Y-98940500D01*
X123533128Y-98940500D01*
X123601249Y-98960502D01*
X123622145Y-98977326D01*
X123645854Y-99000993D01*
X123663697Y-99018805D01*
X123669927Y-99022645D01*
X123669928Y-99022646D01*
X123814262Y-99111615D01*
X123813226Y-99113295D01*
X123859031Y-99153621D01*
X123878500Y-99220905D01*
X123878500Y-106370301D01*
X123878208Y-106378871D01*
X123874275Y-106436565D01*
X123875580Y-106444042D01*
X123875580Y-106444043D01*
X123885261Y-106499512D01*
X123886223Y-106506034D01*
X123893898Y-106569455D01*
X123896581Y-106576556D01*
X123897222Y-106579165D01*
X123901685Y-106595475D01*
X123902450Y-106598011D01*
X123903757Y-106605497D01*
X123906811Y-106612454D01*
X123929442Y-106664008D01*
X123931933Y-106670112D01*
X123954513Y-106729869D01*
X123958817Y-106736132D01*
X123960054Y-106738498D01*
X123968299Y-106753310D01*
X123969632Y-106755564D01*
X123972685Y-106762518D01*
X123989163Y-106783991D01*
X124011579Y-106813204D01*
X124015459Y-106818545D01*
X124047339Y-106864933D01*
X124047344Y-106864938D01*
X124051643Y-106871194D01*
X124057313Y-106876245D01*
X124057314Y-106876247D01*
X124098170Y-106912648D01*
X124103446Y-106917629D01*
X129683595Y-112497778D01*
X129717621Y-112560090D01*
X129720500Y-112586873D01*
X129720500Y-120428113D01*
X129700498Y-120496234D01*
X129654270Y-120536684D01*
X129655054Y-120537950D01*
X129504652Y-120631022D01*
X129379695Y-120756197D01*
X129286885Y-120906762D01*
X129231203Y-121074639D01*
X129220500Y-121179100D01*
X129220500Y-121804900D01*
X129231474Y-121910666D01*
X129233655Y-121917202D01*
X129233655Y-121917204D01*
X129253524Y-121976757D01*
X129287450Y-122078446D01*
X129380522Y-122228848D01*
X129385704Y-122234021D01*
X129467109Y-122315284D01*
X129501188Y-122377566D01*
X129496185Y-122448386D01*
X129467264Y-122493475D01*
X129407340Y-122553504D01*
X129379695Y-122581197D01*
X129375855Y-122587427D01*
X129375854Y-122587428D01*
X129375195Y-122588498D01*
X129286885Y-122731762D01*
X129231203Y-122899639D01*
X129220500Y-123004100D01*
X129220500Y-123629900D01*
X129220837Y-123633146D01*
X129220837Y-123633150D01*
X129222448Y-123648671D01*
X129231474Y-123735666D01*
X129287450Y-123903446D01*
X129380522Y-124053848D01*
X129385704Y-124059021D01*
X129447451Y-124120661D01*
X129505697Y-124178805D01*
X129511927Y-124182645D01*
X129511928Y-124182646D01*
X129649090Y-124267194D01*
X129656262Y-124271615D01*
X129736005Y-124298064D01*
X129817611Y-124325132D01*
X129817613Y-124325132D01*
X129824139Y-124327297D01*
X129830975Y-124327997D01*
X129830978Y-124327998D01*
X129874031Y-124332409D01*
X129928600Y-124338000D01*
X130929400Y-124338000D01*
X130932646Y-124337663D01*
X130932650Y-124337663D01*
X131028308Y-124327738D01*
X131028312Y-124327737D01*
X131035166Y-124327026D01*
X131041702Y-124324845D01*
X131041704Y-124324845D01*
X131173806Y-124280772D01*
X131202946Y-124271050D01*
X131353348Y-124177978D01*
X131468643Y-124062482D01*
X131530926Y-124028403D01*
X131557816Y-124025500D01*
X132041368Y-124025500D01*
X132109489Y-124045502D01*
X132148801Y-124085665D01*
X132209501Y-124184719D01*
X132361147Y-124359784D01*
X132539349Y-124507730D01*
X132739322Y-124624584D01*
X132955694Y-124707209D01*
X132960760Y-124708240D01*
X132960761Y-124708240D01*
X133013846Y-124719040D01*
X133182656Y-124753385D01*
X133313324Y-124758176D01*
X133408949Y-124761683D01*
X133408953Y-124761683D01*
X133414113Y-124761872D01*
X133419233Y-124761216D01*
X133419235Y-124761216D01*
X133492270Y-124751860D01*
X133643847Y-124732442D01*
X133648795Y-124730957D01*
X133648802Y-124730956D01*
X133860747Y-124667369D01*
X133865690Y-124665886D01*
X133946236Y-124626427D01*
X134069049Y-124566262D01*
X134069052Y-124566260D01*
X134073684Y-124563991D01*
X134262243Y-124429494D01*
X134426303Y-124266005D01*
X134561458Y-124077917D01*
X134569087Y-124062482D01*
X134661784Y-123874922D01*
X134661785Y-123874920D01*
X134664078Y-123870280D01*
X134731408Y-123648671D01*
X134761640Y-123419041D01*
X134763327Y-123350000D01*
X134757032Y-123273434D01*
X134744773Y-123124318D01*
X134744772Y-123124312D01*
X134744349Y-123119167D01*
X134714643Y-123000902D01*
X134689184Y-122899544D01*
X134689183Y-122899540D01*
X134687925Y-122894533D01*
X134617150Y-122731762D01*
X134597630Y-122686868D01*
X134597628Y-122686865D01*
X134595570Y-122682131D01*
X134469764Y-122487665D01*
X134313887Y-122316358D01*
X134309836Y-122313159D01*
X134309832Y-122313155D01*
X134136177Y-122176011D01*
X134136172Y-122176008D01*
X134132123Y-122172810D01*
X134127607Y-122170317D01*
X134127604Y-122170315D01*
X133933879Y-122063373D01*
X133933875Y-122063371D01*
X133929355Y-122060876D01*
X133924486Y-122059152D01*
X133924482Y-122059150D01*
X133715903Y-121985288D01*
X133715899Y-121985287D01*
X133711028Y-121983562D01*
X133705935Y-121982655D01*
X133705932Y-121982654D01*
X133488095Y-121943851D01*
X133488089Y-121943850D01*
X133483006Y-121942945D01*
X133410096Y-121942054D01*
X133256581Y-121940179D01*
X133256579Y-121940179D01*
X133251411Y-121940116D01*
X133022464Y-121975150D01*
X132802314Y-122047106D01*
X132797726Y-122049494D01*
X132797722Y-122049496D01*
X132730142Y-122084676D01*
X132596872Y-122154052D01*
X132592739Y-122157155D01*
X132592736Y-122157157D01*
X132490363Y-122234021D01*
X132411655Y-122293117D01*
X132389445Y-122316358D01*
X132263277Y-122448386D01*
X132251639Y-122460564D01*
X132188238Y-122553506D01*
X132133329Y-122598507D01*
X132084152Y-122608500D01*
X131558002Y-122608500D01*
X131489881Y-122588498D01*
X131468984Y-122571673D01*
X131450784Y-122553504D01*
X131390891Y-122493716D01*
X131356812Y-122431434D01*
X131361815Y-122360613D01*
X131390736Y-122315525D01*
X131473134Y-122232983D01*
X131478305Y-122227803D01*
X131571115Y-122077238D01*
X131615679Y-121942882D01*
X131624632Y-121915889D01*
X131624632Y-121915887D01*
X131626797Y-121909361D01*
X131637500Y-121804900D01*
X131637500Y-121179100D01*
X131626526Y-121073334D01*
X131570550Y-120905554D01*
X131477478Y-120755152D01*
X131352303Y-120630195D01*
X131201738Y-120537385D01*
X131202774Y-120535705D01*
X131156969Y-120495379D01*
X131137500Y-120428095D01*
X131137500Y-118131406D01*
X132553423Y-118131406D01*
X132558704Y-118138461D01*
X132735080Y-118241527D01*
X132744363Y-118245974D01*
X132951003Y-118324883D01*
X132960901Y-118327759D01*
X133177653Y-118371857D01*
X133187883Y-118373076D01*
X133408914Y-118381182D01*
X133419223Y-118380714D01*
X133638623Y-118352608D01*
X133648688Y-118350468D01*
X133860557Y-118286905D01*
X133870152Y-118283144D01*
X134068778Y-118185838D01*
X134077636Y-118180559D01*
X134135097Y-118139572D01*
X134143497Y-118128874D01*
X134136510Y-118115721D01*
X133362811Y-117342021D01*
X133348868Y-117334408D01*
X133347034Y-117334539D01*
X133340420Y-117338790D01*
X132560180Y-118119031D01*
X132553423Y-118131406D01*
X131137500Y-118131406D01*
X131137500Y-116940638D01*
X131937893Y-116940638D01*
X131950627Y-117161468D01*
X131952061Y-117171670D01*
X132000685Y-117387439D01*
X132003773Y-117397292D01*
X132086986Y-117602220D01*
X132091634Y-117611421D01*
X132180097Y-117755781D01*
X132190553Y-117765242D01*
X132199331Y-117761458D01*
X132977979Y-116982811D01*
X132984356Y-116971132D01*
X133714408Y-116971132D01*
X133714539Y-116972966D01*
X133718790Y-116979580D01*
X134496307Y-117757096D01*
X134508313Y-117763652D01*
X134520052Y-117754684D01*
X134558010Y-117701859D01*
X134563321Y-117693020D01*
X134661318Y-117494737D01*
X134665117Y-117485142D01*
X134729415Y-117273517D01*
X134731594Y-117263436D01*
X134760702Y-117042338D01*
X134761221Y-117035663D01*
X134762744Y-116973364D01*
X134762550Y-116966646D01*
X134744279Y-116744400D01*
X134742596Y-116734238D01*
X134688710Y-116519708D01*
X134685389Y-116509953D01*
X134597193Y-116307118D01*
X134592315Y-116298020D01*
X134519224Y-116185038D01*
X134508538Y-116175835D01*
X134498973Y-116180238D01*
X133722021Y-116957189D01*
X133714408Y-116971132D01*
X132984356Y-116971132D01*
X132985592Y-116968868D01*
X132985461Y-116967034D01*
X132981210Y-116960420D01*
X132203862Y-116183073D01*
X132192330Y-116176776D01*
X132180048Y-116186399D01*
X132124467Y-116267877D01*
X132119379Y-116276833D01*
X132026252Y-116477459D01*
X132022689Y-116487146D01*
X131963581Y-116700280D01*
X131961650Y-116710400D01*
X131938145Y-116930349D01*
X131937893Y-116940638D01*
X131137500Y-116940638D01*
X131137500Y-115810711D01*
X132555508Y-115810711D01*
X132562251Y-115823040D01*
X133337189Y-116597979D01*
X133351132Y-116605592D01*
X133352966Y-116605461D01*
X133359580Y-116601210D01*
X134138994Y-115821795D01*
X134146011Y-115808944D01*
X134138237Y-115798274D01*
X134135902Y-115796430D01*
X134127320Y-115790729D01*
X133933678Y-115683833D01*
X133924272Y-115679606D01*
X133715772Y-115605772D01*
X133705809Y-115603140D01*
X133488047Y-115564350D01*
X133477796Y-115563381D01*
X133256616Y-115560679D01*
X133246332Y-115561399D01*
X133027693Y-115594855D01*
X133017666Y-115597244D01*
X132807426Y-115665961D01*
X132797916Y-115669958D01*
X132601725Y-115772089D01*
X132593007Y-115777578D01*
X132563961Y-115799386D01*
X132555508Y-115810711D01*
X131137500Y-115810711D01*
X131137500Y-115031406D01*
X132553423Y-115031406D01*
X132558704Y-115038461D01*
X132735080Y-115141527D01*
X132744363Y-115145974D01*
X132951003Y-115224883D01*
X132960901Y-115227759D01*
X133177653Y-115271857D01*
X133187883Y-115273076D01*
X133408914Y-115281182D01*
X133419223Y-115280714D01*
X133638623Y-115252608D01*
X133648688Y-115250468D01*
X133860557Y-115186905D01*
X133870152Y-115183144D01*
X134068778Y-115085838D01*
X134077636Y-115080559D01*
X134135097Y-115039572D01*
X134143497Y-115028874D01*
X134136510Y-115015721D01*
X133362811Y-114242021D01*
X133348868Y-114234408D01*
X133347034Y-114234539D01*
X133340420Y-114238790D01*
X132560180Y-115019031D01*
X132553423Y-115031406D01*
X131137500Y-115031406D01*
X131137500Y-113840638D01*
X131937893Y-113840638D01*
X131950627Y-114061468D01*
X131952061Y-114071670D01*
X132000685Y-114287439D01*
X132003773Y-114297292D01*
X132086986Y-114502220D01*
X132091634Y-114511421D01*
X132180097Y-114655781D01*
X132190553Y-114665242D01*
X132199331Y-114661458D01*
X132977979Y-113882811D01*
X132984356Y-113871132D01*
X133714408Y-113871132D01*
X133714539Y-113872966D01*
X133718790Y-113879580D01*
X134496307Y-114657096D01*
X134508313Y-114663652D01*
X134520052Y-114654684D01*
X134558010Y-114601859D01*
X134563321Y-114593020D01*
X134661318Y-114394737D01*
X134665117Y-114385142D01*
X134729415Y-114173517D01*
X134731594Y-114163436D01*
X134760702Y-113942338D01*
X134761221Y-113935663D01*
X134762744Y-113873364D01*
X134762550Y-113866646D01*
X134744279Y-113644400D01*
X134742596Y-113634238D01*
X134688710Y-113419708D01*
X134685389Y-113409953D01*
X134597193Y-113207118D01*
X134592315Y-113198020D01*
X134519224Y-113085038D01*
X134508538Y-113075835D01*
X134498973Y-113080238D01*
X133722021Y-113857189D01*
X133714408Y-113871132D01*
X132984356Y-113871132D01*
X132985592Y-113868868D01*
X132985461Y-113867034D01*
X132981210Y-113860420D01*
X132203862Y-113083073D01*
X132192330Y-113076776D01*
X132180048Y-113086399D01*
X132124467Y-113167877D01*
X132119379Y-113176833D01*
X132026252Y-113377459D01*
X132022689Y-113387146D01*
X131963581Y-113600280D01*
X131961650Y-113610400D01*
X131938145Y-113830349D01*
X131937893Y-113840638D01*
X131137500Y-113840638D01*
X131137500Y-112710711D01*
X132555508Y-112710711D01*
X132562251Y-112723040D01*
X133337189Y-113497979D01*
X133351132Y-113505592D01*
X133352966Y-113505461D01*
X133359580Y-113501210D01*
X134138994Y-112721795D01*
X134146011Y-112708944D01*
X134138237Y-112698274D01*
X134135902Y-112696430D01*
X134127320Y-112690729D01*
X133933678Y-112583833D01*
X133924272Y-112579606D01*
X133715772Y-112505772D01*
X133705809Y-112503140D01*
X133488047Y-112464350D01*
X133477796Y-112463381D01*
X133256616Y-112460679D01*
X133246332Y-112461399D01*
X133027693Y-112494855D01*
X133017666Y-112497244D01*
X132807426Y-112565961D01*
X132797916Y-112569958D01*
X132601725Y-112672089D01*
X132593007Y-112677578D01*
X132563961Y-112699386D01*
X132555508Y-112710711D01*
X131137500Y-112710711D01*
X131137500Y-112270140D01*
X131137792Y-112261571D01*
X131141210Y-112211438D01*
X131141210Y-112211434D01*
X131141726Y-112203861D01*
X131130736Y-112140894D01*
X131129775Y-112134378D01*
X131123014Y-112078511D01*
X131122102Y-112070971D01*
X131119419Y-112063870D01*
X131118778Y-112061261D01*
X131114313Y-112044941D01*
X131113548Y-112042408D01*
X131112243Y-112034930D01*
X131086552Y-111976403D01*
X131084067Y-111970315D01*
X131064172Y-111917662D01*
X131064171Y-111917660D01*
X131061487Y-111910557D01*
X131057186Y-111904298D01*
X131055949Y-111901933D01*
X131047727Y-111887161D01*
X131046372Y-111884869D01*
X131043316Y-111877908D01*
X131038691Y-111871881D01*
X131038689Y-111871877D01*
X131004407Y-111827200D01*
X131000529Y-111821863D01*
X130968659Y-111775491D01*
X130968658Y-111775490D01*
X130964357Y-111769232D01*
X130917838Y-111727785D01*
X130912563Y-111722805D01*
X125332405Y-106142648D01*
X125298379Y-106080336D01*
X125295500Y-106053553D01*
X125295500Y-99220887D01*
X125315502Y-99152766D01*
X125361730Y-99112316D01*
X125360946Y-99111050D01*
X125505120Y-99021832D01*
X125511348Y-99017978D01*
X125636305Y-98892803D01*
X125694128Y-98798998D01*
X125729115Y-98742238D01*
X125731574Y-98743753D01*
X125769791Y-98700368D01*
X125838072Y-98680922D01*
X125906028Y-98701479D01*
X125952082Y-98755512D01*
X125962603Y-98796373D01*
X125968994Y-98872492D01*
X125976036Y-98956348D01*
X125978268Y-98982934D01*
X125984306Y-99003991D01*
X126027212Y-99153621D01*
X126032783Y-99173050D01*
X126123187Y-99348956D01*
X126246035Y-99503953D01*
X126396650Y-99632136D01*
X126569294Y-99728624D01*
X126757392Y-99789740D01*
X126953777Y-99813158D01*
X126959912Y-99812686D01*
X126959914Y-99812686D01*
X127144830Y-99798457D01*
X127144834Y-99798456D01*
X127150972Y-99797984D01*
X127341463Y-99744798D01*
X127505691Y-99661841D01*
X127575512Y-99648981D01*
X127641203Y-99675910D01*
X127681906Y-99734080D01*
X127688500Y-99774307D01*
X127688500Y-103755488D01*
X127688208Y-103764058D01*
X127684275Y-103821752D01*
X127685580Y-103829229D01*
X127685580Y-103829230D01*
X127695261Y-103884699D01*
X127696223Y-103891221D01*
X127703898Y-103954642D01*
X127706581Y-103961743D01*
X127707222Y-103964352D01*
X127711685Y-103980662D01*
X127712450Y-103983198D01*
X127713757Y-103990684D01*
X127716811Y-103997641D01*
X127739442Y-104049195D01*
X127741933Y-104055299D01*
X127764513Y-104115056D01*
X127768817Y-104121319D01*
X127770054Y-104123685D01*
X127778299Y-104138497D01*
X127779632Y-104140751D01*
X127782685Y-104147705D01*
X127794380Y-104162945D01*
X127821579Y-104198391D01*
X127825459Y-104203732D01*
X127857339Y-104250120D01*
X127857344Y-104250125D01*
X127861643Y-104256381D01*
X127867313Y-104261432D01*
X127867314Y-104261434D01*
X127908170Y-104297835D01*
X127913446Y-104302816D01*
X140986595Y-117375965D01*
X141020621Y-117438277D01*
X141023500Y-117465060D01*
X141023500Y-120428113D01*
X141003498Y-120496234D01*
X140957270Y-120536684D01*
X140958054Y-120537950D01*
X140807652Y-120631022D01*
X140682695Y-120756197D01*
X140589885Y-120906762D01*
X140534203Y-121074639D01*
X140523500Y-121179100D01*
X140523500Y-121804900D01*
X140534474Y-121910666D01*
X140536655Y-121917202D01*
X140536655Y-121917204D01*
X140556524Y-121976757D01*
X140590450Y-122078446D01*
X140683522Y-122228848D01*
X140688704Y-122234021D01*
X140770109Y-122315284D01*
X140804188Y-122377566D01*
X140799185Y-122448386D01*
X140770264Y-122493475D01*
X140710340Y-122553504D01*
X140682695Y-122581197D01*
X140678855Y-122587427D01*
X140678854Y-122587428D01*
X140678195Y-122588498D01*
X140589885Y-122731762D01*
X140534203Y-122899639D01*
X140523500Y-123004100D01*
X140523500Y-123629900D01*
X140523837Y-123633146D01*
X140523837Y-123633150D01*
X140525448Y-123648671D01*
X140534474Y-123735666D01*
X140590450Y-123903446D01*
X140683522Y-124053848D01*
X140688704Y-124059021D01*
X140750451Y-124120661D01*
X140808697Y-124178805D01*
X140814927Y-124182645D01*
X140814928Y-124182646D01*
X140952090Y-124267194D01*
X140959262Y-124271615D01*
X141039005Y-124298064D01*
X141120611Y-124325132D01*
X141120613Y-124325132D01*
X141127139Y-124327297D01*
X141133975Y-124327997D01*
X141133978Y-124327998D01*
X141177031Y-124332409D01*
X141231600Y-124338000D01*
X142232400Y-124338000D01*
X142235646Y-124337663D01*
X142235650Y-124337663D01*
X142331308Y-124327738D01*
X142331312Y-124327737D01*
X142338166Y-124327026D01*
X142344702Y-124324845D01*
X142344704Y-124324845D01*
X142476806Y-124280772D01*
X142505946Y-124271050D01*
X142656348Y-124177978D01*
X142771643Y-124062482D01*
X142833926Y-124028403D01*
X142860816Y-124025500D01*
X143471368Y-124025500D01*
X143539489Y-124045502D01*
X143578801Y-124085665D01*
X143639501Y-124184719D01*
X143791147Y-124359784D01*
X143969349Y-124507730D01*
X144169322Y-124624584D01*
X144385694Y-124707209D01*
X144390760Y-124708240D01*
X144390761Y-124708240D01*
X144443846Y-124719040D01*
X144612656Y-124753385D01*
X144743324Y-124758176D01*
X144838949Y-124761683D01*
X144838953Y-124761683D01*
X144844113Y-124761872D01*
X144849233Y-124761216D01*
X144849235Y-124761216D01*
X144922270Y-124751860D01*
X145073847Y-124732442D01*
X145078795Y-124730957D01*
X145078802Y-124730956D01*
X145290747Y-124667369D01*
X145295690Y-124665886D01*
X145376236Y-124626427D01*
X145499049Y-124566262D01*
X145499052Y-124566260D01*
X145503684Y-124563991D01*
X145692243Y-124429494D01*
X145856303Y-124266005D01*
X145991458Y-124077917D01*
X145999087Y-124062482D01*
X146091784Y-123874922D01*
X146091785Y-123874920D01*
X146094078Y-123870280D01*
X146161408Y-123648671D01*
X146191640Y-123419041D01*
X146193327Y-123350000D01*
X146187032Y-123273434D01*
X146174773Y-123124318D01*
X146174772Y-123124312D01*
X146174349Y-123119167D01*
X146144643Y-123000902D01*
X146119184Y-122899544D01*
X146119183Y-122899540D01*
X146117925Y-122894533D01*
X146047150Y-122731762D01*
X146027630Y-122686868D01*
X146027628Y-122686865D01*
X146025570Y-122682131D01*
X145899764Y-122487665D01*
X145743887Y-122316358D01*
X145739836Y-122313159D01*
X145739832Y-122313155D01*
X145566177Y-122176011D01*
X145566172Y-122176008D01*
X145562123Y-122172810D01*
X145557607Y-122170317D01*
X145557604Y-122170315D01*
X145363879Y-122063373D01*
X145363875Y-122063371D01*
X145359355Y-122060876D01*
X145354486Y-122059152D01*
X145354482Y-122059150D01*
X145145903Y-121985288D01*
X145145899Y-121985287D01*
X145141028Y-121983562D01*
X145135935Y-121982655D01*
X145135932Y-121982654D01*
X144918095Y-121943851D01*
X144918089Y-121943850D01*
X144913006Y-121942945D01*
X144840096Y-121942054D01*
X144686581Y-121940179D01*
X144686579Y-121940179D01*
X144681411Y-121940116D01*
X144452464Y-121975150D01*
X144232314Y-122047106D01*
X144227726Y-122049494D01*
X144227722Y-122049496D01*
X144160142Y-122084676D01*
X144026872Y-122154052D01*
X144022739Y-122157155D01*
X144022736Y-122157157D01*
X143920363Y-122234021D01*
X143841655Y-122293117D01*
X143819445Y-122316358D01*
X143693277Y-122448386D01*
X143681639Y-122460564D01*
X143618238Y-122553506D01*
X143563329Y-122598507D01*
X143514152Y-122608500D01*
X142861002Y-122608500D01*
X142792881Y-122588498D01*
X142771984Y-122571673D01*
X142753784Y-122553504D01*
X142693891Y-122493716D01*
X142659812Y-122431434D01*
X142664815Y-122360613D01*
X142693736Y-122315525D01*
X142776134Y-122232983D01*
X142781305Y-122227803D01*
X142874115Y-122077238D01*
X142918679Y-121942882D01*
X142927632Y-121915889D01*
X142927632Y-121915887D01*
X142929797Y-121909361D01*
X142940500Y-121804900D01*
X142940500Y-121179100D01*
X142929526Y-121073334D01*
X142873550Y-120905554D01*
X142780478Y-120755152D01*
X142655303Y-120630195D01*
X142504738Y-120537385D01*
X142505774Y-120535705D01*
X142459969Y-120495379D01*
X142440500Y-120428095D01*
X142440500Y-118131406D01*
X143983423Y-118131406D01*
X143988704Y-118138461D01*
X144165080Y-118241527D01*
X144174363Y-118245974D01*
X144381003Y-118324883D01*
X144390901Y-118327759D01*
X144607653Y-118371857D01*
X144617883Y-118373076D01*
X144838914Y-118381182D01*
X144849223Y-118380714D01*
X145068623Y-118352608D01*
X145078688Y-118350468D01*
X145290557Y-118286905D01*
X145300152Y-118283144D01*
X145498778Y-118185838D01*
X145507636Y-118180559D01*
X145565097Y-118139572D01*
X145573497Y-118128874D01*
X145566510Y-118115721D01*
X144792811Y-117342021D01*
X144778868Y-117334408D01*
X144777034Y-117334539D01*
X144770420Y-117338790D01*
X143990180Y-118119031D01*
X143983423Y-118131406D01*
X142440500Y-118131406D01*
X142440500Y-117148327D01*
X142440792Y-117139758D01*
X142444210Y-117089625D01*
X142444210Y-117089621D01*
X142444726Y-117082048D01*
X142433736Y-117019081D01*
X142432775Y-117012565D01*
X142427218Y-116966646D01*
X142425102Y-116949158D01*
X142422419Y-116942057D01*
X142422070Y-116940638D01*
X143367893Y-116940638D01*
X143380627Y-117161468D01*
X143382061Y-117171670D01*
X143430685Y-117387439D01*
X143433773Y-117397292D01*
X143516986Y-117602220D01*
X143521634Y-117611421D01*
X143610097Y-117755781D01*
X143620553Y-117765242D01*
X143629331Y-117761458D01*
X144407979Y-116982811D01*
X144414356Y-116971132D01*
X145144408Y-116971132D01*
X145144539Y-116972966D01*
X145148790Y-116979580D01*
X145926307Y-117757096D01*
X145938313Y-117763652D01*
X145950052Y-117754684D01*
X145988010Y-117701859D01*
X145993321Y-117693020D01*
X146091318Y-117494737D01*
X146095117Y-117485142D01*
X146159415Y-117273517D01*
X146161594Y-117263436D01*
X146190702Y-117042338D01*
X146191221Y-117035663D01*
X146192744Y-116973364D01*
X146192550Y-116966646D01*
X146174279Y-116744400D01*
X146172596Y-116734238D01*
X146118710Y-116519708D01*
X146115389Y-116509953D01*
X146027193Y-116307118D01*
X146022315Y-116298020D01*
X145949224Y-116185038D01*
X145938538Y-116175835D01*
X145928973Y-116180238D01*
X145152021Y-116957189D01*
X145144408Y-116971132D01*
X144414356Y-116971132D01*
X144415592Y-116968868D01*
X144415461Y-116967034D01*
X144411210Y-116960420D01*
X143633862Y-116183073D01*
X143622330Y-116176776D01*
X143610048Y-116186399D01*
X143554467Y-116267877D01*
X143549379Y-116276833D01*
X143456252Y-116477459D01*
X143452689Y-116487146D01*
X143393581Y-116700280D01*
X143391650Y-116710400D01*
X143368145Y-116930349D01*
X143367893Y-116940638D01*
X142422070Y-116940638D01*
X142421778Y-116939448D01*
X142417309Y-116923115D01*
X142416548Y-116920595D01*
X142415243Y-116913117D01*
X142412191Y-116906164D01*
X142389559Y-116854604D01*
X142387068Y-116848499D01*
X142367175Y-116795856D01*
X142367173Y-116795852D01*
X142364487Y-116788744D01*
X142360184Y-116782483D01*
X142358947Y-116780117D01*
X142350720Y-116765337D01*
X142349369Y-116763052D01*
X142346315Y-116756095D01*
X142341695Y-116750075D01*
X142341692Y-116750069D01*
X142307421Y-116705409D01*
X142303541Y-116700068D01*
X142271661Y-116653680D01*
X142271656Y-116653675D01*
X142267357Y-116647419D01*
X142220829Y-116605964D01*
X142215554Y-116600984D01*
X141425281Y-115810711D01*
X143985508Y-115810711D01*
X143992251Y-115823040D01*
X144767189Y-116597979D01*
X144781132Y-116605592D01*
X144782966Y-116605461D01*
X144789580Y-116601210D01*
X145568994Y-115821795D01*
X145576011Y-115808944D01*
X145568237Y-115798274D01*
X145565902Y-115796430D01*
X145557320Y-115790729D01*
X145363678Y-115683833D01*
X145354272Y-115679606D01*
X145145772Y-115605772D01*
X145135809Y-115603140D01*
X144918047Y-115564350D01*
X144907796Y-115563381D01*
X144686616Y-115560679D01*
X144676332Y-115561399D01*
X144457693Y-115594855D01*
X144447666Y-115597244D01*
X144237426Y-115665961D01*
X144227916Y-115669958D01*
X144031725Y-115772089D01*
X144023007Y-115777578D01*
X143993961Y-115799386D01*
X143985508Y-115810711D01*
X141425281Y-115810711D01*
X139450039Y-113835469D01*
X143367095Y-113835469D01*
X143367392Y-113840622D01*
X143367392Y-113840625D01*
X143380129Y-114061529D01*
X143380427Y-114066697D01*
X143381564Y-114071743D01*
X143381565Y-114071749D01*
X143413741Y-114214523D01*
X143431346Y-114292642D01*
X143433288Y-114297424D01*
X143433289Y-114297428D01*
X143516447Y-114502220D01*
X143518484Y-114507237D01*
X143639501Y-114704719D01*
X143791147Y-114879784D01*
X143969349Y-115027730D01*
X144169322Y-115144584D01*
X144385694Y-115227209D01*
X144390760Y-115228240D01*
X144390761Y-115228240D01*
X144443846Y-115239040D01*
X144612656Y-115273385D01*
X144743324Y-115278176D01*
X144838949Y-115281683D01*
X144838953Y-115281683D01*
X144844113Y-115281872D01*
X144849233Y-115281216D01*
X144849235Y-115281216D01*
X144922291Y-115271857D01*
X145073847Y-115252442D01*
X145078795Y-115250957D01*
X145078802Y-115250956D01*
X145290747Y-115187369D01*
X145295690Y-115185886D01*
X145377161Y-115145974D01*
X145499049Y-115086262D01*
X145499052Y-115086260D01*
X145503684Y-115083991D01*
X145692243Y-114949494D01*
X145856303Y-114786005D01*
X145991458Y-114597917D01*
X145993879Y-114593020D01*
X146091784Y-114394922D01*
X146091785Y-114394920D01*
X146094078Y-114390280D01*
X146161408Y-114168671D01*
X146191640Y-113939041D01*
X146193327Y-113870000D01*
X146187032Y-113793434D01*
X146174773Y-113644318D01*
X146174772Y-113644312D01*
X146174349Y-113639167D01*
X146140797Y-113505592D01*
X146119184Y-113419544D01*
X146119183Y-113419540D01*
X146117925Y-113414533D01*
X146106017Y-113387146D01*
X146027630Y-113206868D01*
X146027628Y-113206865D01*
X146025570Y-113202131D01*
X145899764Y-113007665D01*
X145743887Y-112836358D01*
X145739836Y-112833159D01*
X145739832Y-112833155D01*
X145566177Y-112696011D01*
X145566172Y-112696008D01*
X145562123Y-112692810D01*
X145557607Y-112690317D01*
X145557604Y-112690315D01*
X145363879Y-112583373D01*
X145363875Y-112583371D01*
X145359355Y-112580876D01*
X145354486Y-112579152D01*
X145354482Y-112579150D01*
X145145903Y-112505288D01*
X145145899Y-112505287D01*
X145141028Y-112503562D01*
X145135935Y-112502655D01*
X145135932Y-112502654D01*
X144918095Y-112463851D01*
X144918089Y-112463850D01*
X144913006Y-112462945D01*
X144840096Y-112462054D01*
X144686581Y-112460179D01*
X144686579Y-112460179D01*
X144681411Y-112460116D01*
X144452464Y-112495150D01*
X144232314Y-112567106D01*
X144227726Y-112569494D01*
X144227722Y-112569496D01*
X144031461Y-112671663D01*
X144026872Y-112674052D01*
X144022739Y-112677155D01*
X144022736Y-112677157D01*
X143963284Y-112721795D01*
X143841655Y-112813117D01*
X143681639Y-112980564D01*
X143678725Y-112984836D01*
X143678724Y-112984837D01*
X143663152Y-113007665D01*
X143551119Y-113171899D01*
X143453602Y-113381981D01*
X143391707Y-113605169D01*
X143367095Y-113835469D01*
X139450039Y-113835469D01*
X132703446Y-107088876D01*
X132669420Y-107026564D01*
X132674485Y-106955749D01*
X132717032Y-106898913D01*
X132783552Y-106874102D01*
X132837490Y-106882071D01*
X132851158Y-106887290D01*
X132955694Y-106927209D01*
X132960760Y-106928240D01*
X132960761Y-106928240D01*
X133013846Y-106939040D01*
X133182656Y-106973385D01*
X133313324Y-106978176D01*
X133408949Y-106981683D01*
X133408953Y-106981683D01*
X133414113Y-106981872D01*
X133419233Y-106981216D01*
X133419235Y-106981216D01*
X133492270Y-106971860D01*
X133643847Y-106952442D01*
X133648795Y-106950957D01*
X133648802Y-106950956D01*
X133860747Y-106887369D01*
X133865690Y-106885886D01*
X133870324Y-106883616D01*
X134069049Y-106786262D01*
X134069052Y-106786260D01*
X134073684Y-106783991D01*
X134262243Y-106649494D01*
X134426303Y-106486005D01*
X134561458Y-106297917D01*
X134585360Y-106249556D01*
X134661784Y-106094922D01*
X134661785Y-106094920D01*
X134664078Y-106090280D01*
X134731408Y-105868671D01*
X134761640Y-105639041D01*
X134763327Y-105570000D01*
X134760488Y-105535469D01*
X143367095Y-105535469D01*
X143367392Y-105540622D01*
X143367392Y-105540625D01*
X143373067Y-105639041D01*
X143380427Y-105766697D01*
X143381564Y-105771743D01*
X143381565Y-105771749D01*
X143413741Y-105914523D01*
X143431346Y-105992642D01*
X143433288Y-105997424D01*
X143433289Y-105997428D01*
X143492257Y-106142648D01*
X143518484Y-106207237D01*
X143639501Y-106404719D01*
X143791147Y-106579784D01*
X143969349Y-106727730D01*
X144169322Y-106844584D01*
X144385694Y-106927209D01*
X144390760Y-106928240D01*
X144390761Y-106928240D01*
X144443846Y-106939040D01*
X144612656Y-106973385D01*
X144743324Y-106978176D01*
X144838949Y-106981683D01*
X144838953Y-106981683D01*
X144844113Y-106981872D01*
X144849233Y-106981216D01*
X144849235Y-106981216D01*
X144922270Y-106971860D01*
X145073847Y-106952442D01*
X145078795Y-106950957D01*
X145078802Y-106950956D01*
X145290747Y-106887369D01*
X145295690Y-106885886D01*
X145300324Y-106883616D01*
X145499049Y-106786262D01*
X145499052Y-106786260D01*
X145503684Y-106783991D01*
X145692243Y-106649494D01*
X145856303Y-106486005D01*
X145991458Y-106297917D01*
X146015360Y-106249556D01*
X146091784Y-106094922D01*
X146091785Y-106094920D01*
X146094078Y-106090280D01*
X146161408Y-105868671D01*
X146191640Y-105639041D01*
X146193327Y-105570000D01*
X146187032Y-105493434D01*
X146174773Y-105344318D01*
X146174772Y-105344312D01*
X146174349Y-105339167D01*
X146117925Y-105114533D01*
X146115866Y-105109797D01*
X146027630Y-104906868D01*
X146027628Y-104906865D01*
X146025570Y-104902131D01*
X145899764Y-104707665D01*
X145743887Y-104536358D01*
X145739836Y-104533159D01*
X145739832Y-104533155D01*
X145566177Y-104396011D01*
X145566172Y-104396008D01*
X145562123Y-104392810D01*
X145557607Y-104390317D01*
X145557604Y-104390315D01*
X145363879Y-104283373D01*
X145363875Y-104283371D01*
X145359355Y-104280876D01*
X145354486Y-104279152D01*
X145354482Y-104279150D01*
X145145903Y-104205288D01*
X145145899Y-104205287D01*
X145141028Y-104203562D01*
X145135935Y-104202655D01*
X145135932Y-104202654D01*
X144918095Y-104163851D01*
X144918089Y-104163850D01*
X144913006Y-104162945D01*
X144840096Y-104162054D01*
X144686581Y-104160179D01*
X144686579Y-104160179D01*
X144681411Y-104160116D01*
X144452464Y-104195150D01*
X144232314Y-104267106D01*
X144227726Y-104269494D01*
X144227722Y-104269496D01*
X144031461Y-104371663D01*
X144026872Y-104374052D01*
X144022739Y-104377155D01*
X144022736Y-104377157D01*
X143997625Y-104396011D01*
X143841655Y-104513117D01*
X143681639Y-104680564D01*
X143678725Y-104684836D01*
X143678724Y-104684837D01*
X143663152Y-104707665D01*
X143551119Y-104871899D01*
X143453602Y-105081981D01*
X143391707Y-105305169D01*
X143367095Y-105535469D01*
X134760488Y-105535469D01*
X134757032Y-105493434D01*
X134744773Y-105344318D01*
X134744772Y-105344312D01*
X134744349Y-105339167D01*
X134687925Y-105114533D01*
X134685866Y-105109797D01*
X134597630Y-104906868D01*
X134597628Y-104906865D01*
X134595570Y-104902131D01*
X134469764Y-104707665D01*
X134313887Y-104536358D01*
X134309836Y-104533159D01*
X134309832Y-104533155D01*
X134136177Y-104396011D01*
X134136172Y-104396008D01*
X134132123Y-104392810D01*
X134127607Y-104390317D01*
X134127604Y-104390315D01*
X133933879Y-104283373D01*
X133933875Y-104283371D01*
X133929355Y-104280876D01*
X133924486Y-104279152D01*
X133924482Y-104279150D01*
X133715903Y-104205288D01*
X133715899Y-104205287D01*
X133711028Y-104203562D01*
X133705935Y-104202655D01*
X133705932Y-104202654D01*
X133488095Y-104163851D01*
X133488089Y-104163850D01*
X133483006Y-104162945D01*
X133410096Y-104162054D01*
X133256581Y-104160179D01*
X133256579Y-104160179D01*
X133251411Y-104160116D01*
X133022464Y-104195150D01*
X132802314Y-104267106D01*
X132797726Y-104269494D01*
X132797722Y-104269496D01*
X132601461Y-104371663D01*
X132596872Y-104374052D01*
X132592739Y-104377155D01*
X132592736Y-104377157D01*
X132567625Y-104396011D01*
X132411655Y-104513117D01*
X132251639Y-104680564D01*
X132248725Y-104684836D01*
X132248724Y-104684837D01*
X132233152Y-104707665D01*
X132121119Y-104871899D01*
X132023602Y-105081981D01*
X131961707Y-105305169D01*
X131937095Y-105535469D01*
X131937392Y-105540622D01*
X131937392Y-105540625D01*
X131943067Y-105639041D01*
X131950427Y-105766697D01*
X131951564Y-105771743D01*
X131951565Y-105771749D01*
X131983741Y-105914523D01*
X132001346Y-105992642D01*
X132003288Y-105997424D01*
X132003289Y-105997428D01*
X132036758Y-106079851D01*
X132043854Y-106150492D01*
X132011632Y-106213755D01*
X131950323Y-106249556D01*
X131879391Y-106246526D01*
X131830920Y-106216350D01*
X129142405Y-103527835D01*
X129108379Y-103465523D01*
X129105500Y-103438740D01*
X129105500Y-99220887D01*
X129125502Y-99152766D01*
X129171730Y-99112316D01*
X129170946Y-99111050D01*
X129315120Y-99021832D01*
X129321348Y-99017978D01*
X129446305Y-98892803D01*
X129485074Y-98829909D01*
X129535275Y-98748468D01*
X129535276Y-98748466D01*
X129539115Y-98742238D01*
X129541625Y-98734669D01*
X139602001Y-98734669D01*
X139602371Y-98741490D01*
X139607895Y-98792352D01*
X139611521Y-98807604D01*
X139656676Y-98928054D01*
X139665214Y-98943649D01*
X139741715Y-99045724D01*
X139754276Y-99058285D01*
X139856351Y-99134786D01*
X139871946Y-99143324D01*
X139992394Y-99188478D01*
X140007649Y-99192105D01*
X140058514Y-99197631D01*
X140065328Y-99198000D01*
X140737885Y-99198000D01*
X140753124Y-99193525D01*
X140754329Y-99192135D01*
X140756000Y-99184452D01*
X140756000Y-99179884D01*
X141264000Y-99179884D01*
X141268475Y-99195123D01*
X141269865Y-99196328D01*
X141277548Y-99197999D01*
X141954669Y-99197999D01*
X141961490Y-99197629D01*
X142012352Y-99192105D01*
X142027604Y-99188479D01*
X142148054Y-99143324D01*
X142163649Y-99134786D01*
X142265724Y-99058285D01*
X142278285Y-99045724D01*
X142354786Y-98943649D01*
X142363325Y-98928052D01*
X142375278Y-98896167D01*
X142417919Y-98839402D01*
X142484480Y-98814702D01*
X142553829Y-98829909D01*
X142573741Y-98843448D01*
X142699349Y-98947730D01*
X142899322Y-99064584D01*
X142904147Y-99066426D01*
X142904148Y-99066427D01*
X142953168Y-99085146D01*
X143115694Y-99147209D01*
X143120760Y-99148240D01*
X143120761Y-99148240D01*
X143143007Y-99152766D01*
X143342656Y-99193385D01*
X143473324Y-99198176D01*
X143568949Y-99201683D01*
X143568953Y-99201683D01*
X143574113Y-99201872D01*
X143579233Y-99201216D01*
X143579235Y-99201216D01*
X143678668Y-99188478D01*
X143803847Y-99172442D01*
X143808795Y-99170957D01*
X143808802Y-99170956D01*
X144020747Y-99107369D01*
X144025690Y-99105886D01*
X144068026Y-99085146D01*
X144229049Y-99006262D01*
X144229052Y-99006260D01*
X144233684Y-99003991D01*
X144422243Y-98869494D01*
X144586303Y-98706005D01*
X144655370Y-98609888D01*
X144711365Y-98566240D01*
X144782068Y-98559794D01*
X144845033Y-98592597D01*
X144865128Y-98617584D01*
X144866799Y-98620311D01*
X144866804Y-98620317D01*
X144869501Y-98624719D01*
X145021147Y-98799784D01*
X145199349Y-98947730D01*
X145399322Y-99064584D01*
X145404147Y-99066426D01*
X145404148Y-99066427D01*
X145453168Y-99085146D01*
X145615694Y-99147209D01*
X145620760Y-99148240D01*
X145620761Y-99148240D01*
X145643007Y-99152766D01*
X145842656Y-99193385D01*
X145973324Y-99198176D01*
X146068949Y-99201683D01*
X146068953Y-99201683D01*
X146074113Y-99201872D01*
X146079233Y-99201216D01*
X146079235Y-99201216D01*
X146178668Y-99188478D01*
X146303847Y-99172442D01*
X146308795Y-99170957D01*
X146308802Y-99170956D01*
X146520747Y-99107369D01*
X146525690Y-99105886D01*
X146568026Y-99085146D01*
X146729049Y-99006262D01*
X146729052Y-99006260D01*
X146733684Y-99003991D01*
X146922243Y-98869494D01*
X147086303Y-98706005D01*
X147221458Y-98517917D01*
X147245190Y-98469900D01*
X147321784Y-98314922D01*
X147321785Y-98314920D01*
X147324078Y-98310280D01*
X147391408Y-98088671D01*
X147421640Y-97859041D01*
X147422005Y-97844100D01*
X147423245Y-97793365D01*
X147423245Y-97793361D01*
X147423327Y-97790000D01*
X147418521Y-97731547D01*
X147404773Y-97564318D01*
X147404772Y-97564312D01*
X147404349Y-97559167D01*
X147370995Y-97426380D01*
X147349184Y-97339544D01*
X147349183Y-97339540D01*
X147347925Y-97334533D01*
X147344576Y-97326830D01*
X147257630Y-97126868D01*
X147257628Y-97126865D01*
X147255570Y-97122131D01*
X147129764Y-96927665D01*
X146973887Y-96756358D01*
X146969836Y-96753159D01*
X146969832Y-96753155D01*
X146796177Y-96616011D01*
X146796172Y-96616008D01*
X146792123Y-96612810D01*
X146787607Y-96610317D01*
X146787604Y-96610315D01*
X146593879Y-96503373D01*
X146593875Y-96503371D01*
X146589355Y-96500876D01*
X146584486Y-96499152D01*
X146584482Y-96499150D01*
X146375903Y-96425288D01*
X146375899Y-96425287D01*
X146371028Y-96423562D01*
X146365935Y-96422655D01*
X146365932Y-96422654D01*
X146148095Y-96383851D01*
X146148089Y-96383850D01*
X146143006Y-96382945D01*
X146065644Y-96382000D01*
X145916581Y-96380179D01*
X145916579Y-96380179D01*
X145911411Y-96380116D01*
X145682464Y-96415150D01*
X145462314Y-96487106D01*
X145457726Y-96489494D01*
X145457722Y-96489496D01*
X145261461Y-96591663D01*
X145256872Y-96594052D01*
X145252739Y-96597155D01*
X145252736Y-96597157D01*
X145075790Y-96730012D01*
X145071655Y-96733117D01*
X144911639Y-96900564D01*
X144864836Y-96969174D01*
X144809927Y-97014175D01*
X144739402Y-97022346D01*
X144675655Y-96991092D01*
X144654959Y-96966609D01*
X144632577Y-96932013D01*
X144632574Y-96932009D01*
X144629764Y-96927665D01*
X144473887Y-96756358D01*
X144469836Y-96753159D01*
X144469832Y-96753155D01*
X144296177Y-96616011D01*
X144296172Y-96616008D01*
X144292123Y-96612810D01*
X144287607Y-96610317D01*
X144287604Y-96610315D01*
X144093879Y-96503373D01*
X144093875Y-96503371D01*
X144089355Y-96500876D01*
X144084486Y-96499152D01*
X144084482Y-96499150D01*
X143875903Y-96425288D01*
X143875899Y-96425287D01*
X143871028Y-96423562D01*
X143865935Y-96422655D01*
X143865932Y-96422654D01*
X143648095Y-96383851D01*
X143648089Y-96383850D01*
X143643006Y-96382945D01*
X143565644Y-96382000D01*
X143416581Y-96380179D01*
X143416579Y-96380179D01*
X143411411Y-96380116D01*
X143182464Y-96415150D01*
X142962314Y-96487106D01*
X142957726Y-96489494D01*
X142957722Y-96489496D01*
X142761461Y-96591663D01*
X142756872Y-96594052D01*
X142752739Y-96597155D01*
X142752736Y-96597157D01*
X142575790Y-96730012D01*
X142571655Y-96733117D01*
X142571066Y-96732333D01*
X142511346Y-96760484D01*
X142440955Y-96751231D01*
X142386741Y-96705391D01*
X142373925Y-96680224D01*
X142363323Y-96651944D01*
X142354786Y-96636351D01*
X142278285Y-96534276D01*
X142265724Y-96521715D01*
X142163649Y-96445214D01*
X142148054Y-96436676D01*
X142027606Y-96391522D01*
X142012351Y-96387895D01*
X141961486Y-96382369D01*
X141954672Y-96382000D01*
X141282115Y-96382000D01*
X141266876Y-96386475D01*
X141265671Y-96387865D01*
X141264000Y-96395548D01*
X141264000Y-99179884D01*
X140756000Y-99179884D01*
X140756000Y-98062115D01*
X140751525Y-98046876D01*
X140750135Y-98045671D01*
X140742452Y-98044000D01*
X139620116Y-98044000D01*
X139604877Y-98048475D01*
X139603672Y-98049865D01*
X139602001Y-98057548D01*
X139602001Y-98734669D01*
X129541625Y-98734669D01*
X129583013Y-98609888D01*
X129592632Y-98580889D01*
X129592632Y-98580887D01*
X129594797Y-98574361D01*
X129605500Y-98469900D01*
X129605500Y-97844100D01*
X129601579Y-97806309D01*
X129595238Y-97745192D01*
X129595237Y-97745188D01*
X129594526Y-97738334D01*
X129581274Y-97698611D01*
X129540868Y-97577502D01*
X129538550Y-97570554D01*
X129505957Y-97517885D01*
X139602000Y-97517885D01*
X139606475Y-97533124D01*
X139607865Y-97534329D01*
X139615548Y-97536000D01*
X140737885Y-97536000D01*
X140753124Y-97531525D01*
X140754329Y-97530135D01*
X140756000Y-97522452D01*
X140756000Y-96400116D01*
X140751525Y-96384877D01*
X140750135Y-96383672D01*
X140742452Y-96382001D01*
X140065331Y-96382001D01*
X140058510Y-96382371D01*
X140007648Y-96387895D01*
X139992396Y-96391521D01*
X139871946Y-96436676D01*
X139856351Y-96445214D01*
X139754276Y-96521715D01*
X139741715Y-96534276D01*
X139665214Y-96636351D01*
X139656676Y-96651946D01*
X139611522Y-96772394D01*
X139607895Y-96787649D01*
X139602369Y-96838514D01*
X139602000Y-96845328D01*
X139602000Y-97517885D01*
X129505957Y-97517885D01*
X129445478Y-97420152D01*
X129358891Y-97333716D01*
X129324812Y-97271434D01*
X129329815Y-97200614D01*
X129358736Y-97155525D01*
X129441134Y-97072983D01*
X129446305Y-97067803D01*
X129450146Y-97061572D01*
X129535275Y-96923468D01*
X129535276Y-96923466D01*
X129539115Y-96917238D01*
X129582098Y-96787649D01*
X129592632Y-96755889D01*
X129592632Y-96755887D01*
X129594797Y-96749361D01*
X129596079Y-96736855D01*
X129605172Y-96648098D01*
X129605500Y-96644900D01*
X129605500Y-96019100D01*
X129594526Y-95913334D01*
X129538550Y-95745554D01*
X129445478Y-95595152D01*
X129320303Y-95470195D01*
X129200534Y-95396368D01*
X129175968Y-95381225D01*
X129175966Y-95381224D01*
X129169738Y-95377385D01*
X129089995Y-95350936D01*
X129008389Y-95323868D01*
X129008387Y-95323868D01*
X129001861Y-95321703D01*
X128995025Y-95321003D01*
X128995022Y-95321002D01*
X128951969Y-95316591D01*
X128897400Y-95311000D01*
X127896600Y-95311000D01*
X127893354Y-95311337D01*
X127893350Y-95311337D01*
X127797692Y-95321262D01*
X127797688Y-95321263D01*
X127790834Y-95321974D01*
X127784298Y-95324155D01*
X127784296Y-95324155D01*
X127652194Y-95368228D01*
X127623054Y-95377950D01*
X127472652Y-95471022D01*
X127467479Y-95476204D01*
X127357357Y-95586518D01*
X127295074Y-95620597D01*
X127268184Y-95623500D01*
X126056500Y-95623500D01*
X125988379Y-95603498D01*
X125941886Y-95549842D01*
X125930500Y-95497500D01*
X125930500Y-94015472D01*
X125950502Y-93947351D01*
X126004158Y-93900858D01*
X126074432Y-93890754D01*
X126091653Y-93894475D01*
X126220604Y-93931939D01*
X126234706Y-93931899D01*
X126238000Y-93924630D01*
X126238000Y-93918878D01*
X126746000Y-93918878D01*
X126749973Y-93932409D01*
X126757871Y-93933544D01*
X126897790Y-93892893D01*
X126912221Y-93886648D01*
X127041678Y-93810089D01*
X127054104Y-93800449D01*
X127160449Y-93694104D01*
X127170089Y-93681678D01*
X127246648Y-93552221D01*
X127252893Y-93537790D01*
X127295269Y-93391935D01*
X127297570Y-93379333D01*
X127299807Y-93350916D01*
X127300000Y-93345986D01*
X127300000Y-93195095D01*
X128815001Y-93195095D01*
X128815338Y-93201614D01*
X128825257Y-93297206D01*
X128828149Y-93310600D01*
X128879588Y-93464784D01*
X128885761Y-93477962D01*
X128971063Y-93615807D01*
X128980099Y-93627208D01*
X129094829Y-93741739D01*
X129106240Y-93750751D01*
X129244243Y-93835816D01*
X129257424Y-93841963D01*
X129411710Y-93893138D01*
X129425086Y-93896005D01*
X129519438Y-93905672D01*
X129525854Y-93906000D01*
X129775885Y-93906000D01*
X129791124Y-93901525D01*
X129792329Y-93900135D01*
X129794000Y-93892452D01*
X129794000Y-93887884D01*
X130302000Y-93887884D01*
X130306475Y-93903123D01*
X130307865Y-93904328D01*
X130315548Y-93905999D01*
X130570095Y-93905999D01*
X130576614Y-93905662D01*
X130672206Y-93895743D01*
X130685600Y-93892851D01*
X130839784Y-93841412D01*
X130852962Y-93835239D01*
X130990807Y-93749937D01*
X131002208Y-93740901D01*
X131116739Y-93626171D01*
X131125751Y-93614760D01*
X131210816Y-93476757D01*
X131216963Y-93463576D01*
X131268138Y-93309290D01*
X131271005Y-93295914D01*
X131280672Y-93201562D01*
X131281000Y-93195146D01*
X131281000Y-93170115D01*
X131276525Y-93154876D01*
X131275135Y-93153671D01*
X131267452Y-93152000D01*
X130320115Y-93152000D01*
X130304876Y-93156475D01*
X130303671Y-93157865D01*
X130302000Y-93165548D01*
X130302000Y-93887884D01*
X129794000Y-93887884D01*
X129794000Y-93170115D01*
X129789525Y-93154876D01*
X129788135Y-93153671D01*
X129780452Y-93152000D01*
X128833116Y-93152000D01*
X128817877Y-93156475D01*
X128816672Y-93157865D01*
X128815001Y-93165548D01*
X128815001Y-93195095D01*
X127300000Y-93195095D01*
X127300000Y-92729115D01*
X127295525Y-92713876D01*
X127294135Y-92712671D01*
X127286452Y-92711000D01*
X126764115Y-92711000D01*
X126748876Y-92715475D01*
X126747671Y-92716865D01*
X126746000Y-92724548D01*
X126746000Y-93918878D01*
X126238000Y-93918878D01*
X126238000Y-92329000D01*
X126258002Y-92260879D01*
X126311658Y-92214386D01*
X126364000Y-92203000D01*
X127281884Y-92203000D01*
X127297123Y-92198525D01*
X127298328Y-92197135D01*
X127299999Y-92189452D01*
X127299999Y-91832500D01*
X127320001Y-91764379D01*
X127373657Y-91717886D01*
X127425999Y-91706500D01*
X128906520Y-91706500D01*
X128974641Y-91726502D01*
X128995536Y-91743325D01*
X129099697Y-91847305D01*
X129104235Y-91850102D01*
X129144824Y-91907353D01*
X129148054Y-91978276D01*
X129112428Y-92039687D01*
X129103932Y-92047062D01*
X129093793Y-92055098D01*
X128979261Y-92169829D01*
X128970249Y-92181240D01*
X128885184Y-92319243D01*
X128879037Y-92332424D01*
X128827862Y-92486710D01*
X128824995Y-92500086D01*
X128815328Y-92594438D01*
X128815000Y-92600855D01*
X128815000Y-92625885D01*
X128819475Y-92641124D01*
X128820865Y-92642329D01*
X128828548Y-92644000D01*
X131262884Y-92644000D01*
X131278123Y-92639525D01*
X131279328Y-92638135D01*
X131280999Y-92630452D01*
X131280999Y-92600905D01*
X131280662Y-92594386D01*
X131270743Y-92498794D01*
X131267851Y-92485400D01*
X131216412Y-92331216D01*
X131210239Y-92318038D01*
X131124937Y-92180193D01*
X131115901Y-92168792D01*
X131001172Y-92054262D01*
X130992238Y-92047206D01*
X130951177Y-91989288D01*
X130947947Y-91918365D01*
X130983574Y-91856954D01*
X130991407Y-91850154D01*
X130997348Y-91846478D01*
X131122305Y-91721303D01*
X131124466Y-91723460D01*
X131171127Y-91690357D01*
X131212126Y-91683500D01*
X133571088Y-91683500D01*
X133579658Y-91683792D01*
X133629776Y-91687209D01*
X133629780Y-91687209D01*
X133637352Y-91687725D01*
X133644829Y-91686420D01*
X133644830Y-91686420D01*
X133671308Y-91681799D01*
X133700303Y-91676738D01*
X133706821Y-91675777D01*
X133770242Y-91668102D01*
X133777343Y-91665419D01*
X133779952Y-91664778D01*
X133796262Y-91660315D01*
X133798798Y-91659550D01*
X133806284Y-91658243D01*
X133864800Y-91632556D01*
X133870904Y-91630065D01*
X133923548Y-91610173D01*
X133923549Y-91610172D01*
X133930656Y-91607487D01*
X133936919Y-91603183D01*
X133939285Y-91601946D01*
X133954097Y-91593701D01*
X133956351Y-91592368D01*
X133963305Y-91589315D01*
X134014002Y-91550413D01*
X134019332Y-91546541D01*
X134065720Y-91514661D01*
X134065725Y-91514656D01*
X134071981Y-91510357D01*
X134081557Y-91499610D01*
X134113435Y-91463830D01*
X134118416Y-91458554D01*
X134958086Y-90618884D01*
X136841500Y-90618884D01*
X136841665Y-90621152D01*
X136841665Y-90621164D01*
X136849725Y-90732238D01*
X136856125Y-90820451D01*
X136857109Y-90824906D01*
X136857109Y-90824909D01*
X136896482Y-91003240D01*
X136914585Y-91085237D01*
X137010655Y-91338810D01*
X137142324Y-91575859D01*
X137306833Y-91791417D01*
X137310099Y-91794610D01*
X137310101Y-91794612D01*
X137366182Y-91849435D01*
X137500736Y-91980970D01*
X137504428Y-91983657D01*
X137504430Y-91983659D01*
X137581405Y-92039687D01*
X137719972Y-92140547D01*
X137959947Y-92266804D01*
X137964248Y-92268323D01*
X137964253Y-92268325D01*
X138097087Y-92315233D01*
X138215634Y-92357096D01*
X138313653Y-92376415D01*
X138477206Y-92408652D01*
X138477212Y-92408653D01*
X138481678Y-92409533D01*
X138486232Y-92409760D01*
X138486234Y-92409760D01*
X138747936Y-92422789D01*
X138747942Y-92422789D01*
X138752505Y-92423016D01*
X139022441Y-92397262D01*
X139026870Y-92396178D01*
X139026877Y-92396177D01*
X139186584Y-92357096D01*
X139285832Y-92332810D01*
X139295239Y-92329000D01*
X139532931Y-92232725D01*
X139532932Y-92232725D01*
X139537160Y-92231012D01*
X139771161Y-92093999D01*
X139982932Y-91924641D01*
X140104399Y-91794612D01*
X140164921Y-91729824D01*
X140164923Y-91729821D01*
X140168037Y-91726488D01*
X140322598Y-91503688D01*
X140342427Y-91463830D01*
X140441346Y-91264997D01*
X140441347Y-91264994D01*
X140443379Y-91260910D01*
X140527847Y-91003240D01*
X140574235Y-90736075D01*
X140578500Y-90650400D01*
X140578500Y-90618884D01*
X146441500Y-90618884D01*
X146441665Y-90621152D01*
X146441665Y-90621164D01*
X146449725Y-90732238D01*
X146456125Y-90820451D01*
X146457109Y-90824906D01*
X146457109Y-90824909D01*
X146496482Y-91003240D01*
X146514585Y-91085237D01*
X146610655Y-91338810D01*
X146742324Y-91575859D01*
X146906833Y-91791417D01*
X146910099Y-91794610D01*
X146910101Y-91794612D01*
X146966182Y-91849435D01*
X147100736Y-91980970D01*
X147104428Y-91983657D01*
X147104430Y-91983659D01*
X147181405Y-92039687D01*
X147319972Y-92140547D01*
X147559947Y-92266804D01*
X147564248Y-92268323D01*
X147564253Y-92268325D01*
X147697087Y-92315233D01*
X147815634Y-92357096D01*
X147913653Y-92376415D01*
X148077206Y-92408652D01*
X148077212Y-92408653D01*
X148081678Y-92409533D01*
X148086232Y-92409760D01*
X148086234Y-92409760D01*
X148347936Y-92422789D01*
X148347942Y-92422789D01*
X148352505Y-92423016D01*
X148622441Y-92397262D01*
X148626870Y-92396178D01*
X148626877Y-92396177D01*
X148786584Y-92357096D01*
X148885832Y-92332810D01*
X148895239Y-92329000D01*
X149132931Y-92232725D01*
X149132932Y-92232725D01*
X149137160Y-92231012D01*
X149371161Y-92093999D01*
X149582932Y-91924641D01*
X149704399Y-91794612D01*
X149764921Y-91729824D01*
X149764923Y-91729821D01*
X149768037Y-91726488D01*
X149922598Y-91503688D01*
X149942427Y-91463830D01*
X150041346Y-91264997D01*
X150041347Y-91264994D01*
X150043379Y-91260910D01*
X150127847Y-91003240D01*
X150174235Y-90736075D01*
X150178500Y-90650400D01*
X150178500Y-89961116D01*
X150178313Y-89958526D01*
X150164205Y-89764100D01*
X150163875Y-89759549D01*
X150142034Y-89660622D01*
X150106400Y-89499223D01*
X150106399Y-89499219D01*
X150105415Y-89494763D01*
X150009345Y-89241190D01*
X149877676Y-89004141D01*
X149743386Y-88828179D01*
X149715939Y-88792215D01*
X149715938Y-88792214D01*
X149713167Y-88788583D01*
X149667987Y-88744416D01*
X149522531Y-88602224D01*
X149519264Y-88599030D01*
X149378164Y-88496326D01*
X149303721Y-88442141D01*
X149300028Y-88439453D01*
X149060053Y-88313196D01*
X149055752Y-88311677D01*
X149055747Y-88311675D01*
X148888175Y-88252500D01*
X148804366Y-88222904D01*
X148683711Y-88199123D01*
X148542794Y-88171348D01*
X148542788Y-88171347D01*
X148538322Y-88170467D01*
X148533768Y-88170240D01*
X148533766Y-88170240D01*
X148272064Y-88157211D01*
X148272058Y-88157211D01*
X148267495Y-88156984D01*
X147997559Y-88182738D01*
X147993130Y-88183822D01*
X147993123Y-88183823D01*
X147910861Y-88203953D01*
X147734168Y-88247190D01*
X147729933Y-88248905D01*
X147729931Y-88248906D01*
X147487069Y-88347275D01*
X147482840Y-88348988D01*
X147248839Y-88486001D01*
X147037068Y-88655359D01*
X147033947Y-88658700D01*
X146901637Y-88800337D01*
X146851963Y-88853512D01*
X146697402Y-89076312D01*
X146695374Y-89080388D01*
X146695373Y-89080390D01*
X146613252Y-89245460D01*
X146576621Y-89319090D01*
X146492153Y-89576760D01*
X146491373Y-89581251D01*
X146491373Y-89581252D01*
X146450936Y-89814146D01*
X146445765Y-89843925D01*
X146445574Y-89847762D01*
X146442847Y-89902550D01*
X146441500Y-89929600D01*
X146441500Y-90618884D01*
X140578500Y-90618884D01*
X140578500Y-89961116D01*
X140578313Y-89958526D01*
X140564205Y-89764100D01*
X140563875Y-89759549D01*
X140542034Y-89660622D01*
X140506400Y-89499223D01*
X140506399Y-89499219D01*
X140505415Y-89494763D01*
X140409345Y-89241190D01*
X140277676Y-89004141D01*
X140143386Y-88828179D01*
X140115939Y-88792215D01*
X140115938Y-88792214D01*
X140113167Y-88788583D01*
X140067987Y-88744416D01*
X139922531Y-88602224D01*
X139919264Y-88599030D01*
X139778164Y-88496326D01*
X139703721Y-88442141D01*
X139700028Y-88439453D01*
X139460053Y-88313196D01*
X139455752Y-88311677D01*
X139455747Y-88311675D01*
X139288175Y-88252500D01*
X139204366Y-88222904D01*
X139083711Y-88199123D01*
X138942794Y-88171348D01*
X138942788Y-88171347D01*
X138938322Y-88170467D01*
X138933768Y-88170240D01*
X138933766Y-88170240D01*
X138672064Y-88157211D01*
X138672058Y-88157211D01*
X138667495Y-88156984D01*
X138397559Y-88182738D01*
X138393130Y-88183822D01*
X138393123Y-88183823D01*
X138310861Y-88203953D01*
X138134168Y-88247190D01*
X138129933Y-88248905D01*
X138129931Y-88248906D01*
X137887069Y-88347275D01*
X137882840Y-88348988D01*
X137648839Y-88486001D01*
X137437068Y-88655359D01*
X137433947Y-88658700D01*
X137301637Y-88800337D01*
X137251963Y-88853512D01*
X137097402Y-89076312D01*
X137095374Y-89080388D01*
X137095373Y-89080390D01*
X137013252Y-89245460D01*
X136976621Y-89319090D01*
X136892153Y-89576760D01*
X136891373Y-89581251D01*
X136891373Y-89581252D01*
X136850936Y-89814146D01*
X136845765Y-89843925D01*
X136845574Y-89847762D01*
X136842847Y-89902550D01*
X136841500Y-89929600D01*
X136841500Y-90618884D01*
X134958086Y-90618884D01*
X141680520Y-83896450D01*
X141686785Y-83890596D01*
X141687238Y-83890201D01*
X141730385Y-83852561D01*
X141767129Y-83800280D01*
X141771061Y-83794986D01*
X141805791Y-83750693D01*
X141810476Y-83744718D01*
X141813599Y-83737802D01*
X141814983Y-83735516D01*
X141823357Y-83720835D01*
X141824622Y-83718475D01*
X141828990Y-83712261D01*
X141852203Y-83652723D01*
X141854759Y-83646642D01*
X141877918Y-83595352D01*
X141881045Y-83588427D01*
X141882430Y-83580954D01*
X141883234Y-83578388D01*
X141887855Y-83562165D01*
X141888520Y-83559573D01*
X141891282Y-83552491D01*
X141899622Y-83489139D01*
X141900654Y-83482623D01*
X141910911Y-83427281D01*
X141912295Y-83419814D01*
X141908709Y-83357620D01*
X141908500Y-83350367D01*
X141908500Y-71954871D01*
X143891956Y-71954871D01*
X143932607Y-72094790D01*
X143938852Y-72109221D01*
X144015411Y-72238678D01*
X144025051Y-72251104D01*
X144131396Y-72357449D01*
X144143822Y-72367089D01*
X144273279Y-72443648D01*
X144287710Y-72449893D01*
X144433565Y-72492269D01*
X144446167Y-72494570D01*
X144474584Y-72496807D01*
X144479514Y-72497000D01*
X144858885Y-72497000D01*
X144874124Y-72492525D01*
X144875329Y-72491135D01*
X144877000Y-72483452D01*
X144877000Y-72478884D01*
X145385000Y-72478884D01*
X145389475Y-72494123D01*
X145390865Y-72495328D01*
X145398548Y-72496999D01*
X145782484Y-72496999D01*
X145787420Y-72496805D01*
X145815836Y-72494570D01*
X145828431Y-72492270D01*
X145974290Y-72449893D01*
X145988721Y-72443648D01*
X146118178Y-72367089D01*
X146130604Y-72357449D01*
X146236949Y-72251104D01*
X146246589Y-72238678D01*
X146323148Y-72109221D01*
X146329393Y-72094790D01*
X146368439Y-71960395D01*
X146368406Y-71948595D01*
X147865001Y-71948595D01*
X147865338Y-71955114D01*
X147875257Y-72050706D01*
X147878149Y-72064100D01*
X147929588Y-72218284D01*
X147935761Y-72231462D01*
X148021063Y-72369307D01*
X148030099Y-72380708D01*
X148144829Y-72495239D01*
X148156240Y-72504251D01*
X148294243Y-72589316D01*
X148307424Y-72595463D01*
X148461710Y-72646638D01*
X148475086Y-72649505D01*
X148569438Y-72659172D01*
X148575854Y-72659500D01*
X148825885Y-72659500D01*
X148841124Y-72655025D01*
X148842329Y-72653635D01*
X148844000Y-72645952D01*
X148844000Y-72641384D01*
X149352000Y-72641384D01*
X149356475Y-72656623D01*
X149357865Y-72657828D01*
X149365548Y-72659499D01*
X149620095Y-72659499D01*
X149626614Y-72659162D01*
X149722206Y-72649243D01*
X149735600Y-72646351D01*
X149889784Y-72594912D01*
X149902962Y-72588739D01*
X150040807Y-72503437D01*
X150052208Y-72494401D01*
X150166739Y-72379671D01*
X150175751Y-72368260D01*
X150260816Y-72230257D01*
X150266963Y-72217076D01*
X150318138Y-72062790D01*
X150321005Y-72049414D01*
X150330672Y-71955062D01*
X150331000Y-71948646D01*
X150331000Y-71923615D01*
X150326525Y-71908376D01*
X150325135Y-71907171D01*
X150317452Y-71905500D01*
X149370115Y-71905500D01*
X149354876Y-71909975D01*
X149353671Y-71911365D01*
X149352000Y-71919048D01*
X149352000Y-72641384D01*
X148844000Y-72641384D01*
X148844000Y-71923615D01*
X148839525Y-71908376D01*
X148838135Y-71907171D01*
X148830452Y-71905500D01*
X147883116Y-71905500D01*
X147867877Y-71909975D01*
X147866672Y-71911365D01*
X147865001Y-71919048D01*
X147865001Y-71948595D01*
X146368406Y-71948595D01*
X146368399Y-71946294D01*
X146361130Y-71943000D01*
X145403115Y-71943000D01*
X145387876Y-71947475D01*
X145386671Y-71948865D01*
X145385000Y-71956548D01*
X145385000Y-72478884D01*
X144877000Y-72478884D01*
X144877000Y-71961115D01*
X144872525Y-71945876D01*
X144871135Y-71944671D01*
X144863452Y-71943000D01*
X143906622Y-71943000D01*
X143893091Y-71946973D01*
X143891956Y-71954871D01*
X141908500Y-71954871D01*
X141908500Y-71358096D01*
X141928502Y-71289975D01*
X141982158Y-71243482D01*
X142052432Y-71233378D01*
X142117012Y-71262872D01*
X142134195Y-71283462D01*
X142135153Y-71282719D01*
X142140009Y-71288980D01*
X142144047Y-71295807D01*
X142261693Y-71413453D01*
X142268517Y-71417489D01*
X142268520Y-71417491D01*
X142365107Y-71474612D01*
X142404899Y-71498145D01*
X142412510Y-71500356D01*
X142412512Y-71500357D01*
X142464731Y-71515528D01*
X142564669Y-71544562D01*
X142571074Y-71545066D01*
X142571079Y-71545067D01*
X142599542Y-71547307D01*
X142599550Y-71547307D01*
X142601998Y-71547500D01*
X143910002Y-71547500D01*
X143912450Y-71547307D01*
X143912458Y-71547307D01*
X143940921Y-71545067D01*
X143940926Y-71545066D01*
X143947331Y-71544562D01*
X144047269Y-71515528D01*
X144099488Y-71500357D01*
X144099490Y-71500356D01*
X144107101Y-71498145D01*
X144184203Y-71452547D01*
X144248342Y-71435000D01*
X144858885Y-71435000D01*
X144874124Y-71430525D01*
X144875329Y-71429135D01*
X144877000Y-71421452D01*
X144877000Y-71416885D01*
X145385000Y-71416885D01*
X145389475Y-71432124D01*
X145390865Y-71433329D01*
X145398548Y-71435000D01*
X146355378Y-71435000D01*
X146368909Y-71431027D01*
X146370044Y-71423129D01*
X146329393Y-71283210D01*
X146323148Y-71268779D01*
X146246589Y-71139322D01*
X146236949Y-71126896D01*
X146130604Y-71020551D01*
X146118178Y-71010911D01*
X145988721Y-70934352D01*
X145974290Y-70928107D01*
X145828435Y-70885731D01*
X145815833Y-70883430D01*
X145787416Y-70881193D01*
X145782486Y-70881000D01*
X145403115Y-70881000D01*
X145387876Y-70885475D01*
X145386671Y-70886865D01*
X145385000Y-70894548D01*
X145385000Y-71416885D01*
X144877000Y-71416885D01*
X144877000Y-70899116D01*
X144872525Y-70883877D01*
X144871135Y-70882672D01*
X144863452Y-70881001D01*
X144628000Y-70881001D01*
X144559879Y-70860999D01*
X144513386Y-70807343D01*
X144502000Y-70755001D01*
X144502000Y-70723500D01*
X144522002Y-70655379D01*
X144575658Y-70608886D01*
X144628000Y-70597500D01*
X145785002Y-70597500D01*
X145787450Y-70597307D01*
X145787458Y-70597307D01*
X145815921Y-70595067D01*
X145815926Y-70595066D01*
X145822331Y-70594562D01*
X145892934Y-70574050D01*
X145963931Y-70574253D01*
X146009750Y-70599094D01*
X146035650Y-70621136D01*
X146208294Y-70717624D01*
X146396392Y-70778740D01*
X146592777Y-70802158D01*
X146598912Y-70801686D01*
X146598914Y-70801686D01*
X146783830Y-70787457D01*
X146783834Y-70787456D01*
X146789972Y-70786984D01*
X146980463Y-70733798D01*
X146985967Y-70731018D01*
X146985969Y-70731017D01*
X147151495Y-70647404D01*
X147151497Y-70647403D01*
X147156996Y-70644625D01*
X147311119Y-70524211D01*
X147377113Y-70498033D01*
X147388692Y-70497500D01*
X147994085Y-70497500D01*
X148062206Y-70517502D01*
X148083103Y-70534327D01*
X148149697Y-70600805D01*
X148154235Y-70603602D01*
X148194824Y-70660853D01*
X148198054Y-70731776D01*
X148162428Y-70793187D01*
X148153932Y-70800562D01*
X148143793Y-70808598D01*
X148029261Y-70923329D01*
X148020249Y-70934740D01*
X147935184Y-71072743D01*
X147929037Y-71085924D01*
X147877862Y-71240210D01*
X147874995Y-71253586D01*
X147865328Y-71347938D01*
X147865000Y-71354355D01*
X147865000Y-71379385D01*
X147869475Y-71394624D01*
X147870865Y-71395829D01*
X147878548Y-71397500D01*
X150312884Y-71397500D01*
X150328123Y-71393025D01*
X150329328Y-71391635D01*
X150330999Y-71383952D01*
X150330999Y-71354405D01*
X150330662Y-71347886D01*
X150320743Y-71252294D01*
X150317851Y-71238900D01*
X150266412Y-71084716D01*
X150260239Y-71071538D01*
X150174937Y-70933693D01*
X150165901Y-70922292D01*
X150051172Y-70807762D01*
X150042238Y-70800706D01*
X150001177Y-70742788D01*
X149997947Y-70671865D01*
X150033574Y-70610454D01*
X150041407Y-70603654D01*
X150047348Y-70599978D01*
X150172305Y-70474803D01*
X150210871Y-70412238D01*
X150261275Y-70330468D01*
X150261276Y-70330466D01*
X150265115Y-70324238D01*
X150312229Y-70182193D01*
X150318632Y-70162889D01*
X150318632Y-70162887D01*
X150320797Y-70156361D01*
X150331500Y-70051900D01*
X150331500Y-69451100D01*
X150330774Y-69444100D01*
X150321238Y-69352192D01*
X150321237Y-69352188D01*
X150320526Y-69345334D01*
X150264550Y-69177554D01*
X150171478Y-69027152D01*
X150046303Y-68902195D01*
X149965302Y-68852265D01*
X149901968Y-68813225D01*
X149901966Y-68813224D01*
X149895738Y-68809385D01*
X149888791Y-68807081D01*
X149882156Y-68803987D01*
X149883199Y-68801751D01*
X149834462Y-68767977D01*
X149807234Y-68702409D01*
X149806500Y-68688828D01*
X149806500Y-67658887D01*
X149826502Y-67590766D01*
X149872730Y-67550316D01*
X149871946Y-67549050D01*
X150016120Y-67459832D01*
X150022348Y-67455978D01*
X150147305Y-67330803D01*
X150240115Y-67180238D01*
X150290393Y-67028653D01*
X150293632Y-67018889D01*
X150293632Y-67018887D01*
X150295797Y-67012361D01*
X150298662Y-66984404D01*
X150306172Y-66911098D01*
X150306500Y-66907900D01*
X150306500Y-66282100D01*
X150295526Y-66176334D01*
X150239550Y-66008554D01*
X150146478Y-65858152D01*
X150059891Y-65771716D01*
X150025812Y-65709434D01*
X150030815Y-65638614D01*
X150059736Y-65593525D01*
X150142134Y-65510983D01*
X150147305Y-65505803D01*
X150151146Y-65499572D01*
X150236275Y-65361468D01*
X150236276Y-65361466D01*
X150240115Y-65355238D01*
X150295797Y-65187361D01*
X150306500Y-65082900D01*
X150306500Y-64615660D01*
X150326502Y-64547539D01*
X150343405Y-64526565D01*
X151676905Y-63193066D01*
X151739217Y-63159040D01*
X151810033Y-63164105D01*
X151866868Y-63206652D01*
X151891679Y-63273172D01*
X151892000Y-63282161D01*
X151892000Y-134570672D01*
X151890500Y-134590056D01*
X151886814Y-134613730D01*
X151888941Y-134629999D01*
X151889734Y-134654567D01*
X151875156Y-134876985D01*
X151873005Y-134893326D01*
X151824371Y-135137824D01*
X151820105Y-135153743D01*
X151739978Y-135389790D01*
X151733671Y-135405017D01*
X151623416Y-135628592D01*
X151615175Y-135642865D01*
X151476684Y-135850133D01*
X151466654Y-135863206D01*
X151424384Y-135911406D01*
X151302286Y-136050632D01*
X151290632Y-136062286D01*
X151178397Y-136160714D01*
X151103210Y-136226651D01*
X151090133Y-136236684D01*
X150882865Y-136375175D01*
X150868592Y-136383416D01*
X150645017Y-136493671D01*
X150629790Y-136499978D01*
X150393743Y-136580105D01*
X150377824Y-136584371D01*
X150133327Y-136633005D01*
X150116986Y-136635156D01*
X149901732Y-136649264D01*
X149878696Y-136648239D01*
X149875146Y-136648196D01*
X149866270Y-136646814D01*
X149837762Y-136650542D01*
X149834749Y-136650936D01*
X149818411Y-136652000D01*
X116889328Y-136652000D01*
X116869943Y-136650500D01*
X116855142Y-136648195D01*
X116855139Y-136648195D01*
X116846270Y-136646814D01*
X116830001Y-136648941D01*
X116805433Y-136649734D01*
X116583015Y-136635156D01*
X116566674Y-136633005D01*
X116322176Y-136584371D01*
X116306257Y-136580105D01*
X116070210Y-136499978D01*
X116054983Y-136493671D01*
X115831408Y-136383416D01*
X115817135Y-136375175D01*
X115609867Y-136236684D01*
X115596790Y-136226651D01*
X115521604Y-136160714D01*
X115409368Y-136062286D01*
X115397714Y-136050632D01*
X115275616Y-135911406D01*
X132553423Y-135911406D01*
X132558704Y-135918461D01*
X132735080Y-136021527D01*
X132744363Y-136025974D01*
X132951003Y-136104883D01*
X132960901Y-136107759D01*
X133177653Y-136151857D01*
X133187883Y-136153076D01*
X133408914Y-136161182D01*
X133419223Y-136160714D01*
X133638623Y-136132608D01*
X133648688Y-136130468D01*
X133860557Y-136066905D01*
X133870152Y-136063144D01*
X134068778Y-135965838D01*
X134077636Y-135960559D01*
X134135097Y-135919572D01*
X134141509Y-135911406D01*
X143983423Y-135911406D01*
X143988704Y-135918461D01*
X144165080Y-136021527D01*
X144174363Y-136025974D01*
X144381003Y-136104883D01*
X144390901Y-136107759D01*
X144607653Y-136151857D01*
X144617883Y-136153076D01*
X144838914Y-136161182D01*
X144849223Y-136160714D01*
X145068623Y-136132608D01*
X145078688Y-136130468D01*
X145290557Y-136066905D01*
X145300152Y-136063144D01*
X145498778Y-135965838D01*
X145507636Y-135960559D01*
X145565097Y-135919572D01*
X145573497Y-135908874D01*
X145566510Y-135895721D01*
X144792811Y-135122021D01*
X144778868Y-135114408D01*
X144777034Y-135114539D01*
X144770420Y-135118790D01*
X143990180Y-135899031D01*
X143983423Y-135911406D01*
X134141509Y-135911406D01*
X134143497Y-135908874D01*
X134136510Y-135895721D01*
X133362811Y-135122021D01*
X133348868Y-135114408D01*
X133347034Y-135114539D01*
X133340420Y-135118790D01*
X132560180Y-135899031D01*
X132553423Y-135911406D01*
X115275616Y-135911406D01*
X115233346Y-135863206D01*
X115223316Y-135850133D01*
X115084825Y-135642865D01*
X115076584Y-135628592D01*
X114966329Y-135405017D01*
X114960022Y-135389790D01*
X114879895Y-135153743D01*
X114875629Y-135137824D01*
X114826995Y-134893327D01*
X114824844Y-134876986D01*
X114814597Y-134720638D01*
X131937893Y-134720638D01*
X131950627Y-134941468D01*
X131952061Y-134951670D01*
X132000685Y-135167439D01*
X132003773Y-135177292D01*
X132086986Y-135382220D01*
X132091634Y-135391421D01*
X132180097Y-135535781D01*
X132190553Y-135545242D01*
X132199331Y-135541458D01*
X132977979Y-134762811D01*
X132984356Y-134751132D01*
X133714408Y-134751132D01*
X133714539Y-134752966D01*
X133718790Y-134759580D01*
X134496307Y-135537096D01*
X134508313Y-135543652D01*
X134520052Y-135534684D01*
X134558010Y-135481859D01*
X134563321Y-135473020D01*
X134661318Y-135274737D01*
X134665117Y-135265142D01*
X134729415Y-135053517D01*
X134731594Y-135043436D01*
X134760702Y-134822338D01*
X134761221Y-134815663D01*
X134762744Y-134753364D01*
X134762550Y-134746646D01*
X134760412Y-134720638D01*
X143367893Y-134720638D01*
X143380627Y-134941468D01*
X143382061Y-134951670D01*
X143430685Y-135167439D01*
X143433773Y-135177292D01*
X143516986Y-135382220D01*
X143521634Y-135391421D01*
X143610097Y-135535781D01*
X143620553Y-135545242D01*
X143629331Y-135541458D01*
X144407979Y-134762811D01*
X144414356Y-134751132D01*
X145144408Y-134751132D01*
X145144539Y-134752966D01*
X145148790Y-134759580D01*
X145926307Y-135537096D01*
X145938313Y-135543652D01*
X145950052Y-135534684D01*
X145988010Y-135481859D01*
X145993321Y-135473020D01*
X146091318Y-135274737D01*
X146095117Y-135265142D01*
X146159415Y-135053517D01*
X146161594Y-135043436D01*
X146190702Y-134822338D01*
X146191221Y-134815663D01*
X146192744Y-134753364D01*
X146192550Y-134746646D01*
X146174279Y-134524400D01*
X146172596Y-134514238D01*
X146118710Y-134299708D01*
X146115389Y-134289953D01*
X146027193Y-134087118D01*
X146022315Y-134078020D01*
X145949224Y-133965038D01*
X145938538Y-133955835D01*
X145928973Y-133960238D01*
X145152021Y-134737189D01*
X145144408Y-134751132D01*
X144414356Y-134751132D01*
X144415592Y-134748868D01*
X144415461Y-134747034D01*
X144411210Y-134740420D01*
X143633862Y-133963073D01*
X143622330Y-133956776D01*
X143610048Y-133966399D01*
X143554467Y-134047877D01*
X143549379Y-134056833D01*
X143456252Y-134257459D01*
X143452689Y-134267146D01*
X143393581Y-134480280D01*
X143391650Y-134490400D01*
X143368145Y-134710349D01*
X143367893Y-134720638D01*
X134760412Y-134720638D01*
X134744279Y-134524400D01*
X134742596Y-134514238D01*
X134688710Y-134299708D01*
X134685389Y-134289953D01*
X134597193Y-134087118D01*
X134592315Y-134078020D01*
X134519224Y-133965038D01*
X134508538Y-133955835D01*
X134498973Y-133960238D01*
X133722021Y-134737189D01*
X133714408Y-134751132D01*
X132984356Y-134751132D01*
X132985592Y-134748868D01*
X132985461Y-134747034D01*
X132981210Y-134740420D01*
X132203862Y-133963073D01*
X132192330Y-133956776D01*
X132180048Y-133966399D01*
X132124467Y-134047877D01*
X132119379Y-134056833D01*
X132026252Y-134257459D01*
X132022689Y-134267146D01*
X131963581Y-134480280D01*
X131961650Y-134490400D01*
X131938145Y-134710349D01*
X131937893Y-134720638D01*
X114814597Y-134720638D01*
X114810736Y-134661732D01*
X114811761Y-134638696D01*
X114811804Y-134635146D01*
X114813186Y-134626270D01*
X114809064Y-134594748D01*
X114808000Y-134578411D01*
X114808000Y-133590711D01*
X132555508Y-133590711D01*
X132562251Y-133603040D01*
X133337189Y-134377979D01*
X133351132Y-134385592D01*
X133352966Y-134385461D01*
X133359580Y-134381210D01*
X134138994Y-133601795D01*
X134145046Y-133590711D01*
X143985508Y-133590711D01*
X143992251Y-133603040D01*
X144767189Y-134377979D01*
X144781132Y-134385592D01*
X144782966Y-134385461D01*
X144789580Y-134381210D01*
X145568994Y-133601795D01*
X145576011Y-133588944D01*
X145568237Y-133578274D01*
X145565902Y-133576430D01*
X145557320Y-133570729D01*
X145363678Y-133463833D01*
X145354272Y-133459606D01*
X145145772Y-133385772D01*
X145135809Y-133383140D01*
X144918047Y-133344350D01*
X144907796Y-133343381D01*
X144686616Y-133340679D01*
X144676332Y-133341399D01*
X144457693Y-133374855D01*
X144447666Y-133377244D01*
X144237426Y-133445961D01*
X144227916Y-133449958D01*
X144031725Y-133552089D01*
X144023007Y-133557578D01*
X143993961Y-133579386D01*
X143985508Y-133590711D01*
X134145046Y-133590711D01*
X134146011Y-133588944D01*
X134138237Y-133578274D01*
X134135902Y-133576430D01*
X134127320Y-133570729D01*
X133933678Y-133463833D01*
X133924272Y-133459606D01*
X133715772Y-133385772D01*
X133705809Y-133383140D01*
X133488047Y-133344350D01*
X133477796Y-133343381D01*
X133256616Y-133340679D01*
X133246332Y-133341399D01*
X133027693Y-133374855D01*
X133017666Y-133377244D01*
X132807426Y-133445961D01*
X132797916Y-133449958D01*
X132601725Y-133552089D01*
X132593007Y-133557578D01*
X132563961Y-133579386D01*
X132555508Y-133590711D01*
X114808000Y-133590711D01*
X114808000Y-131615469D01*
X131937095Y-131615469D01*
X131937392Y-131620622D01*
X131937392Y-131620625D01*
X131943067Y-131719041D01*
X131950427Y-131846697D01*
X131951564Y-131851743D01*
X131951565Y-131851749D01*
X131983741Y-131994523D01*
X132001346Y-132072642D01*
X132003288Y-132077424D01*
X132003289Y-132077428D01*
X132086540Y-132282450D01*
X132088484Y-132287237D01*
X132209501Y-132484719D01*
X132361147Y-132659784D01*
X132539349Y-132807730D01*
X132739322Y-132924584D01*
X132955694Y-133007209D01*
X132960760Y-133008240D01*
X132960761Y-133008240D01*
X133013846Y-133019040D01*
X133182656Y-133053385D01*
X133313324Y-133058176D01*
X133408949Y-133061683D01*
X133408953Y-133061683D01*
X133414113Y-133061872D01*
X133419233Y-133061216D01*
X133419235Y-133061216D01*
X133492270Y-133051860D01*
X133643847Y-133032442D01*
X133648795Y-133030957D01*
X133648802Y-133030956D01*
X133860747Y-132967369D01*
X133865690Y-132965886D01*
X133946236Y-132926427D01*
X134069049Y-132866262D01*
X134069052Y-132866260D01*
X134073684Y-132863991D01*
X134262243Y-132729494D01*
X134426303Y-132566005D01*
X134561458Y-132377917D01*
X134608641Y-132282450D01*
X134661784Y-132174922D01*
X134661785Y-132174920D01*
X134664078Y-132170280D01*
X134731408Y-131948671D01*
X134761640Y-131719041D01*
X134763327Y-131650000D01*
X134760488Y-131615469D01*
X143367095Y-131615469D01*
X143367392Y-131620622D01*
X143367392Y-131620625D01*
X143373067Y-131719041D01*
X143380427Y-131846697D01*
X143381564Y-131851743D01*
X143381565Y-131851749D01*
X143413741Y-131994523D01*
X143431346Y-132072642D01*
X143433288Y-132077424D01*
X143433289Y-132077428D01*
X143516540Y-132282450D01*
X143518484Y-132287237D01*
X143639501Y-132484719D01*
X143791147Y-132659784D01*
X143969349Y-132807730D01*
X144169322Y-132924584D01*
X144385694Y-133007209D01*
X144390760Y-133008240D01*
X144390761Y-133008240D01*
X144443846Y-133019040D01*
X144612656Y-133053385D01*
X144743324Y-133058176D01*
X144838949Y-133061683D01*
X144838953Y-133061683D01*
X144844113Y-133061872D01*
X144849233Y-133061216D01*
X144849235Y-133061216D01*
X144922270Y-133051860D01*
X145073847Y-133032442D01*
X145078795Y-133030957D01*
X145078802Y-133030956D01*
X145290747Y-132967369D01*
X145295690Y-132965886D01*
X145376236Y-132926427D01*
X145499049Y-132866262D01*
X145499052Y-132866260D01*
X145503684Y-132863991D01*
X145692243Y-132729494D01*
X145856303Y-132566005D01*
X145991458Y-132377917D01*
X146038641Y-132282450D01*
X146091784Y-132174922D01*
X146091785Y-132174920D01*
X146094078Y-132170280D01*
X146161408Y-131948671D01*
X146191640Y-131719041D01*
X146193327Y-131650000D01*
X146187032Y-131573434D01*
X146174773Y-131424318D01*
X146174772Y-131424312D01*
X146174349Y-131419167D01*
X146117925Y-131194533D01*
X146115866Y-131189797D01*
X146027630Y-130986868D01*
X146027628Y-130986865D01*
X146025570Y-130982131D01*
X145899764Y-130787665D01*
X145743887Y-130616358D01*
X145739836Y-130613159D01*
X145739832Y-130613155D01*
X145566177Y-130476011D01*
X145566172Y-130476008D01*
X145562123Y-130472810D01*
X145557607Y-130470317D01*
X145557604Y-130470315D01*
X145363879Y-130363373D01*
X145363875Y-130363371D01*
X145359355Y-130360876D01*
X145354486Y-130359152D01*
X145354482Y-130359150D01*
X145145903Y-130285288D01*
X145145899Y-130285287D01*
X145141028Y-130283562D01*
X145135935Y-130282655D01*
X145135932Y-130282654D01*
X144918095Y-130243851D01*
X144918089Y-130243850D01*
X144913006Y-130242945D01*
X144840096Y-130242054D01*
X144686581Y-130240179D01*
X144686579Y-130240179D01*
X144681411Y-130240116D01*
X144452464Y-130275150D01*
X144232314Y-130347106D01*
X144227726Y-130349494D01*
X144227722Y-130349496D01*
X144201065Y-130363373D01*
X144026872Y-130454052D01*
X144022739Y-130457155D01*
X144022736Y-130457157D01*
X143997625Y-130476011D01*
X143841655Y-130593117D01*
X143681639Y-130760564D01*
X143678725Y-130764836D01*
X143678724Y-130764837D01*
X143663152Y-130787665D01*
X143551119Y-130951899D01*
X143453602Y-131161981D01*
X143391707Y-131385169D01*
X143367095Y-131615469D01*
X134760488Y-131615469D01*
X134757032Y-131573434D01*
X134744773Y-131424318D01*
X134744772Y-131424312D01*
X134744349Y-131419167D01*
X134687925Y-131194533D01*
X134685866Y-131189797D01*
X134597630Y-130986868D01*
X134597628Y-130986865D01*
X134595570Y-130982131D01*
X134469764Y-130787665D01*
X134313887Y-130616358D01*
X134309836Y-130613159D01*
X134309832Y-130613155D01*
X134136177Y-130476011D01*
X134136172Y-130476008D01*
X134132123Y-130472810D01*
X134127607Y-130470317D01*
X134127604Y-130470315D01*
X133933879Y-130363373D01*
X133933875Y-130363371D01*
X133929355Y-130360876D01*
X133924486Y-130359152D01*
X133924482Y-130359150D01*
X133715903Y-130285288D01*
X133715899Y-130285287D01*
X133711028Y-130283562D01*
X133705935Y-130282655D01*
X133705932Y-130282654D01*
X133488095Y-130243851D01*
X133488089Y-130243850D01*
X133483006Y-130242945D01*
X133410096Y-130242054D01*
X133256581Y-130240179D01*
X133256579Y-130240179D01*
X133251411Y-130240116D01*
X133022464Y-130275150D01*
X132802314Y-130347106D01*
X132797726Y-130349494D01*
X132797722Y-130349496D01*
X132771065Y-130363373D01*
X132596872Y-130454052D01*
X132592739Y-130457155D01*
X132592736Y-130457157D01*
X132567625Y-130476011D01*
X132411655Y-130593117D01*
X132251639Y-130760564D01*
X132248725Y-130764836D01*
X132248724Y-130764837D01*
X132233152Y-130787665D01*
X132121119Y-130951899D01*
X132023602Y-131161981D01*
X131961707Y-131385169D01*
X131937095Y-131615469D01*
X114808000Y-131615469D01*
X114808000Y-118131406D01*
X121123423Y-118131406D01*
X121128704Y-118138461D01*
X121305080Y-118241527D01*
X121314363Y-118245974D01*
X121521003Y-118324883D01*
X121530901Y-118327759D01*
X121747653Y-118371857D01*
X121757883Y-118373076D01*
X121978914Y-118381182D01*
X121989223Y-118380714D01*
X122208623Y-118352608D01*
X122218688Y-118350468D01*
X122430557Y-118286905D01*
X122440152Y-118283144D01*
X122638778Y-118185838D01*
X122647636Y-118180559D01*
X122705097Y-118139572D01*
X122713497Y-118128874D01*
X122706510Y-118115721D01*
X121932811Y-117342021D01*
X121918868Y-117334408D01*
X121917034Y-117334539D01*
X121910420Y-117338790D01*
X121130180Y-118119031D01*
X121123423Y-118131406D01*
X114808000Y-118131406D01*
X114808000Y-116940638D01*
X120507893Y-116940638D01*
X120520627Y-117161468D01*
X120522061Y-117171670D01*
X120570685Y-117387439D01*
X120573773Y-117397292D01*
X120656986Y-117602220D01*
X120661634Y-117611421D01*
X120750097Y-117755781D01*
X120760553Y-117765242D01*
X120769331Y-117761458D01*
X121547979Y-116982811D01*
X121554356Y-116971132D01*
X122284408Y-116971132D01*
X122284539Y-116972966D01*
X122288790Y-116979580D01*
X123066307Y-117757096D01*
X123078313Y-117763652D01*
X123090052Y-117754684D01*
X123128010Y-117701859D01*
X123133321Y-117693020D01*
X123231318Y-117494737D01*
X123235117Y-117485142D01*
X123299415Y-117273517D01*
X123301594Y-117263436D01*
X123330702Y-117042338D01*
X123331221Y-117035663D01*
X123332744Y-116973364D01*
X123332550Y-116966646D01*
X123314279Y-116744400D01*
X123312596Y-116734238D01*
X123258710Y-116519708D01*
X123255389Y-116509953D01*
X123167193Y-116307118D01*
X123162315Y-116298020D01*
X123089224Y-116185038D01*
X123078538Y-116175835D01*
X123068973Y-116180238D01*
X122292021Y-116957189D01*
X122284408Y-116971132D01*
X121554356Y-116971132D01*
X121555592Y-116968868D01*
X121555461Y-116967034D01*
X121551210Y-116960420D01*
X120773862Y-116183073D01*
X120762330Y-116176776D01*
X120750048Y-116186399D01*
X120694467Y-116267877D01*
X120689379Y-116276833D01*
X120596252Y-116477459D01*
X120592689Y-116487146D01*
X120533581Y-116700280D01*
X120531650Y-116710400D01*
X120508145Y-116930349D01*
X120507893Y-116940638D01*
X114808000Y-116940638D01*
X114808000Y-115810711D01*
X121125508Y-115810711D01*
X121132251Y-115823040D01*
X121907189Y-116597979D01*
X121921132Y-116605592D01*
X121922966Y-116605461D01*
X121929580Y-116601210D01*
X122708994Y-115821795D01*
X122716011Y-115808944D01*
X122708237Y-115798274D01*
X122705902Y-115796430D01*
X122697320Y-115790729D01*
X122503678Y-115683833D01*
X122494272Y-115679606D01*
X122285772Y-115605772D01*
X122275809Y-115603140D01*
X122058047Y-115564350D01*
X122047796Y-115563381D01*
X121826616Y-115560679D01*
X121816332Y-115561399D01*
X121597693Y-115594855D01*
X121587666Y-115597244D01*
X121377426Y-115665961D01*
X121367916Y-115669958D01*
X121171725Y-115772089D01*
X121163007Y-115777578D01*
X121133961Y-115799386D01*
X121125508Y-115810711D01*
X114808000Y-115810711D01*
X114808000Y-115031406D01*
X121123423Y-115031406D01*
X121128704Y-115038461D01*
X121305080Y-115141527D01*
X121314363Y-115145974D01*
X121521003Y-115224883D01*
X121530901Y-115227759D01*
X121747653Y-115271857D01*
X121757883Y-115273076D01*
X121978914Y-115281182D01*
X121989223Y-115280714D01*
X122208623Y-115252608D01*
X122218688Y-115250468D01*
X122430557Y-115186905D01*
X122440152Y-115183144D01*
X122638778Y-115085838D01*
X122647636Y-115080559D01*
X122705097Y-115039572D01*
X122713497Y-115028874D01*
X122706510Y-115015721D01*
X121932811Y-114242021D01*
X121918868Y-114234408D01*
X121917034Y-114234539D01*
X121910420Y-114238790D01*
X121130180Y-115019031D01*
X121123423Y-115031406D01*
X114808000Y-115031406D01*
X114808000Y-113840638D01*
X120507893Y-113840638D01*
X120520627Y-114061468D01*
X120522061Y-114071670D01*
X120570685Y-114287439D01*
X120573773Y-114297292D01*
X120656986Y-114502220D01*
X120661634Y-114511421D01*
X120750097Y-114655781D01*
X120760553Y-114665242D01*
X120769331Y-114661458D01*
X121547979Y-113882811D01*
X121554356Y-113871132D01*
X122284408Y-113871132D01*
X122284539Y-113872966D01*
X122288790Y-113879580D01*
X123066307Y-114657096D01*
X123078313Y-114663652D01*
X123090052Y-114654684D01*
X123128010Y-114601859D01*
X123133321Y-114593020D01*
X123231318Y-114394737D01*
X123235117Y-114385142D01*
X123299415Y-114173517D01*
X123301594Y-114163436D01*
X123330702Y-113942338D01*
X123331221Y-113935663D01*
X123332744Y-113873364D01*
X123332550Y-113866646D01*
X123314279Y-113644400D01*
X123312596Y-113634238D01*
X123258710Y-113419708D01*
X123255389Y-113409953D01*
X123167193Y-113207118D01*
X123162315Y-113198020D01*
X123089224Y-113085038D01*
X123078538Y-113075835D01*
X123068973Y-113080238D01*
X122292021Y-113857189D01*
X122284408Y-113871132D01*
X121554356Y-113871132D01*
X121555592Y-113868868D01*
X121555461Y-113867034D01*
X121551210Y-113860420D01*
X120773862Y-113083073D01*
X120762330Y-113076776D01*
X120750048Y-113086399D01*
X120694467Y-113167877D01*
X120689379Y-113176833D01*
X120596252Y-113377459D01*
X120592689Y-113387146D01*
X120533581Y-113600280D01*
X120531650Y-113610400D01*
X120508145Y-113830349D01*
X120507893Y-113840638D01*
X114808000Y-113840638D01*
X114808000Y-112710711D01*
X121125508Y-112710711D01*
X121132251Y-112723040D01*
X121907189Y-113497979D01*
X121921132Y-113505592D01*
X121922966Y-113505461D01*
X121929580Y-113501210D01*
X122708994Y-112721795D01*
X122716011Y-112708944D01*
X122708237Y-112698274D01*
X122705902Y-112696430D01*
X122697320Y-112690729D01*
X122503678Y-112583833D01*
X122494272Y-112579606D01*
X122285772Y-112505772D01*
X122275809Y-112503140D01*
X122058047Y-112464350D01*
X122047796Y-112463381D01*
X121826616Y-112460679D01*
X121816332Y-112461399D01*
X121597693Y-112494855D01*
X121587666Y-112497244D01*
X121377426Y-112565961D01*
X121367916Y-112569958D01*
X121171725Y-112672089D01*
X121163007Y-112677578D01*
X121133961Y-112699386D01*
X121125508Y-112710711D01*
X114808000Y-112710711D01*
X114808000Y-105535469D01*
X120507095Y-105535469D01*
X120507392Y-105540622D01*
X120507392Y-105540625D01*
X120513067Y-105639041D01*
X120520427Y-105766697D01*
X120521564Y-105771743D01*
X120521565Y-105771749D01*
X120553741Y-105914523D01*
X120571346Y-105992642D01*
X120573288Y-105997424D01*
X120573289Y-105997428D01*
X120632257Y-106142648D01*
X120658484Y-106207237D01*
X120779501Y-106404719D01*
X120931147Y-106579784D01*
X121109349Y-106727730D01*
X121309322Y-106844584D01*
X121525694Y-106927209D01*
X121530760Y-106928240D01*
X121530761Y-106928240D01*
X121583846Y-106939040D01*
X121752656Y-106973385D01*
X121883324Y-106978176D01*
X121978949Y-106981683D01*
X121978953Y-106981683D01*
X121984113Y-106981872D01*
X121989233Y-106981216D01*
X121989235Y-106981216D01*
X122062270Y-106971860D01*
X122213847Y-106952442D01*
X122218795Y-106950957D01*
X122218802Y-106950956D01*
X122430747Y-106887369D01*
X122435690Y-106885886D01*
X122440324Y-106883616D01*
X122639049Y-106786262D01*
X122639052Y-106786260D01*
X122643684Y-106783991D01*
X122832243Y-106649494D01*
X122996303Y-106486005D01*
X123131458Y-106297917D01*
X123155360Y-106249556D01*
X123231784Y-106094922D01*
X123231785Y-106094920D01*
X123234078Y-106090280D01*
X123301408Y-105868671D01*
X123331640Y-105639041D01*
X123333327Y-105570000D01*
X123327032Y-105493434D01*
X123314773Y-105344318D01*
X123314772Y-105344312D01*
X123314349Y-105339167D01*
X123257925Y-105114533D01*
X123255866Y-105109797D01*
X123167630Y-104906868D01*
X123167628Y-104906865D01*
X123165570Y-104902131D01*
X123039764Y-104707665D01*
X122883887Y-104536358D01*
X122879836Y-104533159D01*
X122879832Y-104533155D01*
X122706177Y-104396011D01*
X122706172Y-104396008D01*
X122702123Y-104392810D01*
X122697607Y-104390317D01*
X122697604Y-104390315D01*
X122503879Y-104283373D01*
X122503875Y-104283371D01*
X122499355Y-104280876D01*
X122494486Y-104279152D01*
X122494482Y-104279150D01*
X122285903Y-104205288D01*
X122285899Y-104205287D01*
X122281028Y-104203562D01*
X122275935Y-104202655D01*
X122275932Y-104202654D01*
X122058095Y-104163851D01*
X122058089Y-104163850D01*
X122053006Y-104162945D01*
X121980096Y-104162054D01*
X121826581Y-104160179D01*
X121826579Y-104160179D01*
X121821411Y-104160116D01*
X121592464Y-104195150D01*
X121372314Y-104267106D01*
X121367726Y-104269494D01*
X121367722Y-104269496D01*
X121171461Y-104371663D01*
X121166872Y-104374052D01*
X121162739Y-104377155D01*
X121162736Y-104377157D01*
X121137625Y-104396011D01*
X120981655Y-104513117D01*
X120821639Y-104680564D01*
X120818725Y-104684836D01*
X120818724Y-104684837D01*
X120803152Y-104707665D01*
X120691119Y-104871899D01*
X120593602Y-105081981D01*
X120531707Y-105305169D01*
X120507095Y-105535469D01*
X114808000Y-105535469D01*
X114808000Y-84365352D01*
X118286275Y-84365352D01*
X118287580Y-84372829D01*
X118287580Y-84372830D01*
X118297261Y-84428299D01*
X118298223Y-84434821D01*
X118305898Y-84498242D01*
X118308581Y-84505343D01*
X118309222Y-84507952D01*
X118313685Y-84524262D01*
X118314450Y-84526798D01*
X118315757Y-84534284D01*
X118339741Y-84588919D01*
X118341442Y-84592795D01*
X118343935Y-84598904D01*
X118360332Y-84642297D01*
X118366513Y-84658656D01*
X118370817Y-84664919D01*
X118372054Y-84667285D01*
X118380299Y-84682097D01*
X118381632Y-84684351D01*
X118384685Y-84691305D01*
X118420677Y-84738209D01*
X118423579Y-84741991D01*
X118427459Y-84747332D01*
X118459339Y-84793720D01*
X118459344Y-84793725D01*
X118463643Y-84799981D01*
X118469313Y-84805032D01*
X118469314Y-84805034D01*
X118510170Y-84841435D01*
X118515446Y-84846416D01*
X119493550Y-85824520D01*
X119499404Y-85830785D01*
X119537439Y-85874385D01*
X119543653Y-85878752D01*
X119589719Y-85911128D01*
X119595014Y-85915061D01*
X119645282Y-85954476D01*
X119652198Y-85957599D01*
X119654484Y-85958983D01*
X119669165Y-85967357D01*
X119671525Y-85968622D01*
X119677739Y-85972990D01*
X119684818Y-85975750D01*
X119684820Y-85975751D01*
X119737275Y-85996202D01*
X119743344Y-85998753D01*
X119801573Y-86025045D01*
X119809040Y-86026429D01*
X119811595Y-86027230D01*
X119827848Y-86031859D01*
X119830428Y-86032522D01*
X119837509Y-86035282D01*
X119845040Y-86036273D01*
X119845042Y-86036274D01*
X119874661Y-86040173D01*
X119900861Y-86043622D01*
X119907359Y-86044652D01*
X119970186Y-86056296D01*
X119977766Y-86055859D01*
X119977767Y-86055859D01*
X120032392Y-86052709D01*
X120039646Y-86052500D01*
X121574340Y-86052500D01*
X121642461Y-86072502D01*
X121663435Y-86089405D01*
X121885827Y-86311797D01*
X121919853Y-86374109D01*
X121917729Y-86436043D01*
X121904657Y-86481038D01*
X121904370Y-86482026D01*
X121866156Y-86541861D01*
X121801659Y-86571538D01*
X121743220Y-86564125D01*
X121742701Y-86565802D01*
X121553768Y-86507318D01*
X121547643Y-86506674D01*
X121547642Y-86506674D01*
X121363204Y-86487289D01*
X121363202Y-86487289D01*
X121357075Y-86486645D01*
X121274576Y-86494153D01*
X121166251Y-86504011D01*
X121166248Y-86504012D01*
X121160112Y-86504570D01*
X121154206Y-86506308D01*
X121154202Y-86506309D01*
X121049076Y-86537249D01*
X120970381Y-86560410D01*
X120964923Y-86563263D01*
X120964919Y-86563265D01*
X120936411Y-86578169D01*
X120795110Y-86652040D01*
X120640975Y-86775968D01*
X120513846Y-86927474D01*
X120510879Y-86932872D01*
X120510875Y-86932877D01*
X120432095Y-87076180D01*
X120418567Y-87100787D01*
X120358765Y-87289306D01*
X120336719Y-87485851D01*
X120337235Y-87491995D01*
X120349744Y-87640962D01*
X120353268Y-87682934D01*
X120407783Y-87873050D01*
X120410602Y-87878535D01*
X120493911Y-88040635D01*
X120498187Y-88048956D01*
X120621035Y-88203953D01*
X120625728Y-88207947D01*
X120625729Y-88207948D01*
X120749396Y-88313196D01*
X120771650Y-88332136D01*
X120944294Y-88428624D01*
X121132392Y-88489740D01*
X121328777Y-88513158D01*
X121334912Y-88512686D01*
X121334914Y-88512686D01*
X121519830Y-88498457D01*
X121519834Y-88498456D01*
X121525972Y-88497984D01*
X121716463Y-88444798D01*
X121721963Y-88442020D01*
X121722777Y-88441609D01*
X121723245Y-88441523D01*
X121727713Y-88439790D01*
X121728042Y-88440639D01*
X121792600Y-88428752D01*
X121858290Y-88455685D01*
X121900579Y-88518926D01*
X121922855Y-88595601D01*
X121926892Y-88602427D01*
X122003509Y-88731980D01*
X122003511Y-88731983D01*
X122007547Y-88738807D01*
X122125193Y-88856453D01*
X122132016Y-88860488D01*
X122132020Y-88860491D01*
X122210737Y-88907044D01*
X122268399Y-88941145D01*
X122276010Y-88943356D01*
X122276012Y-88943357D01*
X122328231Y-88958528D01*
X122428169Y-88987562D01*
X122434574Y-88988066D01*
X122434579Y-88988067D01*
X122463042Y-88990307D01*
X122463050Y-88990307D01*
X122465498Y-88990500D01*
X122898502Y-88990500D01*
X122900950Y-88990307D01*
X122900958Y-88990307D01*
X122929421Y-88988067D01*
X122929426Y-88988066D01*
X122935831Y-88987562D01*
X123035769Y-88958528D01*
X123087988Y-88943357D01*
X123087990Y-88943356D01*
X123095601Y-88941145D01*
X123238807Y-88856453D01*
X123241489Y-88853771D01*
X123305861Y-88828498D01*
X123375484Y-88842400D01*
X123391312Y-88852572D01*
X123395193Y-88856453D01*
X123538399Y-88941145D01*
X123546010Y-88943356D01*
X123546012Y-88943357D01*
X123598231Y-88958528D01*
X123698169Y-88987562D01*
X123704574Y-88988066D01*
X123704579Y-88988067D01*
X123733042Y-88990307D01*
X123733050Y-88990307D01*
X123735498Y-88990500D01*
X124168502Y-88990500D01*
X124170950Y-88990307D01*
X124170958Y-88990307D01*
X124199421Y-88988067D01*
X124199426Y-88988066D01*
X124205831Y-88987562D01*
X124305769Y-88958528D01*
X124357988Y-88943357D01*
X124357990Y-88943356D01*
X124365601Y-88941145D01*
X124508807Y-88856453D01*
X124511747Y-88853513D01*
X124576271Y-88828179D01*
X124645894Y-88842080D01*
X124664640Y-88854129D01*
X124672323Y-88860089D01*
X124801779Y-88936648D01*
X124816210Y-88942893D01*
X124950605Y-88981939D01*
X124964706Y-88981899D01*
X124968000Y-88974630D01*
X124968000Y-86045122D01*
X124964027Y-86031591D01*
X124956129Y-86030456D01*
X124821653Y-86069525D01*
X124750657Y-86069322D01*
X124691041Y-86030768D01*
X124661732Y-85966104D01*
X124660500Y-85948528D01*
X124660500Y-84779000D01*
X124680502Y-84710879D01*
X124734158Y-84664386D01*
X124786500Y-84653000D01*
X125087400Y-84653000D01*
X125090646Y-84652663D01*
X125090650Y-84652663D01*
X125186308Y-84642738D01*
X125186312Y-84642737D01*
X125193166Y-84642026D01*
X125199702Y-84639845D01*
X125199704Y-84639845D01*
X125340729Y-84592795D01*
X125360946Y-84586050D01*
X125511348Y-84492978D01*
X125626643Y-84377482D01*
X125688926Y-84343403D01*
X125715816Y-84340500D01*
X127267998Y-84340500D01*
X127336119Y-84360502D01*
X127357015Y-84377326D01*
X127473697Y-84493805D01*
X127479927Y-84497645D01*
X127479928Y-84497646D01*
X127617090Y-84582194D01*
X127624262Y-84586615D01*
X127704005Y-84613064D01*
X127785611Y-84640132D01*
X127785613Y-84640132D01*
X127792139Y-84642297D01*
X127798975Y-84642997D01*
X127798978Y-84642998D01*
X127842031Y-84647409D01*
X127896600Y-84653000D01*
X128897400Y-84653000D01*
X128900646Y-84652663D01*
X128900650Y-84652663D01*
X128996308Y-84642738D01*
X128996312Y-84642737D01*
X129003166Y-84642026D01*
X129009702Y-84639845D01*
X129009704Y-84639845D01*
X129150729Y-84592795D01*
X129170946Y-84586050D01*
X129321348Y-84492978D01*
X129436643Y-84377482D01*
X129498926Y-84343403D01*
X129525816Y-84340500D01*
X131077998Y-84340500D01*
X131146119Y-84360502D01*
X131167015Y-84377326D01*
X131283697Y-84493805D01*
X131289927Y-84497645D01*
X131289928Y-84497646D01*
X131427090Y-84582194D01*
X131434262Y-84586615D01*
X131514005Y-84613064D01*
X131595611Y-84640132D01*
X131595613Y-84640132D01*
X131602139Y-84642297D01*
X131608975Y-84642997D01*
X131608978Y-84642998D01*
X131652031Y-84647409D01*
X131706600Y-84653000D01*
X132707400Y-84653000D01*
X132710646Y-84652663D01*
X132710650Y-84652663D01*
X132806308Y-84642738D01*
X132806312Y-84642737D01*
X132813166Y-84642026D01*
X132819702Y-84639845D01*
X132819704Y-84639845D01*
X132960729Y-84592795D01*
X132980946Y-84586050D01*
X133131348Y-84492978D01*
X133246643Y-84377482D01*
X133308926Y-84343403D01*
X133335816Y-84340500D01*
X134887998Y-84340500D01*
X134956119Y-84360502D01*
X134977015Y-84377326D01*
X135093697Y-84493805D01*
X135099927Y-84497645D01*
X135099928Y-84497646D01*
X135237090Y-84582194D01*
X135244262Y-84586615D01*
X135324005Y-84613064D01*
X135405611Y-84640132D01*
X135405613Y-84640132D01*
X135412139Y-84642297D01*
X135418975Y-84642997D01*
X135418978Y-84642998D01*
X135462031Y-84647409D01*
X135516600Y-84653000D01*
X136517400Y-84653000D01*
X136520646Y-84652663D01*
X136520650Y-84652663D01*
X136616308Y-84642738D01*
X136616312Y-84642737D01*
X136623166Y-84642026D01*
X136629702Y-84639845D01*
X136629704Y-84639845D01*
X136770729Y-84592795D01*
X136790946Y-84586050D01*
X136941348Y-84492978D01*
X137066305Y-84367803D01*
X137070146Y-84361572D01*
X137155275Y-84223468D01*
X137155276Y-84223466D01*
X137159115Y-84217238D01*
X137214797Y-84049361D01*
X137225500Y-83944900D01*
X137225500Y-83319100D01*
X137214526Y-83213334D01*
X137158550Y-83045554D01*
X137101894Y-82953999D01*
X137083057Y-82885548D01*
X137104219Y-82817778D01*
X137158659Y-82772207D01*
X137216468Y-82763689D01*
X137216497Y-82762300D01*
X137222666Y-82762429D01*
X137228777Y-82763158D01*
X137234912Y-82762686D01*
X137234914Y-82762686D01*
X137419830Y-82748457D01*
X137419834Y-82748456D01*
X137425972Y-82747984D01*
X137616463Y-82694798D01*
X137621967Y-82692018D01*
X137621969Y-82692017D01*
X137787495Y-82608404D01*
X137787497Y-82608403D01*
X137792996Y-82605625D01*
X137948847Y-82483861D01*
X138067137Y-82346820D01*
X138074049Y-82338813D01*
X138074050Y-82338811D01*
X138078078Y-82334145D01*
X138175769Y-82162179D01*
X138238197Y-81974513D01*
X138262985Y-81778295D01*
X138263380Y-81750000D01*
X138244080Y-81553167D01*
X138186916Y-81363831D01*
X138094066Y-81189204D01*
X138003776Y-81078498D01*
X137972960Y-81040713D01*
X137972957Y-81040710D01*
X137969065Y-81035938D01*
X137964316Y-81032009D01*
X137821425Y-80913799D01*
X137821421Y-80913797D01*
X137816675Y-80909870D01*
X137642701Y-80815802D01*
X137453768Y-80757318D01*
X137447643Y-80756674D01*
X137447642Y-80756674D01*
X137263204Y-80737289D01*
X137263202Y-80737289D01*
X137257075Y-80736645D01*
X137174576Y-80744153D01*
X137066251Y-80754011D01*
X137066248Y-80754012D01*
X137060112Y-80754570D01*
X137054206Y-80756308D01*
X137054202Y-80756309D01*
X136876293Y-80808670D01*
X136870381Y-80810410D01*
X136864920Y-80813265D01*
X136864915Y-80813267D01*
X136837292Y-80827708D01*
X136767656Y-80841542D01*
X136739251Y-80835639D01*
X136628389Y-80798868D01*
X136628387Y-80798868D01*
X136621861Y-80796703D01*
X136615025Y-80796003D01*
X136615022Y-80796002D01*
X136571969Y-80791591D01*
X136517400Y-80786000D01*
X135516600Y-80786000D01*
X135513354Y-80786337D01*
X135513350Y-80786337D01*
X135417692Y-80796262D01*
X135417688Y-80796263D01*
X135410834Y-80796974D01*
X135404298Y-80799155D01*
X135404296Y-80799155D01*
X135318713Y-80827708D01*
X135243054Y-80852950D01*
X135092652Y-80946022D01*
X134967695Y-81071197D01*
X134963855Y-81077427D01*
X134963854Y-81077428D01*
X134890369Y-81196643D01*
X134874885Y-81221762D01*
X134819203Y-81389639D01*
X134808500Y-81494100D01*
X134808500Y-82119900D01*
X134808837Y-82123146D01*
X134808837Y-82123150D01*
X134817398Y-82205653D01*
X134819474Y-82225666D01*
X134821655Y-82232202D01*
X134821655Y-82232204D01*
X134844710Y-82301307D01*
X134875450Y-82393446D01*
X134968522Y-82543848D01*
X134973704Y-82549021D01*
X135055109Y-82630284D01*
X135089188Y-82692566D01*
X135084185Y-82763386D01*
X135055264Y-82808475D01*
X134977357Y-82886518D01*
X134915075Y-82920597D01*
X134888184Y-82923500D01*
X133336002Y-82923500D01*
X133267881Y-82903498D01*
X133246984Y-82886673D01*
X133168891Y-82808716D01*
X133134812Y-82746434D01*
X133139815Y-82675613D01*
X133168736Y-82630525D01*
X133251134Y-82547983D01*
X133256305Y-82542803D01*
X133260146Y-82536572D01*
X133345275Y-82398468D01*
X133345276Y-82398466D01*
X133349115Y-82392238D01*
X133375564Y-82312495D01*
X133402632Y-82230889D01*
X133402632Y-82230887D01*
X133404797Y-82224361D01*
X133407351Y-82199439D01*
X133411168Y-82162179D01*
X133415500Y-82119900D01*
X133415500Y-81494100D01*
X133404526Y-81388334D01*
X133348550Y-81220554D01*
X133255478Y-81070152D01*
X133130303Y-80945195D01*
X133079370Y-80913799D01*
X132979738Y-80852385D01*
X132980774Y-80850705D01*
X132934969Y-80810379D01*
X132915500Y-80743095D01*
X132915500Y-78973248D01*
X132935502Y-78905127D01*
X132989158Y-78858634D01*
X133059432Y-78848530D01*
X133066621Y-78849778D01*
X133177585Y-78872354D01*
X133177593Y-78872355D01*
X133182656Y-78873385D01*
X133313324Y-78878176D01*
X133408949Y-78881683D01*
X133408953Y-78881683D01*
X133414113Y-78881872D01*
X133419233Y-78881216D01*
X133419235Y-78881216D01*
X133518668Y-78868478D01*
X133643847Y-78852442D01*
X133648795Y-78850957D01*
X133648802Y-78850956D01*
X133860747Y-78787369D01*
X133865690Y-78785886D01*
X133946236Y-78746427D01*
X134069049Y-78686262D01*
X134069052Y-78686260D01*
X134073684Y-78683991D01*
X134262243Y-78549494D01*
X134426303Y-78386005D01*
X134495370Y-78289888D01*
X134551365Y-78246240D01*
X134622068Y-78239794D01*
X134685033Y-78272597D01*
X134705128Y-78297584D01*
X134706799Y-78300311D01*
X134706804Y-78300317D01*
X134709501Y-78304719D01*
X134861147Y-78479784D01*
X135039349Y-78627730D01*
X135239322Y-78744584D01*
X135455694Y-78827209D01*
X135460760Y-78828240D01*
X135460761Y-78828240D01*
X135513846Y-78839040D01*
X135682656Y-78873385D01*
X135813324Y-78878176D01*
X135908949Y-78881683D01*
X135908953Y-78881683D01*
X135914113Y-78881872D01*
X135919233Y-78881216D01*
X135919235Y-78881216D01*
X136018668Y-78868478D01*
X136143847Y-78852442D01*
X136148795Y-78850957D01*
X136148802Y-78850956D01*
X136360747Y-78787369D01*
X136365690Y-78785886D01*
X136446236Y-78746427D01*
X136569049Y-78686262D01*
X136569052Y-78686260D01*
X136573684Y-78683991D01*
X136762243Y-78549494D01*
X136926303Y-78386005D01*
X137061458Y-78197917D01*
X137092337Y-78135439D01*
X137161784Y-77994922D01*
X137161785Y-77994920D01*
X137164078Y-77990280D01*
X137231408Y-77768671D01*
X137261640Y-77539041D01*
X137263327Y-77470000D01*
X137257032Y-77393434D01*
X137244773Y-77244318D01*
X137244772Y-77244312D01*
X137244349Y-77239167D01*
X137187925Y-77014533D01*
X137173771Y-76981981D01*
X137097630Y-76806868D01*
X137097628Y-76806865D01*
X137095570Y-76802131D01*
X136969764Y-76607665D01*
X136940383Y-76575375D01*
X136888643Y-76518514D01*
X136813887Y-76436358D01*
X136809836Y-76433159D01*
X136809832Y-76433155D01*
X136636177Y-76296011D01*
X136636172Y-76296008D01*
X136632123Y-76292810D01*
X136627607Y-76290317D01*
X136627604Y-76290315D01*
X136433879Y-76183373D01*
X136433875Y-76183371D01*
X136429355Y-76180876D01*
X136424486Y-76179152D01*
X136424482Y-76179150D01*
X136215903Y-76105288D01*
X136215899Y-76105287D01*
X136211028Y-76103562D01*
X136205935Y-76102655D01*
X136205932Y-76102654D01*
X135988095Y-76063851D01*
X135988089Y-76063850D01*
X135983006Y-76062945D01*
X135905644Y-76062000D01*
X135756581Y-76060179D01*
X135756579Y-76060179D01*
X135751411Y-76060116D01*
X135522464Y-76095150D01*
X135302314Y-76167106D01*
X135297726Y-76169494D01*
X135297722Y-76169496D01*
X135101461Y-76271663D01*
X135096872Y-76274052D01*
X135092739Y-76277155D01*
X135092736Y-76277157D01*
X134915790Y-76410012D01*
X134911655Y-76413117D01*
X134751639Y-76580564D01*
X134704836Y-76649174D01*
X134649927Y-76694175D01*
X134579402Y-76702346D01*
X134515655Y-76671092D01*
X134494959Y-76646609D01*
X134472577Y-76612013D01*
X134472574Y-76612009D01*
X134469764Y-76607665D01*
X134440383Y-76575375D01*
X134388643Y-76518514D01*
X134313887Y-76436358D01*
X134309836Y-76433159D01*
X134309832Y-76433155D01*
X134136177Y-76296011D01*
X134136172Y-76296008D01*
X134132123Y-76292810D01*
X134127607Y-76290317D01*
X134127604Y-76290315D01*
X133933879Y-76183373D01*
X133933875Y-76183371D01*
X133929355Y-76180876D01*
X133924486Y-76179152D01*
X133924482Y-76179150D01*
X133715903Y-76105288D01*
X133715899Y-76105287D01*
X133711028Y-76103562D01*
X133705935Y-76102655D01*
X133705932Y-76102654D01*
X133488095Y-76063851D01*
X133488089Y-76063850D01*
X133483006Y-76062945D01*
X133405644Y-76062000D01*
X133256581Y-76060179D01*
X133256579Y-76060179D01*
X133251411Y-76060116D01*
X133022464Y-76095150D01*
X132802314Y-76167106D01*
X132797726Y-76169494D01*
X132797722Y-76169496D01*
X132601461Y-76271663D01*
X132596872Y-76274052D01*
X132592739Y-76277155D01*
X132592736Y-76277157D01*
X132415790Y-76410012D01*
X132411655Y-76413117D01*
X132411066Y-76412333D01*
X132351346Y-76440484D01*
X132280955Y-76431231D01*
X132226741Y-76385391D01*
X132213925Y-76360224D01*
X132203323Y-76331944D01*
X132194786Y-76316351D01*
X132118285Y-76214276D01*
X132105724Y-76201715D01*
X132003649Y-76125214D01*
X131988054Y-76116676D01*
X131867606Y-76071522D01*
X131852351Y-76067895D01*
X131801486Y-76062369D01*
X131794672Y-76062000D01*
X131122115Y-76062000D01*
X131106876Y-76066475D01*
X131105671Y-76067865D01*
X131104000Y-76075548D01*
X131104000Y-78859884D01*
X131108475Y-78875123D01*
X131109865Y-78876328D01*
X131117548Y-78877999D01*
X131372500Y-78877999D01*
X131440621Y-78898001D01*
X131487114Y-78951657D01*
X131498500Y-79003999D01*
X131498500Y-80743113D01*
X131478498Y-80811234D01*
X131432270Y-80851684D01*
X131433054Y-80852950D01*
X131282652Y-80946022D01*
X131157695Y-81071197D01*
X131153855Y-81077427D01*
X131153854Y-81077428D01*
X131080369Y-81196643D01*
X131064885Y-81221762D01*
X131009203Y-81389639D01*
X130998500Y-81494100D01*
X130998500Y-82119900D01*
X130998837Y-82123146D01*
X130998837Y-82123150D01*
X131007398Y-82205653D01*
X131009474Y-82225666D01*
X131011655Y-82232202D01*
X131011655Y-82232204D01*
X131034710Y-82301307D01*
X131065450Y-82393446D01*
X131158522Y-82543848D01*
X131163704Y-82549021D01*
X131245109Y-82630284D01*
X131279188Y-82692566D01*
X131274185Y-82763386D01*
X131245264Y-82808475D01*
X131167357Y-82886518D01*
X131105075Y-82920597D01*
X131078184Y-82923500D01*
X129526002Y-82923500D01*
X129457881Y-82903498D01*
X129436984Y-82886673D01*
X129358891Y-82808716D01*
X129324812Y-82746434D01*
X129329815Y-82675613D01*
X129358736Y-82630525D01*
X129441134Y-82547983D01*
X129446305Y-82542803D01*
X129450146Y-82536572D01*
X129535275Y-82398468D01*
X129535276Y-82398466D01*
X129539115Y-82392238D01*
X129565564Y-82312495D01*
X129592632Y-82230889D01*
X129592632Y-82230887D01*
X129594797Y-82224361D01*
X129597351Y-82199439D01*
X129601168Y-82162179D01*
X129605500Y-82119900D01*
X129605500Y-81494100D01*
X129594526Y-81388334D01*
X129538550Y-81220554D01*
X129445478Y-81070152D01*
X129320303Y-80945195D01*
X129314072Y-80941354D01*
X129175968Y-80856225D01*
X129175966Y-80856224D01*
X129169738Y-80852385D01*
X129053950Y-80813980D01*
X129008389Y-80798868D01*
X129008387Y-80798868D01*
X129001861Y-80796703D01*
X128995025Y-80796003D01*
X128995022Y-80796002D01*
X128951969Y-80791591D01*
X128897400Y-80786000D01*
X128430160Y-80786000D01*
X128362039Y-80765998D01*
X128341065Y-80749095D01*
X126006639Y-78414669D01*
X129442001Y-78414669D01*
X129442371Y-78421490D01*
X129447895Y-78472352D01*
X129451521Y-78487604D01*
X129496676Y-78608054D01*
X129505214Y-78623649D01*
X129581715Y-78725724D01*
X129594276Y-78738285D01*
X129696351Y-78814786D01*
X129711946Y-78823324D01*
X129832394Y-78868478D01*
X129847649Y-78872105D01*
X129898514Y-78877631D01*
X129905328Y-78878000D01*
X130577885Y-78878000D01*
X130593124Y-78873525D01*
X130594329Y-78872135D01*
X130596000Y-78864452D01*
X130596000Y-77742115D01*
X130591525Y-77726876D01*
X130590135Y-77725671D01*
X130582452Y-77724000D01*
X129460116Y-77724000D01*
X129444877Y-77728475D01*
X129443672Y-77729865D01*
X129442001Y-77737548D01*
X129442001Y-78414669D01*
X126006639Y-78414669D01*
X124789855Y-77197885D01*
X129442000Y-77197885D01*
X129446475Y-77213124D01*
X129447865Y-77214329D01*
X129455548Y-77216000D01*
X130577885Y-77216000D01*
X130593124Y-77211525D01*
X130594329Y-77210135D01*
X130596000Y-77202452D01*
X130596000Y-76080116D01*
X130591525Y-76064877D01*
X130590135Y-76063672D01*
X130582452Y-76062001D01*
X129905331Y-76062001D01*
X129898510Y-76062371D01*
X129847648Y-76067895D01*
X129832396Y-76071521D01*
X129711946Y-76116676D01*
X129696351Y-76125214D01*
X129594276Y-76201715D01*
X129581715Y-76214276D01*
X129505214Y-76316351D01*
X129496676Y-76331946D01*
X129451522Y-76452394D01*
X129447895Y-76467649D01*
X129442369Y-76518514D01*
X129442000Y-76525328D01*
X129442000Y-77197885D01*
X124789855Y-77197885D01*
X123935405Y-76343435D01*
X123901379Y-76281123D01*
X123898500Y-76254340D01*
X123898500Y-70298884D01*
X126681500Y-70298884D01*
X126681665Y-70301152D01*
X126681665Y-70301164D01*
X126689725Y-70412238D01*
X126696125Y-70500451D01*
X126697109Y-70504906D01*
X126697109Y-70504909D01*
X126753429Y-70760000D01*
X126754585Y-70765237D01*
X126850655Y-71018810D01*
X126982324Y-71255859D01*
X127017092Y-71301416D01*
X127098316Y-71407844D01*
X127146833Y-71471417D01*
X127150099Y-71474610D01*
X127150101Y-71474612D01*
X127222173Y-71545067D01*
X127340736Y-71660970D01*
X127559972Y-71820547D01*
X127799947Y-71946804D01*
X127804248Y-71948323D01*
X127804253Y-71948325D01*
X127937087Y-71995233D01*
X128055634Y-72037096D01*
X128118131Y-72049414D01*
X128317206Y-72088652D01*
X128317212Y-72088653D01*
X128321678Y-72089533D01*
X128326232Y-72089760D01*
X128326234Y-72089760D01*
X128587936Y-72102789D01*
X128587942Y-72102789D01*
X128592505Y-72103016D01*
X128862441Y-72077262D01*
X128866870Y-72076178D01*
X128866877Y-72076177D01*
X129026584Y-72037096D01*
X129125832Y-72012810D01*
X129253462Y-71961115D01*
X129372931Y-71912725D01*
X129372932Y-71912725D01*
X129377160Y-71911012D01*
X129611161Y-71773999D01*
X129822932Y-71604641D01*
X129893077Y-71529552D01*
X130004921Y-71409824D01*
X130004923Y-71409821D01*
X130008037Y-71406488D01*
X130162598Y-71183688D01*
X130244624Y-71018810D01*
X130281346Y-70944997D01*
X130281347Y-70944994D01*
X130283379Y-70940910D01*
X130367847Y-70683240D01*
X130375211Y-70640829D01*
X130413579Y-70419856D01*
X130413580Y-70419848D01*
X130414235Y-70416075D01*
X130418500Y-70330400D01*
X130418500Y-69641116D01*
X130416328Y-69611170D01*
X130404205Y-69444100D01*
X130403875Y-69439549D01*
X130381631Y-69338796D01*
X130346400Y-69179223D01*
X130346399Y-69179219D01*
X130345415Y-69174763D01*
X130287809Y-69022715D01*
X130250963Y-68925460D01*
X130250962Y-68925457D01*
X130249345Y-68921190D01*
X130117676Y-68684141D01*
X129953167Y-68468583D01*
X129759264Y-68279030D01*
X129540028Y-68119453D01*
X129300053Y-67993196D01*
X129295752Y-67991677D01*
X129295747Y-67991675D01*
X129117998Y-67928906D01*
X129044366Y-67902904D01*
X128946347Y-67883585D01*
X128782794Y-67851348D01*
X128782788Y-67851347D01*
X128778322Y-67850467D01*
X128773768Y-67850240D01*
X128773766Y-67850240D01*
X128512064Y-67837211D01*
X128512058Y-67837211D01*
X128507495Y-67836984D01*
X128237559Y-67862738D01*
X128233130Y-67863822D01*
X128233123Y-67863823D01*
X128103069Y-67895648D01*
X127974168Y-67927190D01*
X127969933Y-67928905D01*
X127969931Y-67928906D01*
X127727069Y-68027275D01*
X127722840Y-68028988D01*
X127488839Y-68166001D01*
X127277068Y-68335359D01*
X127273947Y-68338700D01*
X127137719Y-68484531D01*
X127091963Y-68533512D01*
X126937402Y-68756312D01*
X126935374Y-68760388D01*
X126935373Y-68760390D01*
X126839651Y-68952799D01*
X126816621Y-68999090D01*
X126732153Y-69256760D01*
X126731373Y-69261251D01*
X126731373Y-69261252D01*
X126697843Y-69454366D01*
X126685765Y-69523925D01*
X126681500Y-69609600D01*
X126681500Y-70298884D01*
X123898500Y-70298884D01*
X123898500Y-58439716D01*
X123918502Y-58371595D01*
X123951332Y-58337137D01*
X124102243Y-58229494D01*
X124266303Y-58066005D01*
X124335370Y-57969888D01*
X124391365Y-57926240D01*
X124462068Y-57919794D01*
X124525033Y-57952597D01*
X124545128Y-57977584D01*
X124546799Y-57980311D01*
X124546804Y-57980317D01*
X124549501Y-57984719D01*
X124701147Y-58159784D01*
X124879349Y-58307730D01*
X125079322Y-58424584D01*
X125084147Y-58426426D01*
X125084148Y-58426427D01*
X125158665Y-58454883D01*
X125295694Y-58507209D01*
X125300760Y-58508240D01*
X125300761Y-58508240D01*
X125353846Y-58519040D01*
X125522656Y-58553385D01*
X125653324Y-58558176D01*
X125748949Y-58561683D01*
X125748953Y-58561683D01*
X125754113Y-58561872D01*
X125759233Y-58561216D01*
X125759235Y-58561216D01*
X125858668Y-58548478D01*
X125983847Y-58532442D01*
X125988795Y-58530957D01*
X125988802Y-58530956D01*
X126200747Y-58467369D01*
X126205690Y-58465886D01*
X126210324Y-58463616D01*
X126409049Y-58366262D01*
X126409052Y-58366260D01*
X126413684Y-58363991D01*
X126602243Y-58229494D01*
X126766303Y-58066005D01*
X126901458Y-57877917D01*
X127004078Y-57670280D01*
X127071408Y-57448671D01*
X127101640Y-57219041D01*
X127103327Y-57150000D01*
X127097032Y-57073434D01*
X127084773Y-56924318D01*
X127084772Y-56924312D01*
X127084349Y-56919167D01*
X127027925Y-56694533D01*
X126935570Y-56482131D01*
X126809764Y-56287665D01*
X126653887Y-56116358D01*
X126649836Y-56113159D01*
X126649832Y-56113155D01*
X126476177Y-55976011D01*
X126476172Y-55976008D01*
X126472123Y-55972810D01*
X126467607Y-55970317D01*
X126467604Y-55970315D01*
X126273879Y-55863373D01*
X126273875Y-55863371D01*
X126269355Y-55860876D01*
X126264486Y-55859152D01*
X126264482Y-55859150D01*
X126055903Y-55785288D01*
X126055899Y-55785287D01*
X126051028Y-55783562D01*
X126045935Y-55782655D01*
X126045932Y-55782654D01*
X125828095Y-55743851D01*
X125828089Y-55743850D01*
X125823006Y-55742945D01*
X125745644Y-55742000D01*
X125596581Y-55740179D01*
X125596579Y-55740179D01*
X125591411Y-55740116D01*
X125362464Y-55775150D01*
X125142314Y-55847106D01*
X125137726Y-55849494D01*
X125137722Y-55849496D01*
X124941461Y-55951663D01*
X124936872Y-55954052D01*
X124932739Y-55957155D01*
X124932736Y-55957157D01*
X124755790Y-56090012D01*
X124751655Y-56093117D01*
X124591639Y-56260564D01*
X124544836Y-56329174D01*
X124489927Y-56374175D01*
X124419402Y-56382346D01*
X124355655Y-56351092D01*
X124334959Y-56326609D01*
X124312577Y-56292013D01*
X124312574Y-56292009D01*
X124309764Y-56287665D01*
X124153887Y-56116358D01*
X124149836Y-56113159D01*
X124149832Y-56113155D01*
X123976177Y-55976011D01*
X123976172Y-55976008D01*
X123972123Y-55972810D01*
X123967607Y-55970317D01*
X123967604Y-55970315D01*
X123773879Y-55863373D01*
X123773875Y-55863371D01*
X123769355Y-55860876D01*
X123764486Y-55859152D01*
X123764482Y-55859150D01*
X123555903Y-55785288D01*
X123555899Y-55785287D01*
X123551028Y-55783562D01*
X123545935Y-55782655D01*
X123545932Y-55782654D01*
X123328095Y-55743851D01*
X123328089Y-55743850D01*
X123323006Y-55742945D01*
X123245644Y-55742000D01*
X123096581Y-55740179D01*
X123096579Y-55740179D01*
X123091411Y-55740116D01*
X122862464Y-55775150D01*
X122642314Y-55847106D01*
X122637726Y-55849494D01*
X122637722Y-55849496D01*
X122441461Y-55951663D01*
X122436872Y-55954052D01*
X122432739Y-55957155D01*
X122432736Y-55957157D01*
X122255790Y-56090012D01*
X122251655Y-56093117D01*
X122251066Y-56092333D01*
X122191346Y-56120484D01*
X122120955Y-56111231D01*
X122066741Y-56065391D01*
X122053925Y-56040224D01*
X122043323Y-56011944D01*
X122034786Y-55996351D01*
X121958285Y-55894276D01*
X121945724Y-55881715D01*
X121843649Y-55805214D01*
X121828054Y-55796676D01*
X121707606Y-55751522D01*
X121692351Y-55747895D01*
X121641486Y-55742369D01*
X121634672Y-55742000D01*
X120962115Y-55742000D01*
X120946876Y-55746475D01*
X120945671Y-55747865D01*
X120944000Y-55755548D01*
X120944000Y-58539884D01*
X120948475Y-58555123D01*
X120949865Y-58556328D01*
X120957548Y-58557999D01*
X121634669Y-58557999D01*
X121641490Y-58557629D01*
X121692352Y-58552105D01*
X121707604Y-58548479D01*
X121828054Y-58503324D01*
X121843649Y-58494786D01*
X121945724Y-58418285D01*
X121958285Y-58405724D01*
X122034786Y-58303649D01*
X122043325Y-58288052D01*
X122055278Y-58256167D01*
X122097919Y-58199402D01*
X122164480Y-58174702D01*
X122233829Y-58189909D01*
X122253741Y-58203448D01*
X122379349Y-58307730D01*
X122418013Y-58330323D01*
X122419070Y-58330941D01*
X122467794Y-58382579D01*
X122481500Y-58439729D01*
X122481500Y-76571088D01*
X122481208Y-76579658D01*
X122479003Y-76612009D01*
X122477275Y-76637352D01*
X122478580Y-76644829D01*
X122478580Y-76644830D01*
X122488261Y-76700299D01*
X122489223Y-76706821D01*
X122496898Y-76770242D01*
X122499581Y-76777343D01*
X122500222Y-76779952D01*
X122504685Y-76796262D01*
X122505450Y-76798798D01*
X122506757Y-76806284D01*
X122509811Y-76813241D01*
X122532442Y-76864795D01*
X122534933Y-76870899D01*
X122557513Y-76930656D01*
X122561817Y-76936919D01*
X122563054Y-76939285D01*
X122571299Y-76954097D01*
X122572632Y-76956351D01*
X122575685Y-76963305D01*
X122611361Y-77009797D01*
X122614579Y-77013991D01*
X122618459Y-77019332D01*
X122650339Y-77065720D01*
X122650344Y-77065725D01*
X122654643Y-77071981D01*
X122660313Y-77077032D01*
X122660314Y-77077034D01*
X122701170Y-77113435D01*
X122706446Y-77118416D01*
X127151595Y-81563565D01*
X127185621Y-81625877D01*
X127188500Y-81652660D01*
X127188500Y-82119900D01*
X127188837Y-82123146D01*
X127188837Y-82123150D01*
X127197398Y-82205653D01*
X127199474Y-82225666D01*
X127201655Y-82232202D01*
X127201655Y-82232204D01*
X127224710Y-82301307D01*
X127255450Y-82393446D01*
X127348522Y-82543848D01*
X127353704Y-82549021D01*
X127435109Y-82630284D01*
X127469188Y-82692566D01*
X127464185Y-82763386D01*
X127435264Y-82808475D01*
X127357357Y-82886518D01*
X127295075Y-82920597D01*
X127268184Y-82923500D01*
X125716002Y-82923500D01*
X125647881Y-82903498D01*
X125626984Y-82886673D01*
X125548891Y-82808716D01*
X125514812Y-82746434D01*
X125519815Y-82675613D01*
X125548736Y-82630525D01*
X125631134Y-82547983D01*
X125636305Y-82542803D01*
X125640146Y-82536572D01*
X125725275Y-82398468D01*
X125725276Y-82398466D01*
X125729115Y-82392238D01*
X125755564Y-82312495D01*
X125782632Y-82230889D01*
X125782632Y-82230887D01*
X125784797Y-82224361D01*
X125787351Y-82199439D01*
X125791168Y-82162179D01*
X125795500Y-82119900D01*
X125795500Y-81494100D01*
X125784526Y-81388334D01*
X125728550Y-81220554D01*
X125635478Y-81070152D01*
X125510303Y-80945195D01*
X125504072Y-80941354D01*
X125365968Y-80856225D01*
X125365966Y-80856224D01*
X125359738Y-80852385D01*
X125243950Y-80813980D01*
X125198389Y-80798868D01*
X125198387Y-80798868D01*
X125191861Y-80796703D01*
X125185025Y-80796003D01*
X125185022Y-80796002D01*
X125141969Y-80791591D01*
X125087400Y-80786000D01*
X124086600Y-80786000D01*
X124083354Y-80786337D01*
X124083350Y-80786337D01*
X123987692Y-80796262D01*
X123987688Y-80796263D01*
X123980834Y-80796974D01*
X123974298Y-80799155D01*
X123974296Y-80799155D01*
X123888713Y-80827708D01*
X123813054Y-80852950D01*
X123662652Y-80946022D01*
X123657479Y-80951204D01*
X123547357Y-81061518D01*
X123485074Y-81095597D01*
X123458184Y-81098500D01*
X121976899Y-81098500D01*
X121908778Y-81078498D01*
X121869755Y-81038803D01*
X121854332Y-81013880D01*
X121850478Y-81007652D01*
X121725303Y-80882695D01*
X121719072Y-80878854D01*
X121580968Y-80793725D01*
X121580966Y-80793724D01*
X121574738Y-80789885D01*
X121476551Y-80757318D01*
X121413389Y-80736368D01*
X121413387Y-80736368D01*
X121406861Y-80734203D01*
X121400025Y-80733503D01*
X121400022Y-80733502D01*
X121356969Y-80729091D01*
X121302400Y-80723500D01*
X120251600Y-80723500D01*
X120248354Y-80723837D01*
X120248350Y-80723837D01*
X120152692Y-80733762D01*
X120152688Y-80733763D01*
X120145834Y-80734474D01*
X120139298Y-80736655D01*
X120139296Y-80736655D01*
X120077362Y-80757318D01*
X119978054Y-80790450D01*
X119827652Y-80883522D01*
X119702695Y-81008697D01*
X119698855Y-81014927D01*
X119698854Y-81014928D01*
X119679388Y-81046508D01*
X119626616Y-81094001D01*
X119622444Y-81095786D01*
X119620454Y-81096826D01*
X119613344Y-81099513D01*
X119607083Y-81103816D01*
X119604717Y-81105053D01*
X119589937Y-81113280D01*
X119587652Y-81114631D01*
X119580695Y-81117685D01*
X119574675Y-81122305D01*
X119574669Y-81122308D01*
X119543542Y-81146194D01*
X119529998Y-81156587D01*
X119524668Y-81160459D01*
X119478280Y-81192339D01*
X119478275Y-81192344D01*
X119472019Y-81196643D01*
X119466968Y-81202313D01*
X119466966Y-81202314D01*
X119430565Y-81243170D01*
X119425584Y-81248446D01*
X118518480Y-82155550D01*
X118512215Y-82161404D01*
X118468615Y-82199439D01*
X118446512Y-82230889D01*
X118431872Y-82251719D01*
X118427939Y-82257014D01*
X118388524Y-82307282D01*
X118385401Y-82314198D01*
X118384017Y-82316484D01*
X118375643Y-82331165D01*
X118374378Y-82333525D01*
X118370010Y-82339739D01*
X118367250Y-82346818D01*
X118367249Y-82346820D01*
X118346798Y-82399275D01*
X118344247Y-82405344D01*
X118317955Y-82463573D01*
X118316571Y-82471040D01*
X118315770Y-82473595D01*
X118311141Y-82489848D01*
X118310478Y-82492428D01*
X118307718Y-82499509D01*
X118306727Y-82507040D01*
X118306726Y-82507042D01*
X118302979Y-82535502D01*
X118300765Y-82552327D01*
X118299379Y-82562852D01*
X118298348Y-82569359D01*
X118286704Y-82632186D01*
X118287141Y-82639766D01*
X118287141Y-82639767D01*
X118290291Y-82694392D01*
X118290500Y-82701646D01*
X118290500Y-84299088D01*
X118290208Y-84307658D01*
X118286275Y-84365352D01*
X114808000Y-84365352D01*
X114808000Y-58094669D01*
X119282001Y-58094669D01*
X119282371Y-58101490D01*
X119287895Y-58152352D01*
X119291521Y-58167604D01*
X119336676Y-58288054D01*
X119345214Y-58303649D01*
X119421715Y-58405724D01*
X119434276Y-58418285D01*
X119536351Y-58494786D01*
X119551946Y-58503324D01*
X119672394Y-58548478D01*
X119687649Y-58552105D01*
X119738514Y-58557631D01*
X119745328Y-58558000D01*
X120417885Y-58558000D01*
X120433124Y-58553525D01*
X120434329Y-58552135D01*
X120436000Y-58544452D01*
X120436000Y-57422115D01*
X120431525Y-57406876D01*
X120430135Y-57405671D01*
X120422452Y-57404000D01*
X119300116Y-57404000D01*
X119284877Y-57408475D01*
X119283672Y-57409865D01*
X119282001Y-57417548D01*
X119282001Y-58094669D01*
X114808000Y-58094669D01*
X114808000Y-56877885D01*
X119282000Y-56877885D01*
X119286475Y-56893124D01*
X119287865Y-56894329D01*
X119295548Y-56896000D01*
X120417885Y-56896000D01*
X120433124Y-56891525D01*
X120434329Y-56890135D01*
X120436000Y-56882452D01*
X120436000Y-55760116D01*
X120431525Y-55744877D01*
X120430135Y-55743672D01*
X120422452Y-55742001D01*
X119745331Y-55742001D01*
X119738510Y-55742371D01*
X119687648Y-55747895D01*
X119672396Y-55751521D01*
X119551946Y-55796676D01*
X119536351Y-55805214D01*
X119434276Y-55881715D01*
X119421715Y-55894276D01*
X119345214Y-55996351D01*
X119336676Y-56011946D01*
X119291522Y-56132394D01*
X119287895Y-56147649D01*
X119282369Y-56198514D01*
X119282000Y-56205328D01*
X119282000Y-56877885D01*
X114808000Y-56877885D01*
X114808000Y-51804183D01*
X142174389Y-51804183D01*
X142175912Y-51812607D01*
X142188292Y-51816000D01*
X143237885Y-51816000D01*
X143253124Y-51811525D01*
X143254329Y-51810135D01*
X143256000Y-51802452D01*
X143256000Y-51797885D01*
X143764000Y-51797885D01*
X143768475Y-51813124D01*
X143769865Y-51814329D01*
X143777548Y-51816000D01*
X145777885Y-51816000D01*
X145793124Y-51811525D01*
X145794329Y-51810135D01*
X145796000Y-51802452D01*
X145796000Y-51797885D01*
X146304000Y-51797885D01*
X146308475Y-51813124D01*
X146309865Y-51814329D01*
X146317548Y-51816000D01*
X147368344Y-51816000D01*
X147381875Y-51812027D01*
X147383180Y-51802947D01*
X147383164Y-51802885D01*
X147865000Y-51802885D01*
X147869475Y-51818124D01*
X147870865Y-51819329D01*
X147878548Y-51821000D01*
X148825885Y-51821000D01*
X148841124Y-51816525D01*
X148842329Y-51815135D01*
X148844000Y-51807452D01*
X148844000Y-51802885D01*
X149352000Y-51802885D01*
X149356475Y-51818124D01*
X149357865Y-51819329D01*
X149365548Y-51821000D01*
X150312884Y-51821000D01*
X150328123Y-51816525D01*
X150329328Y-51815135D01*
X150330999Y-51807452D01*
X150330999Y-51777905D01*
X150330662Y-51771386D01*
X150320743Y-51675794D01*
X150317851Y-51662400D01*
X150266412Y-51508216D01*
X150260239Y-51495038D01*
X150174937Y-51357193D01*
X150165901Y-51345792D01*
X150051171Y-51231261D01*
X150039760Y-51222249D01*
X149901757Y-51137184D01*
X149888576Y-51131037D01*
X149734290Y-51079862D01*
X149720914Y-51076995D01*
X149626562Y-51067328D01*
X149620145Y-51067000D01*
X149370115Y-51067000D01*
X149354876Y-51071475D01*
X149353671Y-51072865D01*
X149352000Y-51080548D01*
X149352000Y-51802885D01*
X148844000Y-51802885D01*
X148844000Y-51085116D01*
X148839525Y-51069877D01*
X148838135Y-51068672D01*
X148830452Y-51067001D01*
X148575905Y-51067001D01*
X148569386Y-51067338D01*
X148473794Y-51077257D01*
X148460400Y-51080149D01*
X148306216Y-51131588D01*
X148293038Y-51137761D01*
X148155193Y-51223063D01*
X148143792Y-51232099D01*
X148029261Y-51346829D01*
X148020249Y-51358240D01*
X147935184Y-51496243D01*
X147929037Y-51509424D01*
X147877862Y-51663710D01*
X147874995Y-51677086D01*
X147865328Y-51771438D01*
X147865000Y-51777855D01*
X147865000Y-51802885D01*
X147383164Y-51802885D01*
X147341214Y-51635875D01*
X147337894Y-51626124D01*
X147252972Y-51430814D01*
X147248105Y-51421739D01*
X147132426Y-51242926D01*
X147126136Y-51234757D01*
X146982806Y-51077240D01*
X146975273Y-51070215D01*
X146808139Y-50938222D01*
X146799552Y-50932517D01*
X146762116Y-50911851D01*
X146712146Y-50861419D01*
X146697374Y-50791976D01*
X146722490Y-50725571D01*
X146749842Y-50698964D01*
X146925327Y-50573792D01*
X146933200Y-50567139D01*
X147084052Y-50416812D01*
X147090730Y-50408965D01*
X147215003Y-50236020D01*
X147220313Y-50227183D01*
X147314670Y-50036267D01*
X147318469Y-50026672D01*
X147380377Y-49822910D01*
X147382555Y-49812837D01*
X147383986Y-49801962D01*
X147381775Y-49787778D01*
X147368617Y-49784000D01*
X146322115Y-49784000D01*
X146306876Y-49788475D01*
X146305671Y-49789865D01*
X146304000Y-49797548D01*
X146304000Y-51797885D01*
X145796000Y-51797885D01*
X145796000Y-49802115D01*
X145791525Y-49786876D01*
X145790135Y-49785671D01*
X145782452Y-49784000D01*
X143782115Y-49784000D01*
X143766876Y-49788475D01*
X143765671Y-49789865D01*
X143764000Y-49797548D01*
X143764000Y-51797885D01*
X143256000Y-51797885D01*
X143256000Y-49802115D01*
X143251525Y-49786876D01*
X143250135Y-49785671D01*
X143242452Y-49784000D01*
X142193225Y-49784000D01*
X142179694Y-49787973D01*
X142178257Y-49797966D01*
X142208565Y-49932446D01*
X142211645Y-49942275D01*
X142291770Y-50139603D01*
X142296413Y-50148794D01*
X142407694Y-50330388D01*
X142413777Y-50338699D01*
X142553213Y-50499667D01*
X142560580Y-50506883D01*
X142724434Y-50642916D01*
X142732881Y-50648831D01*
X142802479Y-50689501D01*
X142851203Y-50741140D01*
X142864274Y-50810923D01*
X142837543Y-50876694D01*
X142797087Y-50910053D01*
X142788462Y-50914542D01*
X142779738Y-50920036D01*
X142609433Y-51047905D01*
X142601726Y-51054748D01*
X142454590Y-51208717D01*
X142448104Y-51216727D01*
X142328098Y-51392649D01*
X142323000Y-51401623D01*
X142233338Y-51594783D01*
X142229775Y-51604470D01*
X142174389Y-51804183D01*
X114808000Y-51804183D01*
X114808000Y-49978884D01*
X116521500Y-49978884D01*
X116521665Y-49981152D01*
X116521665Y-49981164D01*
X116529725Y-50092238D01*
X116536125Y-50180451D01*
X116537109Y-50184906D01*
X116537109Y-50184909D01*
X116586577Y-50408965D01*
X116594585Y-50445237D01*
X116690655Y-50698810D01*
X116822324Y-50935859D01*
X116825096Y-50939491D01*
X116924604Y-51069877D01*
X116986833Y-51151417D01*
X116990099Y-51154610D01*
X116990101Y-51154612D01*
X117080442Y-51242926D01*
X117180736Y-51340970D01*
X117184428Y-51343657D01*
X117184430Y-51343659D01*
X117291701Y-51421739D01*
X117399972Y-51500547D01*
X117639947Y-51626804D01*
X117644248Y-51628323D01*
X117644253Y-51628325D01*
X117777087Y-51675233D01*
X117895634Y-51717096D01*
X117993653Y-51736415D01*
X118157206Y-51768652D01*
X118157212Y-51768653D01*
X118161678Y-51769533D01*
X118166232Y-51769760D01*
X118166234Y-51769760D01*
X118427936Y-51782789D01*
X118427942Y-51782789D01*
X118432505Y-51783016D01*
X118702441Y-51757262D01*
X118706870Y-51756178D01*
X118706877Y-51756177D01*
X118866584Y-51717096D01*
X118965832Y-51692810D01*
X119106399Y-51635875D01*
X119212931Y-51592725D01*
X119212932Y-51592725D01*
X119217160Y-51591012D01*
X119451161Y-51453999D01*
X119662932Y-51284641D01*
X119784399Y-51154612D01*
X119844921Y-51089824D01*
X119844923Y-51089821D01*
X119848037Y-51086488D01*
X120002598Y-50863688D01*
X120004627Y-50859610D01*
X120121346Y-50624997D01*
X120121347Y-50624994D01*
X120123379Y-50620910D01*
X120207847Y-50363240D01*
X120229935Y-50236028D01*
X120253579Y-50099856D01*
X120253580Y-50099848D01*
X120254235Y-50096075D01*
X120258500Y-50010400D01*
X120258500Y-49978884D01*
X126121500Y-49978884D01*
X126121665Y-49981152D01*
X126121665Y-49981164D01*
X126129725Y-50092238D01*
X126136125Y-50180451D01*
X126137109Y-50184906D01*
X126137109Y-50184909D01*
X126186577Y-50408965D01*
X126194585Y-50445237D01*
X126290655Y-50698810D01*
X126422324Y-50935859D01*
X126425096Y-50939491D01*
X126524604Y-51069877D01*
X126586833Y-51151417D01*
X126590099Y-51154610D01*
X126590101Y-51154612D01*
X126680442Y-51242926D01*
X126780736Y-51340970D01*
X126784428Y-51343657D01*
X126784430Y-51343659D01*
X126891701Y-51421739D01*
X126999972Y-51500547D01*
X127239947Y-51626804D01*
X127244248Y-51628323D01*
X127244253Y-51628325D01*
X127377087Y-51675233D01*
X127495634Y-51717096D01*
X127593653Y-51736415D01*
X127757206Y-51768652D01*
X127757212Y-51768653D01*
X127761678Y-51769533D01*
X127766232Y-51769760D01*
X127766234Y-51769760D01*
X128027936Y-51782789D01*
X128027942Y-51782789D01*
X128032505Y-51783016D01*
X128302441Y-51757262D01*
X128306870Y-51756178D01*
X128306877Y-51756177D01*
X128466584Y-51717096D01*
X128565832Y-51692810D01*
X128706399Y-51635875D01*
X128812931Y-51592725D01*
X128812932Y-51592725D01*
X128817160Y-51591012D01*
X129051161Y-51453999D01*
X129262932Y-51284641D01*
X129384399Y-51154612D01*
X129444921Y-51089824D01*
X129444923Y-51089821D01*
X129448037Y-51086488D01*
X129602598Y-50863688D01*
X129604627Y-50859610D01*
X129721346Y-50624997D01*
X129721347Y-50624994D01*
X129723379Y-50620910D01*
X129807847Y-50363240D01*
X129829935Y-50236028D01*
X129853579Y-50099856D01*
X129853580Y-50099848D01*
X129854235Y-50096075D01*
X129858500Y-50010400D01*
X129858500Y-49321116D01*
X129856328Y-49291170D01*
X129854370Y-49264183D01*
X142174389Y-49264183D01*
X142175912Y-49272607D01*
X142188292Y-49276000D01*
X143237885Y-49276000D01*
X143253124Y-49271525D01*
X143254329Y-49270135D01*
X143256000Y-49262452D01*
X143256000Y-49257885D01*
X143764000Y-49257885D01*
X143768475Y-49273124D01*
X143769865Y-49274329D01*
X143777548Y-49276000D01*
X145777885Y-49276000D01*
X145793124Y-49271525D01*
X145794329Y-49270135D01*
X145796000Y-49262452D01*
X145796000Y-49257885D01*
X146304000Y-49257885D01*
X146308475Y-49273124D01*
X146309865Y-49274329D01*
X146317548Y-49276000D01*
X147368344Y-49276000D01*
X147381875Y-49272027D01*
X147383180Y-49262947D01*
X147341214Y-49095875D01*
X147337894Y-49086124D01*
X147252972Y-48890814D01*
X147248105Y-48881739D01*
X147132426Y-48702926D01*
X147126136Y-48694757D01*
X146982806Y-48537240D01*
X146975273Y-48530215D01*
X146808139Y-48398222D01*
X146799552Y-48392517D01*
X146762116Y-48371851D01*
X146712146Y-48321419D01*
X146697374Y-48251976D01*
X146722490Y-48185571D01*
X146749842Y-48158964D01*
X146925327Y-48033792D01*
X146933200Y-48027139D01*
X147084052Y-47876812D01*
X147090730Y-47868965D01*
X147215003Y-47696020D01*
X147220313Y-47687183D01*
X147314670Y-47496267D01*
X147318469Y-47486672D01*
X147380377Y-47282910D01*
X147380553Y-47282095D01*
X147865001Y-47282095D01*
X147865338Y-47288614D01*
X147875257Y-47384206D01*
X147878149Y-47397600D01*
X147929588Y-47551784D01*
X147935761Y-47564962D01*
X148021063Y-47702807D01*
X148030099Y-47714208D01*
X148144829Y-47828739D01*
X148156240Y-47837751D01*
X148294243Y-47922816D01*
X148307424Y-47928963D01*
X148461710Y-47980138D01*
X148475086Y-47983005D01*
X148569438Y-47992672D01*
X148575854Y-47993000D01*
X148825885Y-47993000D01*
X148841124Y-47988525D01*
X148842329Y-47987135D01*
X148844000Y-47979452D01*
X148844000Y-47974884D01*
X149352000Y-47974884D01*
X149356475Y-47990123D01*
X149357865Y-47991328D01*
X149365548Y-47992999D01*
X149620095Y-47992999D01*
X149626614Y-47992662D01*
X149722206Y-47982743D01*
X149735600Y-47979851D01*
X149889784Y-47928412D01*
X149902962Y-47922239D01*
X150040807Y-47836937D01*
X150052208Y-47827901D01*
X150166739Y-47713171D01*
X150175751Y-47701760D01*
X150260816Y-47563757D01*
X150266963Y-47550576D01*
X150318138Y-47396290D01*
X150321005Y-47382914D01*
X150330672Y-47288562D01*
X150331000Y-47282146D01*
X150331000Y-47257115D01*
X150326525Y-47241876D01*
X150325135Y-47240671D01*
X150317452Y-47239000D01*
X149370115Y-47239000D01*
X149354876Y-47243475D01*
X149353671Y-47244865D01*
X149352000Y-47252548D01*
X149352000Y-47974884D01*
X148844000Y-47974884D01*
X148844000Y-47257115D01*
X148839525Y-47241876D01*
X148838135Y-47240671D01*
X148830452Y-47239000D01*
X147883116Y-47239000D01*
X147867877Y-47243475D01*
X147866672Y-47244865D01*
X147865001Y-47252548D01*
X147865001Y-47282095D01*
X147380553Y-47282095D01*
X147382555Y-47272837D01*
X147383986Y-47261962D01*
X147381775Y-47247778D01*
X147368617Y-47244000D01*
X146322115Y-47244000D01*
X146306876Y-47248475D01*
X146305671Y-47249865D01*
X146304000Y-47257548D01*
X146304000Y-49257885D01*
X145796000Y-49257885D01*
X145796000Y-47262115D01*
X145791525Y-47246876D01*
X145790135Y-47245671D01*
X145782452Y-47244000D01*
X143782115Y-47244000D01*
X143766876Y-47248475D01*
X143765671Y-47249865D01*
X143764000Y-47257548D01*
X143764000Y-49257885D01*
X143256000Y-49257885D01*
X143256000Y-47262115D01*
X143251525Y-47246876D01*
X143250135Y-47245671D01*
X143242452Y-47244000D01*
X142193225Y-47244000D01*
X142179694Y-47247973D01*
X142178257Y-47257966D01*
X142208565Y-47392446D01*
X142211645Y-47402275D01*
X142291770Y-47599603D01*
X142296413Y-47608794D01*
X142407694Y-47790388D01*
X142413777Y-47798699D01*
X142553213Y-47959667D01*
X142560580Y-47966883D01*
X142724434Y-48102916D01*
X142732881Y-48108831D01*
X142802479Y-48149501D01*
X142851203Y-48201140D01*
X142864274Y-48270923D01*
X142837543Y-48336694D01*
X142797087Y-48370053D01*
X142788462Y-48374542D01*
X142779738Y-48380036D01*
X142609433Y-48507905D01*
X142601726Y-48514748D01*
X142454590Y-48668717D01*
X142448104Y-48676727D01*
X142328098Y-48852649D01*
X142323000Y-48861623D01*
X142233338Y-49054783D01*
X142229775Y-49064470D01*
X142174389Y-49264183D01*
X129854370Y-49264183D01*
X129844205Y-49124100D01*
X129843875Y-49119549D01*
X129838648Y-49095875D01*
X129786400Y-48859223D01*
X129786399Y-48859219D01*
X129785415Y-48854763D01*
X129689345Y-48601190D01*
X129576606Y-48398222D01*
X129559894Y-48368134D01*
X129559893Y-48368133D01*
X129557676Y-48364141D01*
X129433277Y-48201140D01*
X129395939Y-48152215D01*
X129395938Y-48152214D01*
X129393167Y-48148583D01*
X129199264Y-47959030D01*
X129157200Y-47928412D01*
X128983721Y-47802141D01*
X128980028Y-47799453D01*
X128740053Y-47673196D01*
X128735752Y-47671677D01*
X128735747Y-47671675D01*
X128557998Y-47608906D01*
X128484366Y-47582904D01*
X128386347Y-47563585D01*
X128222794Y-47531348D01*
X128222788Y-47531347D01*
X128218322Y-47530467D01*
X128213768Y-47530240D01*
X128213766Y-47530240D01*
X127952064Y-47517211D01*
X127952058Y-47517211D01*
X127947495Y-47516984D01*
X127677559Y-47542738D01*
X127673130Y-47543822D01*
X127673123Y-47543823D01*
X127543069Y-47575648D01*
X127414168Y-47607190D01*
X127409933Y-47608905D01*
X127409931Y-47608906D01*
X127194837Y-47696028D01*
X127162840Y-47708988D01*
X126966972Y-47823673D01*
X126959752Y-47827901D01*
X126928839Y-47846001D01*
X126790866Y-47956341D01*
X126745437Y-47992672D01*
X126717068Y-48015359D01*
X126713947Y-48018700D01*
X126589224Y-48152215D01*
X126531963Y-48213512D01*
X126377402Y-48436312D01*
X126375374Y-48440388D01*
X126375373Y-48440390D01*
X126261782Y-48668717D01*
X126256621Y-48679090D01*
X126172153Y-48936760D01*
X126171373Y-48941251D01*
X126171373Y-48941252D01*
X126144526Y-49095875D01*
X126125765Y-49203925D01*
X126121500Y-49289600D01*
X126121500Y-49978884D01*
X120258500Y-49978884D01*
X120258500Y-49321116D01*
X120256328Y-49291170D01*
X120244205Y-49124100D01*
X120243875Y-49119549D01*
X120238648Y-49095875D01*
X120186400Y-48859223D01*
X120186399Y-48859219D01*
X120185415Y-48854763D01*
X120089345Y-48601190D01*
X119976606Y-48398222D01*
X119959894Y-48368134D01*
X119959893Y-48368133D01*
X119957676Y-48364141D01*
X119833277Y-48201140D01*
X119795939Y-48152215D01*
X119795938Y-48152214D01*
X119793167Y-48148583D01*
X119599264Y-47959030D01*
X119557200Y-47928412D01*
X119383721Y-47802141D01*
X119380028Y-47799453D01*
X119140053Y-47673196D01*
X119135752Y-47671677D01*
X119135747Y-47671675D01*
X118957998Y-47608906D01*
X118884366Y-47582904D01*
X118786347Y-47563585D01*
X118622794Y-47531348D01*
X118622788Y-47531347D01*
X118618322Y-47530467D01*
X118613768Y-47530240D01*
X118613766Y-47530240D01*
X118352064Y-47517211D01*
X118352058Y-47517211D01*
X118347495Y-47516984D01*
X118077559Y-47542738D01*
X118073130Y-47543822D01*
X118073123Y-47543823D01*
X117943069Y-47575648D01*
X117814168Y-47607190D01*
X117809933Y-47608905D01*
X117809931Y-47608906D01*
X117594837Y-47696028D01*
X117562840Y-47708988D01*
X117366972Y-47823673D01*
X117359752Y-47827901D01*
X117328839Y-47846001D01*
X117190866Y-47956341D01*
X117145437Y-47992672D01*
X117117068Y-48015359D01*
X117113947Y-48018700D01*
X116989224Y-48152215D01*
X116931963Y-48213512D01*
X116777402Y-48436312D01*
X116775374Y-48440388D01*
X116775373Y-48440390D01*
X116661782Y-48668717D01*
X116656621Y-48679090D01*
X116572153Y-48936760D01*
X116571373Y-48941251D01*
X116571373Y-48941252D01*
X116544526Y-49095875D01*
X116525765Y-49203925D01*
X116521500Y-49289600D01*
X116521500Y-49978884D01*
X114808000Y-49978884D01*
X114808000Y-40689328D01*
X114809500Y-40669943D01*
X114811805Y-40655142D01*
X114811805Y-40655139D01*
X114813186Y-40646270D01*
X114811059Y-40630001D01*
X114810266Y-40605433D01*
X114824844Y-40383015D01*
X114826995Y-40366674D01*
X114875629Y-40122176D01*
X114879895Y-40106257D01*
X114960022Y-39870210D01*
X114966329Y-39854983D01*
X115076584Y-39631408D01*
X115084825Y-39617135D01*
X115223316Y-39409867D01*
X115233349Y-39396790D01*
X115397714Y-39209368D01*
X115409368Y-39197714D01*
X115596790Y-39033349D01*
X115609867Y-39023316D01*
X115817135Y-38884825D01*
X115831408Y-38876584D01*
X116054983Y-38766329D01*
X116070210Y-38760022D01*
X116306257Y-38679895D01*
X116322176Y-38675629D01*
X116566673Y-38626995D01*
X116583014Y-38624844D01*
X116798268Y-38610736D01*
X116821304Y-38611761D01*
X116824854Y-38611804D01*
X116833730Y-38613186D01*
X116865252Y-38609064D01*
X116881589Y-38608000D01*
X149810672Y-38608000D01*
X149830057Y-38609500D01*
G37*
G04 #@! TD.AperFunction*
M02*
