G04 #@! TF.GenerationSoftware,KiCad,Pcbnew,6.0.0-d3dd2cf0fa~116~ubuntu20.04.1*
G04 #@! TF.CreationDate,2022-01-02T10:52:25-05:00*
G04 #@! TF.ProjectId,basic_mixer,62617369-635f-46d6-9978-65722e6b6963,0*
G04 #@! TF.SameCoordinates,Original*
G04 #@! TF.FileFunction,Legend,Top*
G04 #@! TF.FilePolarity,Positive*
%FSLAX46Y46*%
G04 Gerber Fmt 4.6, Leading zero omitted, Abs format (unit mm)*
G04 Created by KiCad (PCBNEW 6.0.0-d3dd2cf0fa~116~ubuntu20.04.1) date 2022-01-02 10:52:25*
%MOMM*%
%LPD*%
G01*
G04 APERTURE LIST*
%ADD10C,0.150000*%
%ADD11C,0.120000*%
%ADD12C,1.800000*%
%ADD13O,2.720000X3.240000*%
%ADD14R,1.800000X1.800000*%
%ADD15R,1.700000X1.700000*%
%ADD16O,1.700000X1.700000*%
G04 APERTURE END LIST*
D10*
X148510666Y-115530380D02*
X148510666Y-116244666D01*
X148463047Y-116387523D01*
X148367809Y-116482761D01*
X148224952Y-116530380D01*
X148129714Y-116530380D01*
X148891619Y-115530380D02*
X149510666Y-115530380D01*
X149177333Y-115911333D01*
X149320190Y-115911333D01*
X149415428Y-115958952D01*
X149463047Y-116006571D01*
X149510666Y-116101809D01*
X149510666Y-116339904D01*
X149463047Y-116435142D01*
X149415428Y-116482761D01*
X149320190Y-116530380D01*
X149034476Y-116530380D01*
X148939238Y-116482761D01*
X148891619Y-116435142D01*
X137080666Y-133310380D02*
X137080666Y-134024666D01*
X137033047Y-134167523D01*
X136937809Y-134262761D01*
X136794952Y-134310380D01*
X136699714Y-134310380D01*
X137985428Y-133643714D02*
X137985428Y-134310380D01*
X137747333Y-133262761D02*
X137509238Y-133977047D01*
X138128285Y-133977047D01*
X132754761Y-64587380D02*
X132421428Y-64111190D01*
X132183333Y-64587380D02*
X132183333Y-63587380D01*
X132564285Y-63587380D01*
X132659523Y-63635000D01*
X132707142Y-63682619D01*
X132754761Y-63777857D01*
X132754761Y-63920714D01*
X132707142Y-64015952D01*
X132659523Y-64063571D01*
X132564285Y-64111190D01*
X132183333Y-64111190D01*
X133040476Y-63587380D02*
X133373809Y-64587380D01*
X133707142Y-63587380D01*
X133992857Y-63682619D02*
X134040476Y-63635000D01*
X134135714Y-63587380D01*
X134373809Y-63587380D01*
X134469047Y-63635000D01*
X134516666Y-63682619D01*
X134564285Y-63777857D01*
X134564285Y-63873095D01*
X134516666Y-64015952D01*
X133945238Y-64587380D01*
X134564285Y-64587380D01*
X125650666Y-115530380D02*
X125650666Y-116244666D01*
X125603047Y-116387523D01*
X125507809Y-116482761D01*
X125364952Y-116530380D01*
X125269714Y-116530380D01*
X126650666Y-116530380D02*
X126079238Y-116530380D01*
X126364952Y-116530380D02*
X126364952Y-115530380D01*
X126269714Y-115673238D01*
X126174476Y-115768476D01*
X126079238Y-115816095D01*
X137080666Y-115530380D02*
X137080666Y-116244666D01*
X137033047Y-116387523D01*
X136937809Y-116482761D01*
X136794952Y-116530380D01*
X136699714Y-116530380D01*
X137509238Y-115625619D02*
X137556857Y-115578000D01*
X137652095Y-115530380D01*
X137890190Y-115530380D01*
X137985428Y-115578000D01*
X138033047Y-115625619D01*
X138080666Y-115720857D01*
X138080666Y-115816095D01*
X138033047Y-115958952D01*
X137461619Y-116530380D01*
X138080666Y-116530380D01*
X142914761Y-84780380D02*
X142581428Y-84304190D01*
X142343333Y-84780380D02*
X142343333Y-83780380D01*
X142724285Y-83780380D01*
X142819523Y-83828000D01*
X142867142Y-83875619D01*
X142914761Y-83970857D01*
X142914761Y-84113714D01*
X142867142Y-84208952D01*
X142819523Y-84256571D01*
X142724285Y-84304190D01*
X142343333Y-84304190D01*
X143200476Y-83780380D02*
X143533809Y-84780380D01*
X143867142Y-83780380D01*
X144105238Y-83780380D02*
X144724285Y-83780380D01*
X144390952Y-84161333D01*
X144533809Y-84161333D01*
X144629047Y-84208952D01*
X144676666Y-84256571D01*
X144724285Y-84351809D01*
X144724285Y-84589904D01*
X144676666Y-84685142D01*
X144629047Y-84732761D01*
X144533809Y-84780380D01*
X144248095Y-84780380D01*
X144152857Y-84732761D01*
X144105238Y-84685142D01*
X148510666Y-133310380D02*
X148510666Y-134024666D01*
X148463047Y-134167523D01*
X148367809Y-134262761D01*
X148224952Y-134310380D01*
X148129714Y-134310380D01*
X149463047Y-133310380D02*
X148986857Y-133310380D01*
X148939238Y-133786571D01*
X148986857Y-133738952D01*
X149082095Y-133691333D01*
X149320190Y-133691333D01*
X149415428Y-133738952D01*
X149463047Y-133786571D01*
X149510666Y-133881809D01*
X149510666Y-134119904D01*
X149463047Y-134215142D01*
X149415428Y-134262761D01*
X149320190Y-134310380D01*
X149082095Y-134310380D01*
X148986857Y-134262761D01*
X148939238Y-134215142D01*
X122594761Y-44267380D02*
X122261428Y-43791190D01*
X122023333Y-44267380D02*
X122023333Y-43267380D01*
X122404285Y-43267380D01*
X122499523Y-43315000D01*
X122547142Y-43362619D01*
X122594761Y-43457857D01*
X122594761Y-43600714D01*
X122547142Y-43695952D01*
X122499523Y-43743571D01*
X122404285Y-43791190D01*
X122023333Y-43791190D01*
X122880476Y-43267380D02*
X123213809Y-44267380D01*
X123547142Y-43267380D01*
X124404285Y-44267380D02*
X123832857Y-44267380D01*
X124118571Y-44267380D02*
X124118571Y-43267380D01*
X124023333Y-43410238D01*
X123928095Y-43505476D01*
X123832857Y-43553095D01*
X140280000Y-115190000D02*
X149280000Y-115190000D01*
X140280000Y-104290000D02*
X140280000Y-115190000D01*
X149280000Y-104290000D02*
X149280000Y-115190000D01*
X144780000Y-108690000D02*
X144780000Y-112290000D01*
X142980000Y-110490000D02*
X146580000Y-110490000D01*
X140280000Y-104290000D02*
X149280000Y-104290000D01*
X146580000Y-110490000D02*
G75*
G03*
X146580000Y-110490000I-1800000J0D01*
G01*
X128850000Y-122070000D02*
X137850000Y-122070000D01*
X128850000Y-122070000D02*
X128850000Y-132970000D01*
X131550000Y-128270000D02*
X135150000Y-128270000D01*
X133350000Y-126470000D02*
X133350000Y-130070000D01*
X128850000Y-132970000D02*
X137850000Y-132970000D01*
X137850000Y-122070000D02*
X137850000Y-132970000D01*
X135150000Y-128270000D02*
G75*
G03*
X135150000Y-128270000I-1800000J0D01*
G01*
D11*
X138220000Y-76590000D02*
X136730000Y-76590000D01*
X138220000Y-76590000D02*
X138220000Y-71870000D01*
X129660000Y-76590000D02*
X128480000Y-76590000D01*
X138220000Y-68060000D02*
X138220000Y-65000000D01*
X128480000Y-68060000D02*
X128480000Y-65000000D01*
X132560000Y-76590000D02*
X132030000Y-76590000D01*
X128470000Y-76590000D02*
X128470000Y-71870000D01*
X138220000Y-65000000D02*
X128480000Y-65000000D01*
X135010000Y-76590000D02*
X134180000Y-76590000D01*
D10*
X117420000Y-104290000D02*
X126420000Y-104290000D01*
X117420000Y-115190000D02*
X126420000Y-115190000D01*
X126420000Y-104290000D02*
X126420000Y-115190000D01*
X121920000Y-108690000D02*
X121920000Y-112290000D01*
X120120000Y-110490000D02*
X123720000Y-110490000D01*
X117420000Y-104290000D02*
X117420000Y-115190000D01*
X123720000Y-110490000D02*
G75*
G03*
X123720000Y-110490000I-1800000J0D01*
G01*
X128850000Y-104290000D02*
X137850000Y-104290000D01*
X128850000Y-104290000D02*
X128850000Y-115190000D01*
X133350000Y-108690000D02*
X133350000Y-112290000D01*
X131550000Y-110490000D02*
X135150000Y-110490000D01*
X137850000Y-104290000D02*
X137850000Y-115190000D01*
X128850000Y-115190000D02*
X137850000Y-115190000D01*
X135150000Y-110490000D02*
G75*
G03*
X135150000Y-110490000I-1800000J0D01*
G01*
D11*
X139820000Y-96910000D02*
X138640000Y-96910000D01*
X148380000Y-88380000D02*
X148380000Y-85320000D01*
X148380000Y-96910000D02*
X146890000Y-96910000D01*
X145170000Y-96910000D02*
X144340000Y-96910000D01*
X142720000Y-96910000D02*
X142190000Y-96910000D01*
X148380000Y-85320000D02*
X138640000Y-85320000D01*
X138630000Y-96910000D02*
X138630000Y-92190000D01*
X148380000Y-96910000D02*
X148380000Y-92190000D01*
X138640000Y-88380000D02*
X138640000Y-85320000D01*
D10*
X142980000Y-128270000D02*
X146580000Y-128270000D01*
X144780000Y-126470000D02*
X144780000Y-130070000D01*
X140280000Y-132970000D02*
X149280000Y-132970000D01*
X149280000Y-122070000D02*
X149280000Y-132970000D01*
X140280000Y-122070000D02*
X140280000Y-132970000D01*
X140280000Y-122070000D02*
X149280000Y-122070000D01*
X146580000Y-128270000D02*
G75*
G03*
X146580000Y-128270000I-1800000J0D01*
G01*
D11*
X128060000Y-56270000D02*
X126570000Y-56270000D01*
X118320000Y-47740000D02*
X118320000Y-44680000D01*
X118310000Y-56270000D02*
X118310000Y-51550000D01*
X119500000Y-56270000D02*
X118320000Y-56270000D01*
X124850000Y-56270000D02*
X124020000Y-56270000D01*
X128060000Y-44680000D02*
X118320000Y-44680000D01*
X128060000Y-56270000D02*
X128060000Y-51550000D01*
X122400000Y-56270000D02*
X121870000Y-56270000D01*
X128060000Y-47740000D02*
X128060000Y-44680000D01*
D12*
X144780000Y-116970000D03*
X144780000Y-113870000D03*
X144780000Y-105570000D03*
X133350000Y-134750000D03*
X133350000Y-131650000D03*
X133350000Y-123350000D03*
X121920000Y-116970000D03*
X121920000Y-113870000D03*
X121920000Y-105570000D03*
X133350000Y-116970000D03*
X133350000Y-113870000D03*
X133350000Y-105570000D03*
X144780000Y-134750000D03*
X144780000Y-131650000D03*
X144780000Y-123350000D03*
%LPC*%
X144780000Y-116970000D03*
X144780000Y-113870000D03*
X144780000Y-105570000D03*
X133350000Y-134750000D03*
X133350000Y-131650000D03*
X133350000Y-123350000D03*
D13*
X128550000Y-69970000D03*
X138150000Y-69970000D03*
D14*
X130850000Y-77470000D03*
D12*
X133350000Y-77470000D03*
X135850000Y-77470000D03*
X121920000Y-116970000D03*
X121920000Y-113870000D03*
X121920000Y-105570000D03*
X133350000Y-116970000D03*
X133350000Y-113870000D03*
X133350000Y-105570000D03*
D13*
X148310000Y-90290000D03*
X138710000Y-90290000D03*
D14*
X141010000Y-97790000D03*
D12*
X143510000Y-97790000D03*
X146010000Y-97790000D03*
X144780000Y-134750000D03*
X144780000Y-131650000D03*
X144780000Y-123350000D03*
D13*
X118390000Y-49650000D03*
X127990000Y-49650000D03*
D14*
X120690000Y-57150000D03*
D12*
X123190000Y-57150000D03*
X125690000Y-57150000D03*
D15*
X146050000Y-44450000D03*
D16*
X143510000Y-44450000D03*
X146050000Y-46990000D03*
X143510000Y-46990000D03*
X146050000Y-49530000D03*
X143510000Y-49530000D03*
X146050000Y-52070000D03*
X143510000Y-52070000D03*
X146050000Y-54610000D03*
X143510000Y-54610000D03*
M02*
