M48
; DRILL file {KiCad 6.0.0-d3dd2cf0fa~116~ubuntu20.04.1} date Sun 02 Jan 2022 10:52:35 AM EST
; FORMAT={-:-/ absolute / metric / decimal}
; #@! TF.CreationDate,2022-01-02T10:52:35-05:00
; #@! TF.GenerationSoftware,Kicad,Pcbnew,6.0.0-d3dd2cf0fa~116~ubuntu20.04.1
; #@! TF.FileFunction,Plated,1,2,PTH
FMAT,2
METRIC
; #@! TA.AperFunction,Plated,PTH,ViaDrill
T1C0.500
; #@! TA.AperFunction,Plated,PTH,ComponentDrill
T2C1.000
; #@! TA.AperFunction,Plated,PTH,ComponentDrill
T3C1.100
; #@! TA.AperFunction,Plated,PTH,ComponentDrill
T4C1.600
%
G90
G05
T1
X121.35Y-87.5
X125.73Y-85.344
X126.975Y-98.8
X128.143Y-94.361
X130.048Y-85.344
X130.048Y-94.742
X137.25Y-81.75
X145.034Y-73.279
X146.614Y-69.789
X148.082Y-73.533
T2
X120.69Y-57.15
X123.19Y-57.15
X125.69Y-57.15
X130.85Y-77.47
X133.35Y-77.47
X135.85Y-77.47
X141.01Y-97.79
X143.51Y-44.45
X143.51Y-46.99
X143.51Y-49.53
X143.51Y-52.07
X143.51Y-54.61
X143.51Y-97.79
X146.01Y-97.79
X146.05Y-44.45
X146.05Y-46.99
X146.05Y-49.53
X146.05Y-52.07
X146.05Y-54.61
T4
X121.92Y-105.57
X121.92Y-113.87
X121.92Y-116.97
X133.35Y-105.57
X133.35Y-113.87
X133.35Y-116.97
X133.35Y-123.35
X133.35Y-131.65
X133.35Y-134.75
X144.78Y-105.57
X144.78Y-113.87
X144.78Y-116.97
X144.78Y-123.35
X144.78Y-131.65
X144.78Y-134.75
T3
X118.39Y-50.0G85X118.39Y-49.3
G05
X127.99Y-50.0G85X127.99Y-49.3
G05
X128.55Y-70.32G85X128.55Y-69.62
G05
X138.15Y-70.32G85X138.15Y-69.62
G05
X138.71Y-90.64G85X138.71Y-89.94
G05
X148.31Y-90.64G85X148.31Y-89.94
G05
T0
M30
