G04 #@! TF.GenerationSoftware,KiCad,Pcbnew,6.0.0-d3dd2cf0fa~116~ubuntu20.04.1*
G04 #@! TF.CreationDate,2022-01-02T10:52:25-05:00*
G04 #@! TF.ProjectId,basic_mixer,62617369-635f-46d6-9978-65722e6b6963,0*
G04 #@! TF.SameCoordinates,Original*
G04 #@! TF.FileFunction,Soldermask,Bot*
G04 #@! TF.FilePolarity,Negative*
%FSLAX46Y46*%
G04 Gerber Fmt 4.6, Leading zero omitted, Abs format (unit mm)*
G04 Created by KiCad (PCBNEW 6.0.0-d3dd2cf0fa~116~ubuntu20.04.1) date 2022-01-02 10:52:25*
%MOMM*%
%LPD*%
G01*
G04 APERTURE LIST*
G04 Aperture macros list*
%AMRoundRect*
0 Rectangle with rounded corners*
0 $1 Rounding radius*
0 $2 $3 $4 $5 $6 $7 $8 $9 X,Y pos of 4 corners*
0 Add a 4 corners polygon primitive as box body*
4,1,4,$2,$3,$4,$5,$6,$7,$8,$9,$2,$3,0*
0 Add four circle primitives for the rounded corners*
1,1,$1+$1,$2,$3*
1,1,$1+$1,$4,$5*
1,1,$1+$1,$6,$7*
1,1,$1+$1,$8,$9*
0 Add four rect primitives between the rounded corners*
20,1,$1+$1,$2,$3,$4,$5,0*
20,1,$1+$1,$4,$5,$6,$7,0*
20,1,$1+$1,$6,$7,$8,$9,0*
20,1,$1+$1,$8,$9,$2,$3,0*%
G04 Aperture macros list end*
%ADD10C,1.800000*%
%ADD11O,2.720000X3.240000*%
%ADD12R,1.800000X1.800000*%
%ADD13RoundRect,0.250000X-0.475000X0.250000X-0.475000X-0.250000X0.475000X-0.250000X0.475000X0.250000X0*%
%ADD14RoundRect,0.250000X0.475000X-0.250000X0.475000X0.250000X-0.475000X0.250000X-0.475000X-0.250000X0*%
%ADD15RoundRect,0.250000X0.450000X-0.262500X0.450000X0.262500X-0.450000X0.262500X-0.450000X-0.262500X0*%
%ADD16RoundRect,0.250000X-0.450000X0.262500X-0.450000X-0.262500X0.450000X-0.262500X0.450000X0.262500X0*%
%ADD17RoundRect,0.150000X-0.150000X0.825000X-0.150000X-0.825000X0.150000X-0.825000X0.150000X0.825000X0*%
%ADD18R,1.700000X1.700000*%
%ADD19O,1.700000X1.700000*%
%ADD20RoundRect,0.150000X0.587500X0.150000X-0.587500X0.150000X-0.587500X-0.150000X0.587500X-0.150000X0*%
G04 APERTURE END LIST*
D10*
X144780000Y-116970000D03*
X144780000Y-113870000D03*
X144780000Y-105570000D03*
X133350000Y-134750000D03*
X133350000Y-131650000D03*
X133350000Y-123350000D03*
D11*
X128550000Y-69970000D03*
X138150000Y-69970000D03*
D12*
X130850000Y-77470000D03*
D10*
X133350000Y-77470000D03*
X135850000Y-77470000D03*
X121920000Y-116970000D03*
X121920000Y-113870000D03*
X121920000Y-105570000D03*
X133350000Y-116970000D03*
X133350000Y-113870000D03*
X133350000Y-105570000D03*
D11*
X148310000Y-90290000D03*
X138710000Y-90290000D03*
D12*
X141010000Y-97790000D03*
D10*
X143510000Y-97790000D03*
X146010000Y-97790000D03*
X144780000Y-134750000D03*
X144780000Y-131650000D03*
X144780000Y-123350000D03*
D11*
X118390000Y-49650000D03*
X127990000Y-49650000D03*
D12*
X120690000Y-57150000D03*
D10*
X123190000Y-57150000D03*
X125690000Y-57150000D03*
D13*
X130048000Y-90998000D03*
X130048000Y-92898000D03*
D14*
X120777000Y-83632000D03*
X120777000Y-81732000D03*
D15*
X128397000Y-98157000D03*
X128397000Y-96332000D03*
D13*
X130048000Y-87061000D03*
X130048000Y-88961000D03*
D16*
X141732000Y-121492000D03*
X141732000Y-123317000D03*
D13*
X149098000Y-69751500D03*
X149098000Y-71651500D03*
D15*
X124587000Y-83632000D03*
X124587000Y-81807000D03*
D17*
X122682000Y-87507000D03*
X123952000Y-87507000D03*
X125222000Y-87507000D03*
X126492000Y-87507000D03*
X126492000Y-92457000D03*
X125222000Y-92457000D03*
X123952000Y-92457000D03*
X122682000Y-92457000D03*
D16*
X128397000Y-81807000D03*
X128397000Y-83632000D03*
D18*
X146050000Y-44450000D03*
D19*
X143510000Y-44450000D03*
X146050000Y-46990000D03*
X143510000Y-46990000D03*
X146050000Y-49530000D03*
X143510000Y-49530000D03*
X146050000Y-52070000D03*
X143510000Y-52070000D03*
X146050000Y-54610000D03*
X143510000Y-54610000D03*
D13*
X120777000Y-96332000D03*
X120777000Y-98232000D03*
D16*
X124587000Y-96332000D03*
X124587000Y-98157000D03*
X149098000Y-64770000D03*
X149098000Y-66595000D03*
D20*
X145131000Y-69789000D03*
X145131000Y-71689000D03*
X143256000Y-70739000D03*
D13*
X149098000Y-52075000D03*
X149098000Y-53975000D03*
D16*
X130429000Y-121492000D03*
X130429000Y-123317000D03*
X132207000Y-81807000D03*
X132207000Y-83632000D03*
D13*
X149098000Y-45085000D03*
X149098000Y-46985000D03*
D16*
X136017000Y-81807000D03*
X136017000Y-83632000D03*
M02*
