%FSLAX45Y45*%
G04 Gerber Fmt 4.5, Leading zero omitted, Abs format (unit mm)*
G04 Created by KiCad (PCBNEW 6.0.0-d3dd2cf0fa~116~ubuntu20.04.1) date 2022-01-02 10:52:36*
%MOMM*%
%LPD*%
G01*
G04 APERTURE LIST*
%TA.AperFunction,Profile*%
%ADD10C,0.100000*%
%TD*%
%ADD11C,0.200000*%
G04 APERTURE END LIST*
D10*
X15240000Y-13462000D02*
X15240000Y-4064000D01*
X14986000Y-13716000D02*
G75*
G03*
X15240000Y-13462000I0J254000D01*
G01*
X11430000Y-4064000D02*
X11430000Y-13462000D01*
X11684000Y-13716000D02*
X14986000Y-13716000D01*
X15240000Y-4064000D02*
G75*
G03*
X14986000Y-3810000I-254000J0D01*
G01*
X11430000Y-13462000D02*
G75*
G03*
X11684000Y-13716000I254000J0D01*
G01*
X14986000Y-3810000D02*
X11684000Y-3810000D01*
X11684000Y-3810000D02*
G75*
G03*
X11430000Y-4064000I0J-254000D01*
G01*
D11*
X11682619Y-14031476D02*
X11682619Y-13831476D01*
X11730238Y-13831476D01*
X11758809Y-13841000D01*
X11777857Y-13860048D01*
X11787381Y-13879095D01*
X11796905Y-13917190D01*
X11796905Y-13945762D01*
X11787381Y-13983857D01*
X11777857Y-14002905D01*
X11758809Y-14021952D01*
X11730238Y-14031476D01*
X11682619Y-14031476D01*
X11882619Y-14031476D02*
X11882619Y-13898143D01*
X11882619Y-13936238D02*
X11892143Y-13917190D01*
X11901667Y-13907667D01*
X11920714Y-13898143D01*
X11939762Y-13898143D01*
X12006428Y-14031476D02*
X12006428Y-13898143D01*
X12006428Y-13831476D02*
X11996905Y-13841000D01*
X12006428Y-13850524D01*
X12015952Y-13841000D01*
X12006428Y-13831476D01*
X12006428Y-13850524D01*
X12130238Y-14031476D02*
X12111190Y-14021952D01*
X12101667Y-14002905D01*
X12101667Y-13831476D01*
X12235000Y-14031476D02*
X12215952Y-14021952D01*
X12206428Y-14002905D01*
X12206428Y-13831476D01*
X12463571Y-14031476D02*
X12463571Y-13831476D01*
X12530238Y-13974333D01*
X12596905Y-13831476D01*
X12596905Y-14031476D01*
X12777857Y-14031476D02*
X12777857Y-13926714D01*
X12768333Y-13907667D01*
X12749286Y-13898143D01*
X12711190Y-13898143D01*
X12692143Y-13907667D01*
X12777857Y-14021952D02*
X12758809Y-14031476D01*
X12711190Y-14031476D01*
X12692143Y-14021952D01*
X12682619Y-14002905D01*
X12682619Y-13983857D01*
X12692143Y-13964809D01*
X12711190Y-13955286D01*
X12758809Y-13955286D01*
X12777857Y-13945762D01*
X12873095Y-13898143D02*
X12873095Y-14098143D01*
X12873095Y-13907667D02*
X12892143Y-13898143D01*
X12930238Y-13898143D01*
X12949286Y-13907667D01*
X12958809Y-13917190D01*
X12968333Y-13936238D01*
X12968333Y-13993381D01*
X12958809Y-14012428D01*
X12949286Y-14021952D01*
X12930238Y-14031476D01*
X12892143Y-14031476D01*
X12873095Y-14021952D01*
X13054048Y-14012428D02*
X13063571Y-14021952D01*
X13054048Y-14031476D01*
X13044524Y-14021952D01*
X13054048Y-14012428D01*
X13054048Y-14031476D01*
X13054048Y-13907667D02*
X13063571Y-13917190D01*
X13054048Y-13926714D01*
X13044524Y-13917190D01*
X13054048Y-13907667D01*
X13054048Y-13926714D01*
M02*
