G04 #@! TF.GenerationSoftware,KiCad,Pcbnew,6.0.0-d3dd2cf0fa~116~ubuntu20.04.1*
G04 #@! TF.CreationDate,2022-01-02T10:52:25-05:00*
G04 #@! TF.ProjectId,basic_mixer,62617369-635f-46d6-9978-65722e6b6963,0*
G04 #@! TF.SameCoordinates,Original*
G04 #@! TF.FileFunction,Legend,Bot*
G04 #@! TF.FilePolarity,Positive*
%FSLAX46Y46*%
G04 Gerber Fmt 4.6, Leading zero omitted, Abs format (unit mm)*
G04 Created by KiCad (PCBNEW 6.0.0-d3dd2cf0fa~116~ubuntu20.04.1) date 2022-01-02 10:52:25*
%MOMM*%
%LPD*%
G01*
G04 APERTURE LIST*
G04 Aperture macros list*
%AMRoundRect*
0 Rectangle with rounded corners*
0 $1 Rounding radius*
0 $2 $3 $4 $5 $6 $7 $8 $9 X,Y pos of 4 corners*
0 Add a 4 corners polygon primitive as box body*
4,1,4,$2,$3,$4,$5,$6,$7,$8,$9,$2,$3,0*
0 Add four circle primitives for the rounded corners*
1,1,$1+$1,$2,$3*
1,1,$1+$1,$4,$5*
1,1,$1+$1,$6,$7*
1,1,$1+$1,$8,$9*
0 Add four rect primitives between the rounded corners*
20,1,$1+$1,$2,$3,$4,$5,0*
20,1,$1+$1,$4,$5,$6,$7,0*
20,1,$1+$1,$6,$7,$8,$9,0*
20,1,$1+$1,$8,$9,$2,$3,0*%
G04 Aperture macros list end*
%ADD10C,0.150000*%
%ADD11C,0.200000*%
%ADD12C,0.120000*%
%ADD13C,1.800000*%
%ADD14O,2.720000X3.240000*%
%ADD15R,1.800000X1.800000*%
%ADD16RoundRect,0.250000X-0.475000X0.250000X-0.475000X-0.250000X0.475000X-0.250000X0.475000X0.250000X0*%
%ADD17RoundRect,0.250000X0.475000X-0.250000X0.475000X0.250000X-0.475000X0.250000X-0.475000X-0.250000X0*%
%ADD18RoundRect,0.250000X0.450000X-0.262500X0.450000X0.262500X-0.450000X0.262500X-0.450000X-0.262500X0*%
%ADD19RoundRect,0.250000X-0.450000X0.262500X-0.450000X-0.262500X0.450000X-0.262500X0.450000X0.262500X0*%
%ADD20RoundRect,0.150000X-0.150000X0.825000X-0.150000X-0.825000X0.150000X-0.825000X0.150000X0.825000X0*%
%ADD21R,1.700000X1.700000*%
%ADD22O,1.700000X1.700000*%
%ADD23RoundRect,0.150000X0.587500X0.150000X-0.587500X0.150000X-0.587500X-0.150000X0.587500X-0.150000X0*%
G04 APERTURE END LIST*
D10*
X141269404Y-54681428D02*
X140507500Y-54681428D01*
X139507500Y-55062380D02*
X140078928Y-55062380D01*
X139793214Y-55062380D02*
X139793214Y-54062380D01*
X139888452Y-54205238D01*
X139983690Y-54300476D01*
X140078928Y-54348095D01*
X139126547Y-54157619D02*
X139078928Y-54110000D01*
X138983690Y-54062380D01*
X138745595Y-54062380D01*
X138650357Y-54110000D01*
X138602738Y-54157619D01*
X138555119Y-54252857D01*
X138555119Y-54348095D01*
X138602738Y-54490952D01*
X139174166Y-55062380D01*
X138555119Y-55062380D01*
X138221785Y-54395714D02*
X137983690Y-55062380D01*
X137745595Y-54395714D01*
X140840833Y-51855714D02*
X140840833Y-52665238D01*
X140888452Y-52760476D01*
X140936071Y-52808095D01*
X141031309Y-52855714D01*
X141174166Y-52855714D01*
X141269404Y-52808095D01*
X140840833Y-52474761D02*
X140936071Y-52522380D01*
X141126547Y-52522380D01*
X141221785Y-52474761D01*
X141269404Y-52427142D01*
X141317023Y-52331904D01*
X141317023Y-52046190D01*
X141269404Y-51950952D01*
X141221785Y-51903333D01*
X141126547Y-51855714D01*
X140936071Y-51855714D01*
X140840833Y-51903333D01*
X140364642Y-51855714D02*
X140364642Y-52522380D01*
X140364642Y-51950952D02*
X140317023Y-51903333D01*
X140221785Y-51855714D01*
X140078928Y-51855714D01*
X139983690Y-51903333D01*
X139936071Y-51998571D01*
X139936071Y-52522380D01*
X139031309Y-52522380D02*
X139031309Y-51522380D01*
X139031309Y-52474761D02*
X139126547Y-52522380D01*
X139317023Y-52522380D01*
X139412261Y-52474761D01*
X139459880Y-52427142D01*
X139507500Y-52331904D01*
X139507500Y-52046190D01*
X139459880Y-51950952D01*
X139412261Y-51903333D01*
X139317023Y-51855714D01*
X139126547Y-51855714D01*
X139031309Y-51903333D01*
X140840833Y-49315714D02*
X140840833Y-50125238D01*
X140888452Y-50220476D01*
X140936071Y-50268095D01*
X141031309Y-50315714D01*
X141174166Y-50315714D01*
X141269404Y-50268095D01*
X140840833Y-49934761D02*
X140936071Y-49982380D01*
X141126547Y-49982380D01*
X141221785Y-49934761D01*
X141269404Y-49887142D01*
X141317023Y-49791904D01*
X141317023Y-49506190D01*
X141269404Y-49410952D01*
X141221785Y-49363333D01*
X141126547Y-49315714D01*
X140936071Y-49315714D01*
X140840833Y-49363333D01*
X140364642Y-49315714D02*
X140364642Y-49982380D01*
X140364642Y-49410952D02*
X140317023Y-49363333D01*
X140221785Y-49315714D01*
X140078928Y-49315714D01*
X139983690Y-49363333D01*
X139936071Y-49458571D01*
X139936071Y-49982380D01*
X139031309Y-49982380D02*
X139031309Y-48982380D01*
X139031309Y-49934761D02*
X139126547Y-49982380D01*
X139317023Y-49982380D01*
X139412261Y-49934761D01*
X139459880Y-49887142D01*
X139507500Y-49791904D01*
X139507500Y-49506190D01*
X139459880Y-49410952D01*
X139412261Y-49363333D01*
X139317023Y-49315714D01*
X139126547Y-49315714D01*
X139031309Y-49363333D01*
X140840833Y-46775714D02*
X140840833Y-47585238D01*
X140888452Y-47680476D01*
X140936071Y-47728095D01*
X141031309Y-47775714D01*
X141174166Y-47775714D01*
X141269404Y-47728095D01*
X140840833Y-47394761D02*
X140936071Y-47442380D01*
X141126547Y-47442380D01*
X141221785Y-47394761D01*
X141269404Y-47347142D01*
X141317023Y-47251904D01*
X141317023Y-46966190D01*
X141269404Y-46870952D01*
X141221785Y-46823333D01*
X141126547Y-46775714D01*
X140936071Y-46775714D01*
X140840833Y-46823333D01*
X140364642Y-46775714D02*
X140364642Y-47442380D01*
X140364642Y-46870952D02*
X140317023Y-46823333D01*
X140221785Y-46775714D01*
X140078928Y-46775714D01*
X139983690Y-46823333D01*
X139936071Y-46918571D01*
X139936071Y-47442380D01*
X139031309Y-47442380D02*
X139031309Y-46442380D01*
X139031309Y-47394761D02*
X139126547Y-47442380D01*
X139317023Y-47442380D01*
X139412261Y-47394761D01*
X139459880Y-47347142D01*
X139507500Y-47251904D01*
X139507500Y-46966190D01*
X139459880Y-46870952D01*
X139412261Y-46823333D01*
X139317023Y-46775714D01*
X139126547Y-46775714D01*
X139031309Y-46823333D01*
X141269404Y-44521428D02*
X140507500Y-44521428D01*
X140888452Y-44902380D02*
X140888452Y-44140476D01*
X139507500Y-44902380D02*
X140078928Y-44902380D01*
X139793214Y-44902380D02*
X139793214Y-43902380D01*
X139888452Y-44045238D01*
X139983690Y-44140476D01*
X140078928Y-44188095D01*
X139126547Y-43997619D02*
X139078928Y-43950000D01*
X138983690Y-43902380D01*
X138745595Y-43902380D01*
X138650357Y-43950000D01*
X138602738Y-43997619D01*
X138555119Y-44092857D01*
X138555119Y-44188095D01*
X138602738Y-44330952D01*
X139174166Y-44902380D01*
X138555119Y-44902380D01*
X138221785Y-44235714D02*
X137983690Y-44902380D01*
X137745595Y-44235714D01*
D11*
X130343428Y-40366666D02*
X131395809Y-40366666D01*
X131519619Y-40304761D01*
X131581523Y-40242857D01*
X131643428Y-40119047D01*
X131643428Y-39933333D01*
X131581523Y-39809523D01*
X131148190Y-40366666D02*
X131210095Y-40242857D01*
X131210095Y-39995238D01*
X131148190Y-39871428D01*
X131086285Y-39809523D01*
X130962476Y-39747619D01*
X130591047Y-39747619D01*
X130467238Y-39809523D01*
X130405333Y-39871428D01*
X130343428Y-39995238D01*
X130343428Y-40242857D01*
X130405333Y-40366666D01*
X131210095Y-40985714D02*
X130343428Y-40985714D01*
X129910095Y-40985714D02*
X129972000Y-40923809D01*
X130033904Y-40985714D01*
X129972000Y-41047619D01*
X129910095Y-40985714D01*
X130033904Y-40985714D01*
X130343428Y-41419047D02*
X130343428Y-41914285D01*
X129910095Y-41604761D02*
X131024380Y-41604761D01*
X131148190Y-41666666D01*
X131210095Y-41790476D01*
X131210095Y-41914285D01*
X131210095Y-42347619D02*
X129910095Y-42347619D01*
X131210095Y-42904761D02*
X130529142Y-42904761D01*
X130405333Y-42842857D01*
X130343428Y-42719047D01*
X130343428Y-42533333D01*
X130405333Y-42409523D01*
X130467238Y-42347619D01*
X130343428Y-44080952D02*
X131210095Y-44080952D01*
X130343428Y-43523809D02*
X131024380Y-43523809D01*
X131148190Y-43585714D01*
X131210095Y-43709523D01*
X131210095Y-43895238D01*
X131148190Y-44019047D01*
X131086285Y-44080952D01*
X131210095Y-44700000D02*
X129910095Y-44700000D01*
X130405333Y-44700000D02*
X130343428Y-44823809D01*
X130343428Y-45071428D01*
X130405333Y-45195238D01*
X130467238Y-45257142D01*
X130591047Y-45319047D01*
X130962476Y-45319047D01*
X131086285Y-45257142D01*
X131148190Y-45195238D01*
X131210095Y-45071428D01*
X131210095Y-44823809D01*
X131148190Y-44700000D01*
X131086285Y-45876190D02*
X131148190Y-45938095D01*
X131210095Y-45876190D01*
X131148190Y-45814285D01*
X131086285Y-45876190D01*
X131210095Y-45876190D01*
X131148190Y-47052380D02*
X131210095Y-46928571D01*
X131210095Y-46680952D01*
X131148190Y-46557142D01*
X131086285Y-46495238D01*
X130962476Y-46433333D01*
X130591047Y-46433333D01*
X130467238Y-46495238D01*
X130405333Y-46557142D01*
X130343428Y-46680952D01*
X130343428Y-46928571D01*
X130405333Y-47052380D01*
X131210095Y-47795238D02*
X131148190Y-47671428D01*
X131086285Y-47609523D01*
X130962476Y-47547619D01*
X130591047Y-47547619D01*
X130467238Y-47609523D01*
X130405333Y-47671428D01*
X130343428Y-47795238D01*
X130343428Y-47980952D01*
X130405333Y-48104761D01*
X130467238Y-48166666D01*
X130591047Y-48228571D01*
X130962476Y-48228571D01*
X131086285Y-48166666D01*
X131148190Y-48104761D01*
X131210095Y-47980952D01*
X131210095Y-47795238D01*
X131210095Y-48785714D02*
X130343428Y-48785714D01*
X130467238Y-48785714D02*
X130405333Y-48847619D01*
X130343428Y-48971428D01*
X130343428Y-49157142D01*
X130405333Y-49280952D01*
X130529142Y-49342857D01*
X131210095Y-49342857D01*
X130529142Y-49342857D02*
X130405333Y-49404761D01*
X130343428Y-49528571D01*
X130343428Y-49714285D01*
X130405333Y-49838095D01*
X130529142Y-49900000D01*
X131210095Y-49900000D01*
X129848190Y-51447619D02*
X131519619Y-50333333D01*
X129910095Y-52252380D02*
X130838666Y-52252380D01*
X131024380Y-52190476D01*
X131148190Y-52066666D01*
X131210095Y-51880952D01*
X131210095Y-51757142D01*
X131210095Y-53057142D02*
X131148190Y-52933333D01*
X131086285Y-52871428D01*
X130962476Y-52809523D01*
X130591047Y-52809523D01*
X130467238Y-52871428D01*
X130405333Y-52933333D01*
X130343428Y-53057142D01*
X130343428Y-53242857D01*
X130405333Y-53366666D01*
X130467238Y-53428571D01*
X130591047Y-53490476D01*
X130962476Y-53490476D01*
X131086285Y-53428571D01*
X131148190Y-53366666D01*
X131210095Y-53242857D01*
X131210095Y-53057142D01*
X131210095Y-54047619D02*
X130343428Y-54047619D01*
X130591047Y-54047619D02*
X130467238Y-54109523D01*
X130405333Y-54171428D01*
X130343428Y-54295238D01*
X130343428Y-54419047D01*
X131210095Y-55409523D02*
X129910095Y-55409523D01*
X131148190Y-55409523D02*
X131210095Y-55285714D01*
X131210095Y-55038095D01*
X131148190Y-54914285D01*
X131086285Y-54852380D01*
X130962476Y-54790476D01*
X130591047Y-54790476D01*
X130467238Y-54852380D01*
X130405333Y-54914285D01*
X130343428Y-55038095D01*
X130343428Y-55285714D01*
X130405333Y-55409523D01*
X131210095Y-56585714D02*
X130529142Y-56585714D01*
X130405333Y-56523809D01*
X130343428Y-56400000D01*
X130343428Y-56152380D01*
X130405333Y-56028571D01*
X131148190Y-56585714D02*
X131210095Y-56461904D01*
X131210095Y-56152380D01*
X131148190Y-56028571D01*
X131024380Y-55966666D01*
X130900571Y-55966666D01*
X130776761Y-56028571D01*
X130714857Y-56152380D01*
X130714857Y-56461904D01*
X130652952Y-56585714D01*
X130343428Y-57204761D02*
X131210095Y-57204761D01*
X130467238Y-57204761D02*
X130405333Y-57266666D01*
X130343428Y-57390476D01*
X130343428Y-57576190D01*
X130405333Y-57700000D01*
X130529142Y-57761904D01*
X131210095Y-57761904D01*
X130838666Y-58319047D02*
X130838666Y-58938095D01*
X131210095Y-58195238D02*
X129910095Y-58628571D01*
X131210095Y-59061904D01*
X131148190Y-60052380D02*
X131210095Y-59928571D01*
X131210095Y-59680952D01*
X131148190Y-59557142D01*
X131086285Y-59495238D01*
X130962476Y-59433333D01*
X130591047Y-59433333D01*
X130467238Y-59495238D01*
X130405333Y-59557142D01*
X130343428Y-59680952D01*
X130343428Y-59928571D01*
X130405333Y-60052380D01*
X131148190Y-61104761D02*
X131210095Y-60980952D01*
X131210095Y-60733333D01*
X131148190Y-60609523D01*
X131024380Y-60547619D01*
X130529142Y-60547619D01*
X130405333Y-60609523D01*
X130343428Y-60733333D01*
X130343428Y-60980952D01*
X130405333Y-61104761D01*
X130529142Y-61166666D01*
X130652952Y-61166666D01*
X130776761Y-60547619D01*
X130343428Y-61538095D02*
X130343428Y-62033333D01*
X129910095Y-61723809D02*
X131024380Y-61723809D01*
X131148190Y-61785714D01*
X131210095Y-61909523D01*
X131210095Y-62033333D01*
X131210095Y-62652380D02*
X131148190Y-62528571D01*
X131086285Y-62466666D01*
X130962476Y-62404761D01*
X130591047Y-62404761D01*
X130467238Y-62466666D01*
X130405333Y-62528571D01*
X130343428Y-62652380D01*
X130343428Y-62838095D01*
X130405333Y-62961904D01*
X130467238Y-63023809D01*
X130591047Y-63085714D01*
X130962476Y-63085714D01*
X131086285Y-63023809D01*
X131148190Y-62961904D01*
X131210095Y-62838095D01*
X131210095Y-62652380D01*
X129848190Y-64571428D02*
X131519619Y-63457142D01*
X131210095Y-65004761D02*
X129910095Y-65004761D01*
X130405333Y-65004761D02*
X130343428Y-65128571D01*
X130343428Y-65376190D01*
X130405333Y-65500000D01*
X130467238Y-65561904D01*
X130591047Y-65623809D01*
X130962476Y-65623809D01*
X131086285Y-65561904D01*
X131148190Y-65500000D01*
X131210095Y-65376190D01*
X131210095Y-65128571D01*
X131148190Y-65004761D01*
X131210095Y-66738095D02*
X130529142Y-66738095D01*
X130405333Y-66676190D01*
X130343428Y-66552380D01*
X130343428Y-66304761D01*
X130405333Y-66180952D01*
X131148190Y-66738095D02*
X131210095Y-66614285D01*
X131210095Y-66304761D01*
X131148190Y-66180952D01*
X131024380Y-66119047D01*
X130900571Y-66119047D01*
X130776761Y-66180952D01*
X130714857Y-66304761D01*
X130714857Y-66614285D01*
X130652952Y-66738095D01*
X131148190Y-67295238D02*
X131210095Y-67419047D01*
X131210095Y-67666666D01*
X131148190Y-67790476D01*
X131024380Y-67852380D01*
X130962476Y-67852380D01*
X130838666Y-67790476D01*
X130776761Y-67666666D01*
X130776761Y-67480952D01*
X130714857Y-67357142D01*
X130591047Y-67295238D01*
X130529142Y-67295238D01*
X130405333Y-67357142D01*
X130343428Y-67480952D01*
X130343428Y-67666666D01*
X130405333Y-67790476D01*
X131210095Y-68409523D02*
X130343428Y-68409523D01*
X129910095Y-68409523D02*
X129972000Y-68347619D01*
X130033904Y-68409523D01*
X129972000Y-68471428D01*
X129910095Y-68409523D01*
X130033904Y-68409523D01*
X131148190Y-69585714D02*
X131210095Y-69461904D01*
X131210095Y-69214285D01*
X131148190Y-69090476D01*
X131086285Y-69028571D01*
X130962476Y-68966666D01*
X130591047Y-68966666D01*
X130467238Y-69028571D01*
X130405333Y-69090476D01*
X130343428Y-69214285D01*
X130343428Y-69461904D01*
X130405333Y-69585714D01*
X131333904Y-69833333D02*
X131333904Y-70823809D01*
X131210095Y-71133333D02*
X130343428Y-71133333D01*
X130467238Y-71133333D02*
X130405333Y-71195238D01*
X130343428Y-71319047D01*
X130343428Y-71504761D01*
X130405333Y-71628571D01*
X130529142Y-71690476D01*
X131210095Y-71690476D01*
X130529142Y-71690476D02*
X130405333Y-71752380D01*
X130343428Y-71876190D01*
X130343428Y-72061904D01*
X130405333Y-72185714D01*
X130529142Y-72247619D01*
X131210095Y-72247619D01*
X131210095Y-72866666D02*
X130343428Y-72866666D01*
X129910095Y-72866666D02*
X129972000Y-72804761D01*
X130033904Y-72866666D01*
X129972000Y-72928571D01*
X129910095Y-72866666D01*
X130033904Y-72866666D01*
X131210095Y-73361904D02*
X130343428Y-74042857D01*
X130343428Y-73361904D02*
X131210095Y-74042857D01*
X131148190Y-75033333D02*
X131210095Y-74909523D01*
X131210095Y-74661904D01*
X131148190Y-74538095D01*
X131024380Y-74476190D01*
X130529142Y-74476190D01*
X130405333Y-74538095D01*
X130343428Y-74661904D01*
X130343428Y-74909523D01*
X130405333Y-75033333D01*
X130529142Y-75095238D01*
X130652952Y-75095238D01*
X130776761Y-74476190D01*
X131210095Y-75652380D02*
X130343428Y-75652380D01*
X130591047Y-75652380D02*
X130467238Y-75714285D01*
X130405333Y-75776190D01*
X130343428Y-75900000D01*
X130343428Y-76023809D01*
X133303095Y-39809523D02*
X132436428Y-39809523D01*
X132684047Y-39809523D02*
X132560238Y-39871428D01*
X132498333Y-39933333D01*
X132436428Y-40057142D01*
X132436428Y-40180952D01*
X133241190Y-41109523D02*
X133303095Y-40985714D01*
X133303095Y-40738095D01*
X133241190Y-40614285D01*
X133117380Y-40552380D01*
X132622142Y-40552380D01*
X132498333Y-40614285D01*
X132436428Y-40738095D01*
X132436428Y-40985714D01*
X132498333Y-41109523D01*
X132622142Y-41171428D01*
X132745952Y-41171428D01*
X132869761Y-40552380D01*
X132436428Y-41604761D02*
X133303095Y-41914285D01*
X132436428Y-42223809D01*
X132003095Y-43957142D02*
X132003095Y-44080952D01*
X132065000Y-44204761D01*
X132126904Y-44266666D01*
X132250714Y-44328571D01*
X132498333Y-44390476D01*
X132807857Y-44390476D01*
X133055476Y-44328571D01*
X133179285Y-44266666D01*
X133241190Y-44204761D01*
X133303095Y-44080952D01*
X133303095Y-43957142D01*
X133241190Y-43833333D01*
X133179285Y-43771428D01*
X133055476Y-43709523D01*
X132807857Y-43647619D01*
X132498333Y-43647619D01*
X132250714Y-43709523D01*
X132126904Y-43771428D01*
X132065000Y-43833333D01*
X132003095Y-43957142D01*
X134219904Y-39747619D02*
X134158000Y-39809523D01*
X134096095Y-39933333D01*
X134096095Y-40242857D01*
X134158000Y-40366666D01*
X134219904Y-40428571D01*
X134343714Y-40490476D01*
X134467523Y-40490476D01*
X134653238Y-40428571D01*
X135396095Y-39685714D01*
X135396095Y-40490476D01*
X134096095Y-41295238D02*
X134096095Y-41419047D01*
X134158000Y-41542857D01*
X134219904Y-41604761D01*
X134343714Y-41666666D01*
X134591333Y-41728571D01*
X134900857Y-41728571D01*
X135148476Y-41666666D01*
X135272285Y-41604761D01*
X135334190Y-41542857D01*
X135396095Y-41419047D01*
X135396095Y-41295238D01*
X135334190Y-41171428D01*
X135272285Y-41109523D01*
X135148476Y-41047619D01*
X134900857Y-40985714D01*
X134591333Y-40985714D01*
X134343714Y-41047619D01*
X134219904Y-41109523D01*
X134158000Y-41171428D01*
X134096095Y-41295238D01*
X134219904Y-42223809D02*
X134158000Y-42285714D01*
X134096095Y-42409523D01*
X134096095Y-42719047D01*
X134158000Y-42842857D01*
X134219904Y-42904761D01*
X134343714Y-42966666D01*
X134467523Y-42966666D01*
X134653238Y-42904761D01*
X135396095Y-42161904D01*
X135396095Y-42966666D01*
X134219904Y-43461904D02*
X134158000Y-43523809D01*
X134096095Y-43647619D01*
X134096095Y-43957142D01*
X134158000Y-44080952D01*
X134219904Y-44142857D01*
X134343714Y-44204761D01*
X134467523Y-44204761D01*
X134653238Y-44142857D01*
X135396095Y-43400000D01*
X135396095Y-44204761D01*
X134034190Y-45690476D02*
X135705619Y-44576190D01*
X134096095Y-46371428D02*
X134096095Y-46495238D01*
X134158000Y-46619047D01*
X134219904Y-46680952D01*
X134343714Y-46742857D01*
X134591333Y-46804761D01*
X134900857Y-46804761D01*
X135148476Y-46742857D01*
X135272285Y-46680952D01*
X135334190Y-46619047D01*
X135396095Y-46495238D01*
X135396095Y-46371428D01*
X135334190Y-46247619D01*
X135272285Y-46185714D01*
X135148476Y-46123809D01*
X134900857Y-46061904D01*
X134591333Y-46061904D01*
X134343714Y-46123809D01*
X134219904Y-46185714D01*
X134158000Y-46247619D01*
X134096095Y-46371428D01*
X135396095Y-48042857D02*
X135396095Y-47300000D01*
X135396095Y-47671428D02*
X134096095Y-47671428D01*
X134281809Y-47547619D01*
X134405619Y-47423809D01*
X134467523Y-47300000D01*
X134034190Y-49528571D02*
X135705619Y-48414285D01*
X134096095Y-50209523D02*
X134096095Y-50333333D01*
X134158000Y-50457142D01*
X134219904Y-50519047D01*
X134343714Y-50580952D01*
X134591333Y-50642857D01*
X134900857Y-50642857D01*
X135148476Y-50580952D01*
X135272285Y-50519047D01*
X135334190Y-50457142D01*
X135396095Y-50333333D01*
X135396095Y-50209523D01*
X135334190Y-50085714D01*
X135272285Y-50023809D01*
X135148476Y-49961904D01*
X134900857Y-49900000D01*
X134591333Y-49900000D01*
X134343714Y-49961904D01*
X134219904Y-50023809D01*
X134158000Y-50085714D01*
X134096095Y-50209523D01*
X134219904Y-51138095D02*
X134158000Y-51200000D01*
X134096095Y-51323809D01*
X134096095Y-51633333D01*
X134158000Y-51757142D01*
X134219904Y-51819047D01*
X134343714Y-51880952D01*
X134467523Y-51880952D01*
X134653238Y-51819047D01*
X135396095Y-51076190D01*
X135396095Y-51880952D01*
D10*
X128725142Y-91781333D02*
X128772761Y-91733714D01*
X128820380Y-91590857D01*
X128820380Y-91495619D01*
X128772761Y-91352761D01*
X128677523Y-91257523D01*
X128582285Y-91209904D01*
X128391809Y-91162285D01*
X128248952Y-91162285D01*
X128058476Y-91209904D01*
X127963238Y-91257523D01*
X127868000Y-91352761D01*
X127820380Y-91495619D01*
X127820380Y-91590857D01*
X127868000Y-91733714D01*
X127915619Y-91781333D01*
X127820380Y-92638476D02*
X127820380Y-92448000D01*
X127868000Y-92352761D01*
X127915619Y-92305142D01*
X128058476Y-92209904D01*
X128248952Y-92162285D01*
X128629904Y-92162285D01*
X128725142Y-92209904D01*
X128772761Y-92257523D01*
X128820380Y-92352761D01*
X128820380Y-92543238D01*
X128772761Y-92638476D01*
X128725142Y-92686095D01*
X128629904Y-92733714D01*
X128391809Y-92733714D01*
X128296571Y-92686095D01*
X128248952Y-92638476D01*
X128201333Y-92543238D01*
X128201333Y-92352761D01*
X128248952Y-92257523D01*
X128296571Y-92209904D01*
X128391809Y-92162285D01*
X119483142Y-82515333D02*
X119530761Y-82467714D01*
X119578380Y-82324857D01*
X119578380Y-82229619D01*
X119530761Y-82086761D01*
X119435523Y-81991523D01*
X119340285Y-81943904D01*
X119149809Y-81896285D01*
X119006952Y-81896285D01*
X118816476Y-81943904D01*
X118721238Y-81991523D01*
X118626000Y-82086761D01*
X118578380Y-82229619D01*
X118578380Y-82324857D01*
X118626000Y-82467714D01*
X118673619Y-82515333D01*
X119578380Y-83467714D02*
X119578380Y-82896285D01*
X119578380Y-83182000D02*
X118578380Y-83182000D01*
X118721238Y-83086761D01*
X118816476Y-82991523D01*
X118864095Y-82896285D01*
X127198380Y-97077833D02*
X126722190Y-96744500D01*
X127198380Y-96506404D02*
X126198380Y-96506404D01*
X126198380Y-96887357D01*
X126246000Y-96982595D01*
X126293619Y-97030214D01*
X126388857Y-97077833D01*
X126531714Y-97077833D01*
X126626952Y-97030214D01*
X126674571Y-96982595D01*
X126722190Y-96887357D01*
X126722190Y-96506404D01*
X126198380Y-97982595D02*
X126198380Y-97506404D01*
X126674571Y-97458785D01*
X126626952Y-97506404D01*
X126579333Y-97601642D01*
X126579333Y-97839738D01*
X126626952Y-97934976D01*
X126674571Y-97982595D01*
X126769809Y-98030214D01*
X127007904Y-98030214D01*
X127103142Y-97982595D01*
X127150761Y-97934976D01*
X127198380Y-97839738D01*
X127198380Y-97601642D01*
X127150761Y-97506404D01*
X127103142Y-97458785D01*
X128725142Y-87844333D02*
X128772761Y-87796714D01*
X128820380Y-87653857D01*
X128820380Y-87558619D01*
X128772761Y-87415761D01*
X128677523Y-87320523D01*
X128582285Y-87272904D01*
X128391809Y-87225285D01*
X128248952Y-87225285D01*
X128058476Y-87272904D01*
X127963238Y-87320523D01*
X127868000Y-87415761D01*
X127820380Y-87558619D01*
X127820380Y-87653857D01*
X127868000Y-87796714D01*
X127915619Y-87844333D01*
X127820380Y-88177666D02*
X127820380Y-88844333D01*
X128820380Y-88415761D01*
X140660380Y-122214333D02*
X140184190Y-121881000D01*
X140660380Y-121642904D02*
X139660380Y-121642904D01*
X139660380Y-122023857D01*
X139708000Y-122119095D01*
X139755619Y-122166714D01*
X139850857Y-122214333D01*
X139993714Y-122214333D01*
X140088952Y-122166714D01*
X140136571Y-122119095D01*
X140184190Y-122023857D01*
X140184190Y-121642904D01*
X140088952Y-122785761D02*
X140041333Y-122690523D01*
X139993714Y-122642904D01*
X139898476Y-122595285D01*
X139850857Y-122595285D01*
X139755619Y-122642904D01*
X139708000Y-122690523D01*
X139660380Y-122785761D01*
X139660380Y-122976238D01*
X139708000Y-123071476D01*
X139755619Y-123119095D01*
X139850857Y-123166714D01*
X139898476Y-123166714D01*
X139993714Y-123119095D01*
X140041333Y-123071476D01*
X140088952Y-122976238D01*
X140088952Y-122785761D01*
X140136571Y-122690523D01*
X140184190Y-122642904D01*
X140279428Y-122595285D01*
X140469904Y-122595285D01*
X140565142Y-122642904D01*
X140612761Y-122690523D01*
X140660380Y-122785761D01*
X140660380Y-122976238D01*
X140612761Y-123071476D01*
X140565142Y-123119095D01*
X140469904Y-123166714D01*
X140279428Y-123166714D01*
X140184190Y-123119095D01*
X140136571Y-123071476D01*
X140088952Y-122976238D01*
X147932142Y-70533333D02*
X147979761Y-70485714D01*
X148027380Y-70342857D01*
X148027380Y-70247619D01*
X147979761Y-70104761D01*
X147884523Y-70009523D01*
X147789285Y-69961904D01*
X147598809Y-69914285D01*
X147455952Y-69914285D01*
X147265476Y-69961904D01*
X147170238Y-70009523D01*
X147075000Y-70104761D01*
X147027380Y-70247619D01*
X147027380Y-70342857D01*
X147075000Y-70485714D01*
X147122619Y-70533333D01*
X147027380Y-70866666D02*
X147027380Y-71485714D01*
X147408333Y-71152380D01*
X147408333Y-71295238D01*
X147455952Y-71390476D01*
X147503571Y-71438095D01*
X147598809Y-71485714D01*
X147836904Y-71485714D01*
X147932142Y-71438095D01*
X147979761Y-71390476D01*
X148027380Y-71295238D01*
X148027380Y-71009523D01*
X147979761Y-70914285D01*
X147932142Y-70866666D01*
X123388380Y-82576333D02*
X122912190Y-82243000D01*
X123388380Y-82004904D02*
X122388380Y-82004904D01*
X122388380Y-82385857D01*
X122436000Y-82481095D01*
X122483619Y-82528714D01*
X122578857Y-82576333D01*
X122721714Y-82576333D01*
X122816952Y-82528714D01*
X122864571Y-82481095D01*
X122912190Y-82385857D01*
X122912190Y-82004904D01*
X122721714Y-83433476D02*
X123388380Y-83433476D01*
X122340761Y-83195380D02*
X123055047Y-82957285D01*
X123055047Y-83576333D01*
X120639380Y-89220095D02*
X121448904Y-89220095D01*
X121544142Y-89267714D01*
X121591761Y-89315333D01*
X121639380Y-89410571D01*
X121639380Y-89601047D01*
X121591761Y-89696285D01*
X121544142Y-89743904D01*
X121448904Y-89791523D01*
X120639380Y-89791523D01*
X121639380Y-90791523D02*
X121639380Y-90220095D01*
X121639380Y-90505809D02*
X120639380Y-90505809D01*
X120782238Y-90410571D01*
X120877476Y-90315333D01*
X120925095Y-90220095D01*
X127198380Y-82552833D02*
X126722190Y-82219500D01*
X127198380Y-81981404D02*
X126198380Y-81981404D01*
X126198380Y-82362357D01*
X126246000Y-82457595D01*
X126293619Y-82505214D01*
X126388857Y-82552833D01*
X126531714Y-82552833D01*
X126626952Y-82505214D01*
X126674571Y-82457595D01*
X126722190Y-82362357D01*
X126722190Y-81981404D01*
X127198380Y-83505214D02*
X127198380Y-82933785D01*
X127198380Y-83219500D02*
X126198380Y-83219500D01*
X126341238Y-83124261D01*
X126436476Y-83029023D01*
X126484095Y-82933785D01*
X145113333Y-41572380D02*
X145113333Y-42286666D01*
X145160952Y-42429523D01*
X145256190Y-42524761D01*
X145399047Y-42572380D01*
X145494285Y-42572380D01*
X144208571Y-41572380D02*
X144399047Y-41572380D01*
X144494285Y-41620000D01*
X144541904Y-41667619D01*
X144637142Y-41810476D01*
X144684761Y-42000952D01*
X144684761Y-42381904D01*
X144637142Y-42477142D01*
X144589523Y-42524761D01*
X144494285Y-42572380D01*
X144303809Y-42572380D01*
X144208571Y-42524761D01*
X144160952Y-42477142D01*
X144113333Y-42381904D01*
X144113333Y-42143809D01*
X144160952Y-42048571D01*
X144208571Y-42000952D01*
X144303809Y-41953333D01*
X144494285Y-41953333D01*
X144589523Y-42000952D01*
X144637142Y-42048571D01*
X144684761Y-42143809D01*
X119483142Y-97115333D02*
X119530761Y-97067714D01*
X119578380Y-96924857D01*
X119578380Y-96829619D01*
X119530761Y-96686761D01*
X119435523Y-96591523D01*
X119340285Y-96543904D01*
X119149809Y-96496285D01*
X119006952Y-96496285D01*
X118816476Y-96543904D01*
X118721238Y-96591523D01*
X118626000Y-96686761D01*
X118578380Y-96829619D01*
X118578380Y-96924857D01*
X118626000Y-97067714D01*
X118673619Y-97115333D01*
X118673619Y-97496285D02*
X118626000Y-97543904D01*
X118578380Y-97639142D01*
X118578380Y-97877238D01*
X118626000Y-97972476D01*
X118673619Y-98020095D01*
X118768857Y-98067714D01*
X118864095Y-98067714D01*
X119006952Y-98020095D01*
X119578380Y-97448666D01*
X119578380Y-98067714D01*
X123388380Y-97077833D02*
X122912190Y-96744500D01*
X123388380Y-96506404D02*
X122388380Y-96506404D01*
X122388380Y-96887357D01*
X122436000Y-96982595D01*
X122483619Y-97030214D01*
X122578857Y-97077833D01*
X122721714Y-97077833D01*
X122816952Y-97030214D01*
X122864571Y-96982595D01*
X122912190Y-96887357D01*
X122912190Y-96506404D01*
X122388380Y-97934976D02*
X122388380Y-97744500D01*
X122436000Y-97649261D01*
X122483619Y-97601642D01*
X122626476Y-97506404D01*
X122816952Y-97458785D01*
X123197904Y-97458785D01*
X123293142Y-97506404D01*
X123340761Y-97554023D01*
X123388380Y-97649261D01*
X123388380Y-97839738D01*
X123340761Y-97934976D01*
X123293142Y-97982595D01*
X123197904Y-98030214D01*
X122959809Y-98030214D01*
X122864571Y-97982595D01*
X122816952Y-97934976D01*
X122769333Y-97839738D01*
X122769333Y-97649261D01*
X122816952Y-97554023D01*
X122864571Y-97506404D01*
X122959809Y-97458785D01*
X147900380Y-65515833D02*
X147424190Y-65182500D01*
X147900380Y-64944404D02*
X146900380Y-64944404D01*
X146900380Y-65325357D01*
X146948000Y-65420595D01*
X146995619Y-65468214D01*
X147090857Y-65515833D01*
X147233714Y-65515833D01*
X147328952Y-65468214D01*
X147376571Y-65420595D01*
X147424190Y-65325357D01*
X147424190Y-64944404D01*
X147900380Y-65992023D02*
X147900380Y-66182500D01*
X147852761Y-66277738D01*
X147805142Y-66325357D01*
X147662285Y-66420595D01*
X147471809Y-66468214D01*
X147090857Y-66468214D01*
X146995619Y-66420595D01*
X146948000Y-66372976D01*
X146900380Y-66277738D01*
X146900380Y-66087261D01*
X146948000Y-65992023D01*
X146995619Y-65944404D01*
X147090857Y-65896785D01*
X147328952Y-65896785D01*
X147424190Y-65944404D01*
X147471809Y-65992023D01*
X147519428Y-66087261D01*
X147519428Y-66277738D01*
X147471809Y-66372976D01*
X147424190Y-66420595D01*
X147328952Y-66468214D01*
X140978880Y-69977095D02*
X141788404Y-69977095D01*
X141883642Y-70024714D01*
X141931261Y-70072333D01*
X141978880Y-70167571D01*
X141978880Y-70358047D01*
X141931261Y-70453285D01*
X141883642Y-70500904D01*
X141788404Y-70548523D01*
X140978880Y-70548523D01*
X141074119Y-70977095D02*
X141026500Y-71024714D01*
X140978880Y-71119952D01*
X140978880Y-71358047D01*
X141026500Y-71453285D01*
X141074119Y-71500904D01*
X141169357Y-71548523D01*
X141264595Y-71548523D01*
X141407452Y-71500904D01*
X141978880Y-70929476D01*
X141978880Y-71548523D01*
X151106142Y-52858333D02*
X151153761Y-52810714D01*
X151201380Y-52667857D01*
X151201380Y-52572619D01*
X151153761Y-52429761D01*
X151058523Y-52334523D01*
X150963285Y-52286904D01*
X150772809Y-52239285D01*
X150629952Y-52239285D01*
X150439476Y-52286904D01*
X150344238Y-52334523D01*
X150249000Y-52429761D01*
X150201380Y-52572619D01*
X150201380Y-52667857D01*
X150249000Y-52810714D01*
X150296619Y-52858333D01*
X150201380Y-53763095D02*
X150201380Y-53286904D01*
X150677571Y-53239285D01*
X150629952Y-53286904D01*
X150582333Y-53382142D01*
X150582333Y-53620238D01*
X150629952Y-53715476D01*
X150677571Y-53763095D01*
X150772809Y-53810714D01*
X151010904Y-53810714D01*
X151106142Y-53763095D01*
X151153761Y-53715476D01*
X151201380Y-53620238D01*
X151201380Y-53382142D01*
X151153761Y-53286904D01*
X151106142Y-53239285D01*
X129357380Y-122214333D02*
X128881190Y-121881000D01*
X129357380Y-121642904D02*
X128357380Y-121642904D01*
X128357380Y-122023857D01*
X128405000Y-122119095D01*
X128452619Y-122166714D01*
X128547857Y-122214333D01*
X128690714Y-122214333D01*
X128785952Y-122166714D01*
X128833571Y-122119095D01*
X128881190Y-122023857D01*
X128881190Y-121642904D01*
X128357380Y-122547666D02*
X128357380Y-123214333D01*
X129357380Y-122785761D01*
X131008380Y-82576333D02*
X130532190Y-82243000D01*
X131008380Y-82004904D02*
X130008380Y-82004904D01*
X130008380Y-82385857D01*
X130056000Y-82481095D01*
X130103619Y-82528714D01*
X130198857Y-82576333D01*
X130341714Y-82576333D01*
X130436952Y-82528714D01*
X130484571Y-82481095D01*
X130532190Y-82385857D01*
X130532190Y-82004904D01*
X130103619Y-82957285D02*
X130056000Y-83004904D01*
X130008380Y-83100142D01*
X130008380Y-83338238D01*
X130056000Y-83433476D01*
X130103619Y-83481095D01*
X130198857Y-83528714D01*
X130294095Y-83528714D01*
X130436952Y-83481095D01*
X131008380Y-82909666D01*
X131008380Y-83528714D01*
X151182342Y-45883533D02*
X151229961Y-45835914D01*
X151277580Y-45693057D01*
X151277580Y-45597819D01*
X151229961Y-45454961D01*
X151134723Y-45359723D01*
X151039485Y-45312104D01*
X150849009Y-45264485D01*
X150706152Y-45264485D01*
X150515676Y-45312104D01*
X150420438Y-45359723D01*
X150325200Y-45454961D01*
X150277580Y-45597819D01*
X150277580Y-45693057D01*
X150325200Y-45835914D01*
X150372819Y-45883533D01*
X150610914Y-46740676D02*
X151277580Y-46740676D01*
X150229961Y-46502580D02*
X150944247Y-46264485D01*
X150944247Y-46883533D01*
X134818380Y-82552833D02*
X134342190Y-82219500D01*
X134818380Y-81981404D02*
X133818380Y-81981404D01*
X133818380Y-82362357D01*
X133866000Y-82457595D01*
X133913619Y-82505214D01*
X134008857Y-82552833D01*
X134151714Y-82552833D01*
X134246952Y-82505214D01*
X134294571Y-82457595D01*
X134342190Y-82362357D01*
X134342190Y-81981404D01*
X133818380Y-82886166D02*
X133818380Y-83505214D01*
X134199333Y-83171880D01*
X134199333Y-83314738D01*
X134246952Y-83409976D01*
X134294571Y-83457595D01*
X134389809Y-83505214D01*
X134627904Y-83505214D01*
X134723142Y-83457595D01*
X134770761Y-83409976D01*
X134818380Y-83314738D01*
X134818380Y-83029023D01*
X134770761Y-82933785D01*
X134723142Y-82886166D01*
D12*
X130783000Y-91686748D02*
X130783000Y-92209252D01*
X129313000Y-91686748D02*
X129313000Y-92209252D01*
X121512000Y-82943252D02*
X121512000Y-82420748D01*
X120042000Y-82943252D02*
X120042000Y-82420748D01*
X127662000Y-97471564D02*
X127662000Y-97017436D01*
X129132000Y-97471564D02*
X129132000Y-97017436D01*
X130783000Y-87749748D02*
X130783000Y-88272252D01*
X129313000Y-87749748D02*
X129313000Y-88272252D01*
X142467000Y-122177436D02*
X142467000Y-122631564D01*
X140997000Y-122177436D02*
X140997000Y-122631564D01*
X148363000Y-70440248D02*
X148363000Y-70962752D01*
X149833000Y-70440248D02*
X149833000Y-70962752D01*
X125322000Y-82946564D02*
X125322000Y-82492436D01*
X123852000Y-82946564D02*
X123852000Y-82492436D01*
X122027000Y-89982000D02*
X122027000Y-86532000D01*
X127147000Y-89982000D02*
X127147000Y-88032000D01*
X127147000Y-89982000D02*
X127147000Y-91932000D01*
X122027000Y-89982000D02*
X122027000Y-91932000D01*
X127662000Y-82492436D02*
X127662000Y-82946564D01*
X129132000Y-82492436D02*
X129132000Y-82946564D01*
X144780000Y-45720000D02*
X144780000Y-43120000D01*
X147380000Y-45720000D02*
X144780000Y-45720000D01*
X147380000Y-45720000D02*
X147380000Y-55940000D01*
X144780000Y-43120000D02*
X142180000Y-43120000D01*
X147380000Y-43120000D02*
X146050000Y-43120000D01*
X147380000Y-44450000D02*
X147380000Y-43120000D01*
X142180000Y-43120000D02*
X142180000Y-55940000D01*
X147380000Y-55940000D02*
X142180000Y-55940000D01*
X120042000Y-97020748D02*
X120042000Y-97543252D01*
X121512000Y-97020748D02*
X121512000Y-97543252D01*
X123852000Y-97017436D02*
X123852000Y-97471564D01*
X125322000Y-97017436D02*
X125322000Y-97471564D01*
X148363000Y-65455436D02*
X148363000Y-65909564D01*
X149833000Y-65455436D02*
X149833000Y-65909564D01*
X144193500Y-69179000D02*
X143543500Y-69179000D01*
X144193500Y-72299000D02*
X143543500Y-72299000D01*
X144193500Y-69179000D02*
X145868500Y-69179000D01*
X144193500Y-72299000D02*
X144843500Y-72299000D01*
X149833000Y-52763748D02*
X149833000Y-53286252D01*
X148363000Y-52763748D02*
X148363000Y-53286252D01*
X129694000Y-122177436D02*
X129694000Y-122631564D01*
X131164000Y-122177436D02*
X131164000Y-122631564D01*
X132942000Y-82492436D02*
X132942000Y-82946564D01*
X131472000Y-82492436D02*
X131472000Y-82946564D01*
X148363000Y-45773748D02*
X148363000Y-46296252D01*
X149833000Y-45773748D02*
X149833000Y-46296252D01*
X136752000Y-82492436D02*
X136752000Y-82946564D01*
X135282000Y-82492436D02*
X135282000Y-82946564D01*
%LPC*%
D13*
X144780000Y-116970000D03*
X144780000Y-113870000D03*
X144780000Y-105570000D03*
X133350000Y-134750000D03*
X133350000Y-131650000D03*
X133350000Y-123350000D03*
D14*
X128550000Y-69970000D03*
X138150000Y-69970000D03*
D15*
X130850000Y-77470000D03*
D13*
X133350000Y-77470000D03*
X135850000Y-77470000D03*
X121920000Y-116970000D03*
X121920000Y-113870000D03*
X121920000Y-105570000D03*
X133350000Y-116970000D03*
X133350000Y-113870000D03*
X133350000Y-105570000D03*
D14*
X148310000Y-90290000D03*
X138710000Y-90290000D03*
D15*
X141010000Y-97790000D03*
D13*
X143510000Y-97790000D03*
X146010000Y-97790000D03*
X144780000Y-134750000D03*
X144780000Y-131650000D03*
X144780000Y-123350000D03*
D14*
X118390000Y-49650000D03*
X127990000Y-49650000D03*
D15*
X120690000Y-57150000D03*
D13*
X123190000Y-57150000D03*
X125690000Y-57150000D03*
D16*
X130048000Y-90998000D03*
X130048000Y-92898000D03*
D17*
X120777000Y-83632000D03*
X120777000Y-81732000D03*
D18*
X128397000Y-98157000D03*
X128397000Y-96332000D03*
D16*
X130048000Y-87061000D03*
X130048000Y-88961000D03*
D19*
X141732000Y-121492000D03*
X141732000Y-123317000D03*
D16*
X149098000Y-69751500D03*
X149098000Y-71651500D03*
D18*
X124587000Y-83632000D03*
X124587000Y-81807000D03*
D20*
X122682000Y-87507000D03*
X123952000Y-87507000D03*
X125222000Y-87507000D03*
X126492000Y-87507000D03*
X126492000Y-92457000D03*
X125222000Y-92457000D03*
X123952000Y-92457000D03*
X122682000Y-92457000D03*
D19*
X128397000Y-81807000D03*
X128397000Y-83632000D03*
D21*
X146050000Y-44450000D03*
D22*
X143510000Y-44450000D03*
X146050000Y-46990000D03*
X143510000Y-46990000D03*
X146050000Y-49530000D03*
X143510000Y-49530000D03*
X146050000Y-52070000D03*
X143510000Y-52070000D03*
X146050000Y-54610000D03*
X143510000Y-54610000D03*
D16*
X120777000Y-96332000D03*
X120777000Y-98232000D03*
D19*
X124587000Y-96332000D03*
X124587000Y-98157000D03*
X149098000Y-64770000D03*
X149098000Y-66595000D03*
D23*
X145131000Y-69789000D03*
X145131000Y-71689000D03*
X143256000Y-70739000D03*
D16*
X149098000Y-52075000D03*
X149098000Y-53975000D03*
D19*
X130429000Y-121492000D03*
X130429000Y-123317000D03*
X132207000Y-81807000D03*
X132207000Y-83632000D03*
D16*
X149098000Y-45085000D03*
X149098000Y-46985000D03*
D19*
X136017000Y-81807000D03*
X136017000Y-83632000D03*
M02*
