G04 #@! TF.GenerationSoftware,KiCad,Pcbnew,6.0.0-d3dd2cf0fa~116~ubuntu20.04.1*
G04 #@! TF.CreationDate,2022-01-02T10:53:34-05:00*
G04 #@! TF.ProjectId,front_panel,66726f6e-745f-4706-916e-656c2e6b6963,0*
G04 #@! TF.SameCoordinates,Original*
G04 #@! TF.FileFunction,Copper,L2,Bot*
G04 #@! TF.FilePolarity,Positive*
%FSLAX46Y46*%
G04 Gerber Fmt 4.6, Leading zero omitted, Abs format (unit mm)*
G04 Created by KiCad (PCBNEW 6.0.0-d3dd2cf0fa~116~ubuntu20.04.1) date 2022-01-02 10:53:34*
%MOMM*%
%LPD*%
G01*
G04 APERTURE LIST*
G04 #@! TA.AperFunction,ComponentPad*
%ADD10C,5.600000*%
G04 #@! TD*
G04 APERTURE END LIST*
D10*
X120700000Y-148880000D03*
X120700000Y-26380000D03*
G04 #@! TA.AperFunction,Conductor*
G36*
X118583142Y-23908002D02*
G01*
X118604116Y-23924905D01*
X120687190Y-26007980D01*
X120701131Y-26015592D01*
X120702966Y-26015461D01*
X120709580Y-26011210D01*
X122795884Y-23924905D01*
X122858196Y-23890880D01*
X122884979Y-23888000D01*
X152866000Y-23888000D01*
X152934121Y-23908002D01*
X152980614Y-23961658D01*
X152992000Y-24014000D01*
X152992000Y-151246000D01*
X152971998Y-151314121D01*
X152918342Y-151360614D01*
X152866000Y-151372000D01*
X122884979Y-151372000D01*
X122816858Y-151351998D01*
X122795884Y-151335095D01*
X120712810Y-149252020D01*
X120698869Y-149244408D01*
X120697034Y-149244539D01*
X120690420Y-149248790D01*
X118604116Y-151335095D01*
X118541804Y-151369120D01*
X118515021Y-151372000D01*
X113834000Y-151372000D01*
X113765879Y-151351998D01*
X113719386Y-151298342D01*
X113708000Y-151246000D01*
X113708000Y-148871832D01*
X117387333Y-148871832D01*
X117405117Y-149222893D01*
X117405827Y-149229649D01*
X117461420Y-149576723D01*
X117462859Y-149583378D01*
X117555608Y-149922410D01*
X117557757Y-149928871D01*
X117686581Y-150255912D01*
X117689412Y-150262095D01*
X117852803Y-150573310D01*
X117856286Y-150579152D01*
X118052330Y-150870896D01*
X118056433Y-150876340D01*
X118176425Y-151018836D01*
X118189164Y-151027279D01*
X118199608Y-151021181D01*
X120327980Y-148892810D01*
X120334357Y-148881131D01*
X121064408Y-148881131D01*
X121064539Y-148882966D01*
X121068790Y-148889580D01*
X123199009Y-151019798D01*
X123212605Y-151027223D01*
X123222218Y-151020522D01*
X123322518Y-150903912D01*
X123326676Y-150898514D01*
X123525762Y-150608840D01*
X123529310Y-150603029D01*
X123695942Y-150293559D01*
X123698849Y-150287381D01*
X123831090Y-149961713D01*
X123833304Y-149955283D01*
X123929598Y-149617237D01*
X123931105Y-149610607D01*
X123990332Y-149264118D01*
X123991112Y-149257378D01*
X124012668Y-148904925D01*
X124012784Y-148901323D01*
X124012853Y-148881819D01*
X124012761Y-148878194D01*
X123993666Y-148525615D01*
X123992931Y-148518849D01*
X123936130Y-148171985D01*
X123934663Y-148165313D01*
X123840736Y-147826627D01*
X123838562Y-147820163D01*
X123708598Y-147493578D01*
X123705742Y-147487398D01*
X123541269Y-147176763D01*
X123537769Y-147170937D01*
X123340697Y-146879862D01*
X123336590Y-146874453D01*
X123223565Y-146741179D01*
X123210740Y-146732743D01*
X123200416Y-146738795D01*
X121072020Y-148867190D01*
X121064408Y-148881131D01*
X120334357Y-148881131D01*
X120335592Y-148878869D01*
X120335461Y-148877034D01*
X120331210Y-148870420D01*
X118200992Y-146740203D01*
X118187455Y-146732811D01*
X118177753Y-146739599D01*
X118070430Y-146865257D01*
X118066296Y-146870664D01*
X117868215Y-147161041D01*
X117864697Y-147166851D01*
X117699134Y-147476922D01*
X117696259Y-147483087D01*
X117565155Y-147809218D01*
X117562962Y-147815658D01*
X117467846Y-148154044D01*
X117466363Y-148160679D01*
X117408350Y-148507354D01*
X117407591Y-148514126D01*
X117387357Y-148865037D01*
X117387333Y-148871832D01*
X113708000Y-148871832D01*
X113708000Y-146366862D01*
X118549950Y-146366862D01*
X118549986Y-146367704D01*
X118555037Y-146375826D01*
X120687190Y-148507980D01*
X120701131Y-148515592D01*
X120702966Y-148515461D01*
X120709580Y-148511210D01*
X122842798Y-146377991D01*
X122850412Y-146364047D01*
X122850344Y-146363089D01*
X122845836Y-146356272D01*
X122844418Y-146355065D01*
X122564813Y-146142064D01*
X122559187Y-146138240D01*
X122258214Y-145956681D01*
X122252202Y-145953484D01*
X121933370Y-145805487D01*
X121927070Y-145802967D01*
X121594129Y-145690273D01*
X121587551Y-145688437D01*
X121244417Y-145612367D01*
X121237678Y-145611251D01*
X120888310Y-145572680D01*
X120881529Y-145572301D01*
X120530015Y-145571687D01*
X120523242Y-145572042D01*
X120173720Y-145609395D01*
X120167010Y-145610482D01*
X119823586Y-145685361D01*
X119817011Y-145687172D01*
X119483683Y-145798702D01*
X119477361Y-145801205D01*
X119158034Y-145948079D01*
X119151991Y-145951265D01*
X118850401Y-146131763D01*
X118844755Y-146135571D01*
X118564408Y-146347596D01*
X118559211Y-146351987D01*
X118557972Y-146353155D01*
X118549950Y-146366862D01*
X113708000Y-146366862D01*
X113708000Y-128265000D01*
X129777117Y-128265000D01*
X129796635Y-128637423D01*
X129854975Y-129005765D01*
X129951497Y-129365991D01*
X130085144Y-129714155D01*
X130254453Y-130046441D01*
X130457567Y-130359210D01*
X130692262Y-130649034D01*
X130955966Y-130912738D01*
X131245790Y-131147433D01*
X131558558Y-131350547D01*
X131561490Y-131352041D01*
X131561497Y-131352045D01*
X131887905Y-131518358D01*
X131890845Y-131519856D01*
X132239009Y-131653503D01*
X132599235Y-131750025D01*
X132794884Y-131781013D01*
X132964329Y-131807851D01*
X132964337Y-131807852D01*
X132967577Y-131808365D01*
X133340000Y-131827883D01*
X133712423Y-131808365D01*
X133715663Y-131807852D01*
X133715671Y-131807851D01*
X133885116Y-131781013D01*
X134080765Y-131750025D01*
X134440991Y-131653503D01*
X134789155Y-131519856D01*
X134792095Y-131518358D01*
X135118503Y-131352045D01*
X135118510Y-131352041D01*
X135121442Y-131350547D01*
X135434210Y-131147433D01*
X135724034Y-130912738D01*
X135987738Y-130649034D01*
X136222433Y-130359210D01*
X136425547Y-130046441D01*
X136594856Y-129714155D01*
X136728503Y-129365991D01*
X136825025Y-129005765D01*
X136883365Y-128637423D01*
X136902883Y-128265000D01*
X141227117Y-128265000D01*
X141246635Y-128637423D01*
X141304975Y-129005765D01*
X141401497Y-129365991D01*
X141535144Y-129714155D01*
X141704453Y-130046441D01*
X141907567Y-130359210D01*
X142142262Y-130649034D01*
X142405966Y-130912738D01*
X142695790Y-131147433D01*
X143008558Y-131350547D01*
X143011490Y-131352041D01*
X143011497Y-131352045D01*
X143337905Y-131518358D01*
X143340845Y-131519856D01*
X143689009Y-131653503D01*
X144049235Y-131750025D01*
X144244884Y-131781013D01*
X144414329Y-131807851D01*
X144414337Y-131807852D01*
X144417577Y-131808365D01*
X144790000Y-131827883D01*
X145162423Y-131808365D01*
X145165663Y-131807852D01*
X145165671Y-131807851D01*
X145335116Y-131781013D01*
X145530765Y-131750025D01*
X145890991Y-131653503D01*
X146239155Y-131519856D01*
X146242095Y-131518358D01*
X146568503Y-131352045D01*
X146568510Y-131352041D01*
X146571442Y-131350547D01*
X146884210Y-131147433D01*
X147174034Y-130912738D01*
X147437738Y-130649034D01*
X147672433Y-130359210D01*
X147875547Y-130046441D01*
X148044856Y-129714155D01*
X148178503Y-129365991D01*
X148275025Y-129005765D01*
X148333365Y-128637423D01*
X148352883Y-128265000D01*
X148333365Y-127892577D01*
X148275025Y-127524235D01*
X148178503Y-127164009D01*
X148044856Y-126815845D01*
X147875547Y-126483559D01*
X147672433Y-126170790D01*
X147437738Y-125880966D01*
X147174034Y-125617262D01*
X146884210Y-125382567D01*
X146571442Y-125179453D01*
X146568510Y-125177959D01*
X146568503Y-125177955D01*
X146242095Y-125011642D01*
X146239155Y-125010144D01*
X145890991Y-124876497D01*
X145530765Y-124779975D01*
X145335116Y-124748987D01*
X145165671Y-124722149D01*
X145165663Y-124722148D01*
X145162423Y-124721635D01*
X144790000Y-124702117D01*
X144417577Y-124721635D01*
X144414337Y-124722148D01*
X144414329Y-124722149D01*
X144244884Y-124748987D01*
X144049235Y-124779975D01*
X143689009Y-124876497D01*
X143340845Y-125010144D01*
X143337905Y-125011642D01*
X143011500Y-125177954D01*
X143011493Y-125177958D01*
X143008559Y-125179453D01*
X143005793Y-125181249D01*
X143005790Y-125181251D01*
X142800138Y-125314803D01*
X142695790Y-125382567D01*
X142405966Y-125617262D01*
X142142262Y-125880966D01*
X141907567Y-126170790D01*
X141704453Y-126483559D01*
X141535144Y-126815845D01*
X141401497Y-127164009D01*
X141304975Y-127524235D01*
X141246635Y-127892577D01*
X141227117Y-128265000D01*
X136902883Y-128265000D01*
X136883365Y-127892577D01*
X136825025Y-127524235D01*
X136728503Y-127164009D01*
X136594856Y-126815845D01*
X136425547Y-126483559D01*
X136222433Y-126170790D01*
X135987738Y-125880966D01*
X135724034Y-125617262D01*
X135434210Y-125382567D01*
X135121442Y-125179453D01*
X135118510Y-125177959D01*
X135118503Y-125177955D01*
X134792095Y-125011642D01*
X134789155Y-125010144D01*
X134440991Y-124876497D01*
X134080765Y-124779975D01*
X133885116Y-124748987D01*
X133715671Y-124722149D01*
X133715663Y-124722148D01*
X133712423Y-124721635D01*
X133340000Y-124702117D01*
X132967577Y-124721635D01*
X132964337Y-124722148D01*
X132964329Y-124722149D01*
X132794884Y-124748987D01*
X132599235Y-124779975D01*
X132239009Y-124876497D01*
X131890845Y-125010144D01*
X131887905Y-125011642D01*
X131561500Y-125177954D01*
X131561493Y-125177958D01*
X131558559Y-125179453D01*
X131555793Y-125181249D01*
X131555790Y-125181251D01*
X131350138Y-125314803D01*
X131245790Y-125382567D01*
X130955966Y-125617262D01*
X130692262Y-125880966D01*
X130457567Y-126170790D01*
X130254453Y-126483559D01*
X130085144Y-126815845D01*
X129951497Y-127164009D01*
X129854975Y-127524235D01*
X129796635Y-127892577D01*
X129777117Y-128265000D01*
X113708000Y-128265000D01*
X113708000Y-110490000D01*
X118352117Y-110490000D01*
X118371635Y-110862423D01*
X118429975Y-111230765D01*
X118526497Y-111590991D01*
X118660144Y-111939155D01*
X118829453Y-112271441D01*
X119032567Y-112584210D01*
X119267262Y-112874034D01*
X119530966Y-113137738D01*
X119820790Y-113372433D01*
X120133558Y-113575547D01*
X120136490Y-113577041D01*
X120136497Y-113577045D01*
X120462905Y-113743358D01*
X120465845Y-113744856D01*
X120814009Y-113878503D01*
X121174235Y-113975025D01*
X121369884Y-114006013D01*
X121539329Y-114032851D01*
X121539337Y-114032852D01*
X121542577Y-114033365D01*
X121915000Y-114052883D01*
X122287423Y-114033365D01*
X122290663Y-114032852D01*
X122290671Y-114032851D01*
X122460116Y-114006013D01*
X122655765Y-113975025D01*
X123015991Y-113878503D01*
X123364155Y-113744856D01*
X123367095Y-113743358D01*
X123693503Y-113577045D01*
X123693510Y-113577041D01*
X123696442Y-113575547D01*
X124009210Y-113372433D01*
X124299034Y-113137738D01*
X124562738Y-112874034D01*
X124797433Y-112584210D01*
X125000547Y-112271441D01*
X125169856Y-111939155D01*
X125303503Y-111590991D01*
X125400025Y-111230765D01*
X125458365Y-110862423D01*
X125477883Y-110490000D01*
X129777117Y-110490000D01*
X129796635Y-110862423D01*
X129854975Y-111230765D01*
X129951497Y-111590991D01*
X130085144Y-111939155D01*
X130254453Y-112271441D01*
X130457567Y-112584210D01*
X130692262Y-112874034D01*
X130955966Y-113137738D01*
X131245790Y-113372433D01*
X131558558Y-113575547D01*
X131561490Y-113577041D01*
X131561497Y-113577045D01*
X131887905Y-113743358D01*
X131890845Y-113744856D01*
X132239009Y-113878503D01*
X132599235Y-113975025D01*
X132794884Y-114006013D01*
X132964329Y-114032851D01*
X132964337Y-114032852D01*
X132967577Y-114033365D01*
X133340000Y-114052883D01*
X133712423Y-114033365D01*
X133715663Y-114032852D01*
X133715671Y-114032851D01*
X133885116Y-114006013D01*
X134080765Y-113975025D01*
X134440991Y-113878503D01*
X134789155Y-113744856D01*
X134792095Y-113743358D01*
X135118503Y-113577045D01*
X135118510Y-113577041D01*
X135121442Y-113575547D01*
X135434210Y-113372433D01*
X135724034Y-113137738D01*
X135987738Y-112874034D01*
X136222433Y-112584210D01*
X136425547Y-112271441D01*
X136594856Y-111939155D01*
X136728503Y-111590991D01*
X136825025Y-111230765D01*
X136883365Y-110862423D01*
X136902883Y-110490000D01*
X141227117Y-110490000D01*
X141246635Y-110862423D01*
X141304975Y-111230765D01*
X141401497Y-111590991D01*
X141535144Y-111939155D01*
X141704453Y-112271441D01*
X141907567Y-112584210D01*
X142142262Y-112874034D01*
X142405966Y-113137738D01*
X142695790Y-113372433D01*
X143008558Y-113575547D01*
X143011490Y-113577041D01*
X143011497Y-113577045D01*
X143337905Y-113743358D01*
X143340845Y-113744856D01*
X143689009Y-113878503D01*
X144049235Y-113975025D01*
X144244884Y-114006013D01*
X144414329Y-114032851D01*
X144414337Y-114032852D01*
X144417577Y-114033365D01*
X144790000Y-114052883D01*
X145162423Y-114033365D01*
X145165663Y-114032852D01*
X145165671Y-114032851D01*
X145335116Y-114006013D01*
X145530765Y-113975025D01*
X145890991Y-113878503D01*
X146239155Y-113744856D01*
X146242095Y-113743358D01*
X146568503Y-113577045D01*
X146568510Y-113577041D01*
X146571442Y-113575547D01*
X146884210Y-113372433D01*
X147174034Y-113137738D01*
X147437738Y-112874034D01*
X147672433Y-112584210D01*
X147875547Y-112271441D01*
X148044856Y-111939155D01*
X148178503Y-111590991D01*
X148275025Y-111230765D01*
X148333365Y-110862423D01*
X148352883Y-110490000D01*
X148333365Y-110117577D01*
X148275025Y-109749235D01*
X148178503Y-109389009D01*
X148044856Y-109040845D01*
X147875547Y-108708559D01*
X147672433Y-108395790D01*
X147437738Y-108105966D01*
X147174034Y-107842262D01*
X146884210Y-107607567D01*
X146571442Y-107404453D01*
X146568510Y-107402959D01*
X146568503Y-107402955D01*
X146242095Y-107236642D01*
X146239155Y-107235144D01*
X145890991Y-107101497D01*
X145530765Y-107004975D01*
X145335116Y-106973987D01*
X145165671Y-106947149D01*
X145165663Y-106947148D01*
X145162423Y-106946635D01*
X144790000Y-106927117D01*
X144417577Y-106946635D01*
X144414337Y-106947148D01*
X144414329Y-106947149D01*
X144244884Y-106973987D01*
X144049235Y-107004975D01*
X143689009Y-107101497D01*
X143340845Y-107235144D01*
X143337905Y-107236642D01*
X143011500Y-107402954D01*
X143011493Y-107402958D01*
X143008559Y-107404453D01*
X143005793Y-107406249D01*
X143005790Y-107406251D01*
X142800138Y-107539803D01*
X142695790Y-107607567D01*
X142405966Y-107842262D01*
X142142262Y-108105966D01*
X141907567Y-108395790D01*
X141704453Y-108708559D01*
X141535144Y-109040845D01*
X141401497Y-109389009D01*
X141304975Y-109749235D01*
X141246635Y-110117577D01*
X141227117Y-110490000D01*
X136902883Y-110490000D01*
X136883365Y-110117577D01*
X136825025Y-109749235D01*
X136728503Y-109389009D01*
X136594856Y-109040845D01*
X136425547Y-108708559D01*
X136222433Y-108395790D01*
X135987738Y-108105966D01*
X135724034Y-107842262D01*
X135434210Y-107607567D01*
X135121442Y-107404453D01*
X135118510Y-107402959D01*
X135118503Y-107402955D01*
X134792095Y-107236642D01*
X134789155Y-107235144D01*
X134440991Y-107101497D01*
X134080765Y-107004975D01*
X133885116Y-106973987D01*
X133715671Y-106947149D01*
X133715663Y-106947148D01*
X133712423Y-106946635D01*
X133340000Y-106927117D01*
X132967577Y-106946635D01*
X132964337Y-106947148D01*
X132964329Y-106947149D01*
X132794884Y-106973987D01*
X132599235Y-107004975D01*
X132239009Y-107101497D01*
X131890845Y-107235144D01*
X131887905Y-107236642D01*
X131561500Y-107402954D01*
X131561493Y-107402958D01*
X131558559Y-107404453D01*
X131555793Y-107406249D01*
X131555790Y-107406251D01*
X131350138Y-107539803D01*
X131245790Y-107607567D01*
X130955966Y-107842262D01*
X130692262Y-108105966D01*
X130457567Y-108395790D01*
X130254453Y-108708559D01*
X130085144Y-109040845D01*
X129951497Y-109389009D01*
X129854975Y-109749235D01*
X129796635Y-110117577D01*
X129777117Y-110490000D01*
X125477883Y-110490000D01*
X125458365Y-110117577D01*
X125400025Y-109749235D01*
X125303503Y-109389009D01*
X125169856Y-109040845D01*
X125000547Y-108708559D01*
X124797433Y-108395790D01*
X124562738Y-108105966D01*
X124299034Y-107842262D01*
X124009210Y-107607567D01*
X123696442Y-107404453D01*
X123693510Y-107402959D01*
X123693503Y-107402955D01*
X123367095Y-107236642D01*
X123364155Y-107235144D01*
X123015991Y-107101497D01*
X122655765Y-107004975D01*
X122460116Y-106973987D01*
X122290671Y-106947149D01*
X122290663Y-106947148D01*
X122287423Y-106946635D01*
X121915000Y-106927117D01*
X121542577Y-106946635D01*
X121539337Y-106947148D01*
X121539329Y-106947149D01*
X121369884Y-106973987D01*
X121174235Y-107004975D01*
X120814009Y-107101497D01*
X120465845Y-107235144D01*
X120462905Y-107236642D01*
X120136500Y-107402954D01*
X120136493Y-107402958D01*
X120133559Y-107404453D01*
X120130793Y-107406249D01*
X120130790Y-107406251D01*
X119925138Y-107539803D01*
X119820790Y-107607567D01*
X119530966Y-107842262D01*
X119267262Y-108105966D01*
X119032567Y-108395790D01*
X118829453Y-108708559D01*
X118660144Y-109040845D01*
X118526497Y-109389009D01*
X118429975Y-109749235D01*
X118371635Y-110117577D01*
X118352117Y-110490000D01*
X113708000Y-110490000D01*
X113708000Y-90108273D01*
X139452502Y-90108273D01*
X139452610Y-90111360D01*
X139453000Y-90122524D01*
X139453000Y-90122527D01*
X139458445Y-90278443D01*
X139466355Y-90504974D01*
X139466761Y-90508018D01*
X139466762Y-90508028D01*
X139494519Y-90716055D01*
X139518853Y-90898430D01*
X139519553Y-90901414D01*
X139519554Y-90901420D01*
X139557952Y-91065128D01*
X139609496Y-91284885D01*
X139737417Y-91660651D01*
X139901396Y-92022140D01*
X140099867Y-92365903D01*
X140101650Y-92368394D01*
X140101651Y-92368395D01*
X140202605Y-92509406D01*
X140330937Y-92688658D01*
X140592399Y-92987323D01*
X140594647Y-92989434D01*
X140879503Y-93256932D01*
X140879510Y-93256938D01*
X140881758Y-93259049D01*
X140884208Y-93260936D01*
X140884213Y-93260940D01*
X141193808Y-93499361D01*
X141196251Y-93501242D01*
X141532878Y-93711590D01*
X141888424Y-93888085D01*
X142259497Y-94029042D01*
X142642553Y-94133116D01*
X142645596Y-94133631D01*
X142645602Y-94133632D01*
X143030896Y-94198800D01*
X143030903Y-94198801D01*
X143033937Y-94199314D01*
X143037008Y-94199529D01*
X143037010Y-94199529D01*
X143426847Y-94226789D01*
X143426855Y-94226789D01*
X143429913Y-94227003D01*
X143684685Y-94219887D01*
X143823627Y-94216006D01*
X143823630Y-94216006D01*
X143826701Y-94215920D01*
X143829754Y-94215534D01*
X143829758Y-94215534D01*
X144018266Y-94191720D01*
X144220514Y-94166170D01*
X144223517Y-94165488D01*
X144223521Y-94165487D01*
X144604597Y-94078908D01*
X144604603Y-94078906D01*
X144607593Y-94078227D01*
X144610512Y-94077256D01*
X144981318Y-93953906D01*
X144981324Y-93953904D01*
X144984242Y-93952933D01*
X145127434Y-93889180D01*
X145344068Y-93792729D01*
X145344074Y-93792726D01*
X145346868Y-93791482D01*
X145692007Y-93595415D01*
X146016367Y-93366604D01*
X146143424Y-93256932D01*
X146314524Y-93109243D01*
X146314528Y-93109239D01*
X146316851Y-93107234D01*
X146363628Y-93058114D01*
X146588475Y-92822001D01*
X146590591Y-92819779D01*
X146834973Y-92506983D01*
X147047666Y-92171833D01*
X147121930Y-92024816D01*
X147225252Y-91820271D01*
X147226638Y-91817528D01*
X147370183Y-91447449D01*
X147476928Y-91065128D01*
X147545857Y-90674216D01*
X147576310Y-90278443D01*
X147577894Y-90165000D01*
X147558503Y-89768531D01*
X147500517Y-89375846D01*
X147404488Y-88990694D01*
X147386254Y-88939486D01*
X147272367Y-88619654D01*
X147272365Y-88619649D01*
X147271333Y-88616751D01*
X147102322Y-88257587D01*
X147074227Y-88210456D01*
X146900651Y-87919280D01*
X146899071Y-87916629D01*
X146663517Y-87597132D01*
X146397911Y-87302146D01*
X146104786Y-87034486D01*
X145786941Y-86796708D01*
X145732533Y-86763757D01*
X145450039Y-86592672D01*
X145450030Y-86592667D01*
X145447411Y-86591081D01*
X145089435Y-86419568D01*
X145030040Y-86397950D01*
X144719318Y-86284856D01*
X144719315Y-86284855D01*
X144716430Y-86283805D01*
X144713468Y-86283045D01*
X144713460Y-86283042D01*
X144334927Y-86185852D01*
X144334921Y-86185851D01*
X144331958Y-86185090D01*
X143939688Y-86124363D01*
X143936631Y-86124192D01*
X143936630Y-86124192D01*
X143905799Y-86122468D01*
X143543364Y-86102205D01*
X143540286Y-86102334D01*
X143540282Y-86102334D01*
X143282213Y-86113150D01*
X143146769Y-86118827D01*
X143143725Y-86119255D01*
X143143723Y-86119255D01*
X143104041Y-86124832D01*
X142753690Y-86174071D01*
X142367877Y-86267409D01*
X141993013Y-86397950D01*
X141943343Y-86420901D01*
X141635474Y-86563156D01*
X141635464Y-86563161D01*
X141632677Y-86564449D01*
X141290309Y-86765315D01*
X141244558Y-86798555D01*
X140971656Y-86996829D01*
X140971650Y-86996834D01*
X140969175Y-86998632D01*
X140966889Y-87000661D01*
X140966886Y-87000664D01*
X140928792Y-87034486D01*
X140672342Y-87262173D01*
X140670263Y-87264418D01*
X140670256Y-87264425D01*
X140533123Y-87412516D01*
X140402643Y-87553422D01*
X140162651Y-87869599D01*
X139954659Y-88207686D01*
X139780651Y-88564456D01*
X139779579Y-88567340D01*
X139779578Y-88567341D01*
X139761203Y-88616751D01*
X139642287Y-88936503D01*
X139540890Y-89320277D01*
X139477426Y-89712114D01*
X139477232Y-89715194D01*
X139477232Y-89715196D01*
X139473877Y-89768531D01*
X139452502Y-90108273D01*
X113708000Y-90108273D01*
X113708000Y-69783273D01*
X129277502Y-69783273D01*
X129277610Y-69786360D01*
X129278000Y-69797524D01*
X129278000Y-69797527D01*
X129283445Y-69953443D01*
X129291355Y-70179974D01*
X129291761Y-70183018D01*
X129291762Y-70183028D01*
X129319519Y-70391055D01*
X129343853Y-70573430D01*
X129344553Y-70576414D01*
X129344554Y-70576420D01*
X129382952Y-70740128D01*
X129434496Y-70959885D01*
X129562417Y-71335651D01*
X129726396Y-71697140D01*
X129924867Y-72040903D01*
X129926650Y-72043394D01*
X129926651Y-72043395D01*
X130027605Y-72184406D01*
X130155937Y-72363658D01*
X130417399Y-72662323D01*
X130419647Y-72664434D01*
X130704503Y-72931932D01*
X130704510Y-72931938D01*
X130706758Y-72934049D01*
X130709208Y-72935936D01*
X130709213Y-72935940D01*
X131018808Y-73174361D01*
X131021251Y-73176242D01*
X131357878Y-73386590D01*
X131713424Y-73563085D01*
X132084497Y-73704042D01*
X132467553Y-73808116D01*
X132470596Y-73808631D01*
X132470602Y-73808632D01*
X132855896Y-73873800D01*
X132855903Y-73873801D01*
X132858937Y-73874314D01*
X132862008Y-73874529D01*
X132862010Y-73874529D01*
X133251847Y-73901789D01*
X133251855Y-73901789D01*
X133254913Y-73902003D01*
X133509685Y-73894887D01*
X133648627Y-73891006D01*
X133648630Y-73891006D01*
X133651701Y-73890920D01*
X133654754Y-73890534D01*
X133654758Y-73890534D01*
X133843266Y-73866720D01*
X134045514Y-73841170D01*
X134048517Y-73840488D01*
X134048521Y-73840487D01*
X134429597Y-73753908D01*
X134429603Y-73753906D01*
X134432593Y-73753227D01*
X134435512Y-73752256D01*
X134806318Y-73628906D01*
X134806324Y-73628904D01*
X134809242Y-73627933D01*
X134952434Y-73564180D01*
X135169068Y-73467729D01*
X135169074Y-73467726D01*
X135171868Y-73466482D01*
X135517007Y-73270415D01*
X135841367Y-73041604D01*
X135968424Y-72931932D01*
X136139524Y-72784243D01*
X136139528Y-72784239D01*
X136141851Y-72782234D01*
X136188628Y-72733114D01*
X136413475Y-72497001D01*
X136415591Y-72494779D01*
X136659973Y-72181983D01*
X136872666Y-71846833D01*
X136946930Y-71699816D01*
X137050252Y-71495271D01*
X137051638Y-71492528D01*
X137195183Y-71122449D01*
X137301928Y-70740128D01*
X137370857Y-70349216D01*
X137401310Y-69953443D01*
X137402894Y-69840000D01*
X137383503Y-69443531D01*
X137325517Y-69050846D01*
X137229488Y-68665694D01*
X137211254Y-68614486D01*
X137097367Y-68294654D01*
X137097365Y-68294649D01*
X137096333Y-68291751D01*
X136927322Y-67932587D01*
X136899227Y-67885456D01*
X136725651Y-67594280D01*
X136724071Y-67591629D01*
X136488517Y-67272132D01*
X136222911Y-66977146D01*
X135929786Y-66709486D01*
X135611941Y-66471708D01*
X135557533Y-66438757D01*
X135275039Y-66267672D01*
X135275030Y-66267667D01*
X135272411Y-66266081D01*
X134914435Y-66094568D01*
X134855040Y-66072950D01*
X134544318Y-65959856D01*
X134544315Y-65959855D01*
X134541430Y-65958805D01*
X134538468Y-65958045D01*
X134538460Y-65958042D01*
X134159927Y-65860852D01*
X134159921Y-65860851D01*
X134156958Y-65860090D01*
X133764688Y-65799363D01*
X133761631Y-65799192D01*
X133761630Y-65799192D01*
X133730799Y-65797468D01*
X133368364Y-65777205D01*
X133365286Y-65777334D01*
X133365282Y-65777334D01*
X133107213Y-65788150D01*
X132971769Y-65793827D01*
X132968725Y-65794255D01*
X132968723Y-65794255D01*
X132929041Y-65799832D01*
X132578690Y-65849071D01*
X132192877Y-65942409D01*
X131818013Y-66072950D01*
X131768343Y-66095901D01*
X131460474Y-66238156D01*
X131460464Y-66238161D01*
X131457677Y-66239449D01*
X131115309Y-66440315D01*
X131069558Y-66473555D01*
X130796656Y-66671829D01*
X130796650Y-66671834D01*
X130794175Y-66673632D01*
X130791889Y-66675661D01*
X130791886Y-66675664D01*
X130753792Y-66709486D01*
X130497342Y-66937173D01*
X130495263Y-66939418D01*
X130495256Y-66939425D01*
X130358123Y-67087516D01*
X130227643Y-67228422D01*
X129987651Y-67544599D01*
X129779659Y-67882686D01*
X129605651Y-68239456D01*
X129604579Y-68242340D01*
X129604578Y-68242341D01*
X129586203Y-68291751D01*
X129467287Y-68611503D01*
X129365890Y-68995277D01*
X129302426Y-69387114D01*
X129302232Y-69390194D01*
X129302232Y-69390196D01*
X129298877Y-69443531D01*
X129277502Y-69783273D01*
X113708000Y-69783273D01*
X113708000Y-49483273D01*
X119127502Y-49483273D01*
X119127610Y-49486360D01*
X119128000Y-49497524D01*
X119128000Y-49497527D01*
X119133445Y-49653443D01*
X119141355Y-49879974D01*
X119141761Y-49883018D01*
X119141762Y-49883028D01*
X119169519Y-50091055D01*
X119193853Y-50273430D01*
X119194553Y-50276414D01*
X119194554Y-50276420D01*
X119232952Y-50440128D01*
X119284496Y-50659885D01*
X119412417Y-51035651D01*
X119576396Y-51397140D01*
X119774867Y-51740903D01*
X119776650Y-51743394D01*
X119776651Y-51743395D01*
X119877605Y-51884406D01*
X120005937Y-52063658D01*
X120267399Y-52362323D01*
X120269647Y-52364434D01*
X120554503Y-52631932D01*
X120554510Y-52631938D01*
X120556758Y-52634049D01*
X120559208Y-52635936D01*
X120559213Y-52635940D01*
X120868808Y-52874361D01*
X120871251Y-52876242D01*
X121207878Y-53086590D01*
X121563424Y-53263085D01*
X121934497Y-53404042D01*
X122317553Y-53508116D01*
X122320596Y-53508631D01*
X122320602Y-53508632D01*
X122705896Y-53573800D01*
X122705903Y-53573801D01*
X122708937Y-53574314D01*
X122712008Y-53574529D01*
X122712010Y-53574529D01*
X123101847Y-53601789D01*
X123101855Y-53601789D01*
X123104913Y-53602003D01*
X123359685Y-53594887D01*
X123498627Y-53591006D01*
X123498630Y-53591006D01*
X123501701Y-53590920D01*
X123504754Y-53590534D01*
X123504758Y-53590534D01*
X123693266Y-53566720D01*
X123895514Y-53541170D01*
X123898517Y-53540488D01*
X123898521Y-53540487D01*
X124279597Y-53453908D01*
X124279603Y-53453906D01*
X124282593Y-53453227D01*
X124285512Y-53452256D01*
X124656318Y-53328906D01*
X124656324Y-53328904D01*
X124659242Y-53327933D01*
X124802434Y-53264180D01*
X125019068Y-53167729D01*
X125019074Y-53167726D01*
X125021868Y-53166482D01*
X125367007Y-52970415D01*
X125691367Y-52741604D01*
X125818424Y-52631932D01*
X125989524Y-52484243D01*
X125989528Y-52484239D01*
X125991851Y-52482234D01*
X126038628Y-52433114D01*
X126263475Y-52197001D01*
X126265591Y-52194779D01*
X126509973Y-51881983D01*
X126722666Y-51546833D01*
X126796930Y-51399816D01*
X126900252Y-51195271D01*
X126901638Y-51192528D01*
X127045183Y-50822449D01*
X127151928Y-50440128D01*
X127220857Y-50049216D01*
X127251310Y-49653443D01*
X127252894Y-49540000D01*
X127233503Y-49143531D01*
X127175517Y-48750846D01*
X127079488Y-48365694D01*
X127061254Y-48314486D01*
X126947367Y-47994654D01*
X126947365Y-47994649D01*
X126946333Y-47991751D01*
X126777322Y-47632587D01*
X126749227Y-47585456D01*
X126575651Y-47294280D01*
X126574071Y-47291629D01*
X126338517Y-46972132D01*
X126072911Y-46677146D01*
X125779786Y-46409486D01*
X125461941Y-46171708D01*
X125407533Y-46138757D01*
X125125039Y-45967672D01*
X125125030Y-45967667D01*
X125122411Y-45966081D01*
X124764435Y-45794568D01*
X124705040Y-45772950D01*
X124394318Y-45659856D01*
X124394315Y-45659855D01*
X124391430Y-45658805D01*
X124388468Y-45658045D01*
X124388460Y-45658042D01*
X124009927Y-45560852D01*
X124009921Y-45560851D01*
X124006958Y-45560090D01*
X123614688Y-45499363D01*
X123611631Y-45499192D01*
X123611630Y-45499192D01*
X123580799Y-45497468D01*
X123218364Y-45477205D01*
X123215286Y-45477334D01*
X123215282Y-45477334D01*
X122957213Y-45488150D01*
X122821769Y-45493827D01*
X122818725Y-45494255D01*
X122818723Y-45494255D01*
X122779041Y-45499832D01*
X122428690Y-45549071D01*
X122042877Y-45642409D01*
X121668013Y-45772950D01*
X121618343Y-45795901D01*
X121310474Y-45938156D01*
X121310464Y-45938161D01*
X121307677Y-45939449D01*
X120965309Y-46140315D01*
X120919558Y-46173555D01*
X120646656Y-46371829D01*
X120646650Y-46371834D01*
X120644175Y-46373632D01*
X120641889Y-46375661D01*
X120641886Y-46375664D01*
X120603792Y-46409486D01*
X120347342Y-46637173D01*
X120345263Y-46639418D01*
X120345256Y-46639425D01*
X120208123Y-46787516D01*
X120077643Y-46928422D01*
X119837651Y-47244599D01*
X119629659Y-47582686D01*
X119455651Y-47939456D01*
X119454579Y-47942340D01*
X119454578Y-47942341D01*
X119436203Y-47991751D01*
X119317287Y-48311503D01*
X119215890Y-48695277D01*
X119152426Y-49087114D01*
X119152232Y-49090194D01*
X119152232Y-49090196D01*
X119148877Y-49143531D01*
X119127502Y-49483273D01*
X113708000Y-49483273D01*
X113708000Y-28896381D01*
X118549160Y-28896381D01*
X118549237Y-28897470D01*
X118551698Y-28901206D01*
X118825632Y-29111404D01*
X118831262Y-29115259D01*
X119131591Y-29297862D01*
X119137593Y-29301080D01*
X119455897Y-29450184D01*
X119462202Y-29452732D01*
X119794743Y-29566587D01*
X119801313Y-29568446D01*
X120144183Y-29645714D01*
X120150912Y-29646853D01*
X120500143Y-29686643D01*
X120506933Y-29687046D01*
X120858419Y-29688886D01*
X120865220Y-29688554D01*
X121214853Y-29652423D01*
X121221581Y-29651357D01*
X121565274Y-29577676D01*
X121571822Y-29575897D01*
X121905549Y-29465527D01*
X121911891Y-29463041D01*
X122231718Y-29317288D01*
X122237777Y-29314121D01*
X122539995Y-29134676D01*
X122545659Y-29130884D01*
X122826732Y-28919849D01*
X122831958Y-28915464D01*
X122841613Y-28906428D01*
X122849682Y-28892750D01*
X122849654Y-28892024D01*
X122844512Y-28883723D01*
X120712810Y-26752020D01*
X120698869Y-26744408D01*
X120697034Y-26744539D01*
X120690420Y-26748790D01*
X118556774Y-28882437D01*
X118549160Y-28896381D01*
X113708000Y-28896381D01*
X113708000Y-26371832D01*
X117387333Y-26371832D01*
X117405117Y-26722893D01*
X117405827Y-26729649D01*
X117461420Y-27076723D01*
X117462859Y-27083378D01*
X117555608Y-27422410D01*
X117557757Y-27428871D01*
X117686581Y-27755912D01*
X117689412Y-27762095D01*
X117852803Y-28073310D01*
X117856286Y-28079152D01*
X118052330Y-28370896D01*
X118056433Y-28376340D01*
X118176425Y-28518836D01*
X118189164Y-28527279D01*
X118199608Y-28521181D01*
X120327980Y-26392810D01*
X120334357Y-26381131D01*
X121064408Y-26381131D01*
X121064539Y-26382966D01*
X121068790Y-26389580D01*
X123199009Y-28519798D01*
X123212605Y-28527223D01*
X123222218Y-28520522D01*
X123322518Y-28403912D01*
X123326676Y-28398514D01*
X123525762Y-28108840D01*
X123529310Y-28103029D01*
X123695942Y-27793559D01*
X123698849Y-27787381D01*
X123831090Y-27461713D01*
X123833304Y-27455283D01*
X123929598Y-27117237D01*
X123931105Y-27110607D01*
X123990332Y-26764118D01*
X123991112Y-26757378D01*
X124012668Y-26404925D01*
X124012784Y-26401323D01*
X124012853Y-26381819D01*
X124012761Y-26378194D01*
X123993666Y-26025615D01*
X123992931Y-26018849D01*
X123936130Y-25671985D01*
X123934663Y-25665313D01*
X123840736Y-25326627D01*
X123838562Y-25320163D01*
X123708598Y-24993578D01*
X123705742Y-24987398D01*
X123541269Y-24676763D01*
X123537769Y-24670937D01*
X123340697Y-24379862D01*
X123336590Y-24374453D01*
X123223565Y-24241179D01*
X123210740Y-24232743D01*
X123200416Y-24238795D01*
X121072020Y-26367190D01*
X121064408Y-26381131D01*
X120334357Y-26381131D01*
X120335592Y-26378869D01*
X120335461Y-26377034D01*
X120331210Y-26370420D01*
X118200992Y-24240203D01*
X118187455Y-24232811D01*
X118177753Y-24239599D01*
X118070430Y-24365257D01*
X118066296Y-24370664D01*
X117868215Y-24661041D01*
X117864697Y-24666851D01*
X117699134Y-24976922D01*
X117696259Y-24983087D01*
X117565155Y-25309218D01*
X117562962Y-25315658D01*
X117467846Y-25654044D01*
X117466363Y-25660679D01*
X117408350Y-26007354D01*
X117407591Y-26014126D01*
X117387357Y-26365037D01*
X117387333Y-26371832D01*
X113708000Y-26371832D01*
X113708000Y-24014000D01*
X113728002Y-23945879D01*
X113781658Y-23899386D01*
X113834000Y-23888000D01*
X118515021Y-23888000D01*
X118583142Y-23908002D01*
G37*
G04 #@! TD.AperFunction*
M02*
