G04 #@! TF.GenerationSoftware,KiCad,Pcbnew,6.0.0-d3dd2cf0fa~116~ubuntu20.04.1*
G04 #@! TF.CreationDate,2022-01-02T10:53:35-05:00*
G04 #@! TF.ProjectId,front_panel,66726f6e-745f-4706-916e-656c2e6b6963,0*
G04 #@! TF.SameCoordinates,Original*
G04 #@! TF.FileFunction,Legend,Bot*
G04 #@! TF.FilePolarity,Positive*
%FSLAX46Y46*%
G04 Gerber Fmt 4.6, Leading zero omitted, Abs format (unit mm)*
G04 Created by KiCad (PCBNEW 6.0.0-d3dd2cf0fa~116~ubuntu20.04.1) date 2022-01-02 10:53:35*
%MOMM*%
%LPD*%
G01*
G04 APERTURE LIST*
%ADD10C,0.150000*%
%ADD11C,5.600000*%
G04 APERTURE END LIST*
D10*
X137969047Y-26122380D02*
X137969047Y-26836666D01*
X138016666Y-26979523D01*
X138111904Y-27074761D01*
X138254761Y-27122380D01*
X138350000Y-27122380D01*
X137016666Y-27122380D02*
X137492857Y-27122380D01*
X137492857Y-26122380D01*
X136111904Y-27027142D02*
X136159523Y-27074761D01*
X136302380Y-27122380D01*
X136397619Y-27122380D01*
X136540476Y-27074761D01*
X136635714Y-26979523D01*
X136683333Y-26884285D01*
X136730952Y-26693809D01*
X136730952Y-26550952D01*
X136683333Y-26360476D01*
X136635714Y-26265238D01*
X136540476Y-26170000D01*
X136397619Y-26122380D01*
X136302380Y-26122380D01*
X136159523Y-26170000D01*
X136111904Y-26217619D01*
X135397619Y-26122380D02*
X135397619Y-26836666D01*
X135445238Y-26979523D01*
X135540476Y-27074761D01*
X135683333Y-27122380D01*
X135778571Y-27122380D01*
X134445238Y-27122380D02*
X134921428Y-27122380D01*
X134921428Y-26122380D01*
X133540476Y-27027142D02*
X133588095Y-27074761D01*
X133730952Y-27122380D01*
X133826190Y-27122380D01*
X133969047Y-27074761D01*
X134064285Y-26979523D01*
X134111904Y-26884285D01*
X134159523Y-26693809D01*
X134159523Y-26550952D01*
X134111904Y-26360476D01*
X134064285Y-26265238D01*
X133969047Y-26170000D01*
X133826190Y-26122380D01*
X133730952Y-26122380D01*
X133588095Y-26170000D01*
X133540476Y-26217619D01*
X132826190Y-26122380D02*
X132826190Y-26836666D01*
X132873809Y-26979523D01*
X132969047Y-27074761D01*
X133111904Y-27122380D01*
X133207142Y-27122380D01*
X131873809Y-27122380D02*
X132350000Y-27122380D01*
X132350000Y-26122380D01*
X130969047Y-27027142D02*
X131016666Y-27074761D01*
X131159523Y-27122380D01*
X131254761Y-27122380D01*
X131397619Y-27074761D01*
X131492857Y-26979523D01*
X131540476Y-26884285D01*
X131588095Y-26693809D01*
X131588095Y-26550952D01*
X131540476Y-26360476D01*
X131492857Y-26265238D01*
X131397619Y-26170000D01*
X131254761Y-26122380D01*
X131159523Y-26122380D01*
X131016666Y-26170000D01*
X130969047Y-26217619D01*
X130254761Y-26122380D02*
X130254761Y-26836666D01*
X130302380Y-26979523D01*
X130397619Y-27074761D01*
X130540476Y-27122380D01*
X130635714Y-27122380D01*
X129302380Y-27122380D02*
X129778571Y-27122380D01*
X129778571Y-26122380D01*
X128397619Y-27027142D02*
X128445238Y-27074761D01*
X128588095Y-27122380D01*
X128683333Y-27122380D01*
X128826190Y-27074761D01*
X128921428Y-26979523D01*
X128969047Y-26884285D01*
X129016666Y-26693809D01*
X129016666Y-26550952D01*
X128969047Y-26360476D01*
X128921428Y-26265238D01*
X128826190Y-26170000D01*
X128683333Y-26122380D01*
X128588095Y-26122380D01*
X128445238Y-26170000D01*
X128397619Y-26217619D01*
%LPC*%
D11*
X120700000Y-148880000D03*
X120700000Y-26380000D03*
M02*
