G04 #@! TF.GenerationSoftware,KiCad,Pcbnew,6.0.0-d3dd2cf0fa~116~ubuntu20.04.1*
G04 #@! TF.CreationDate,2022-01-02T10:53:34-05:00*
G04 #@! TF.ProjectId,front_panel,66726f6e-745f-4706-916e-656c2e6b6963,0*
G04 #@! TF.SameCoordinates,Original*
G04 #@! TF.FileFunction,Legend,Top*
G04 #@! TF.FilePolarity,Positive*
%FSLAX46Y46*%
G04 Gerber Fmt 4.6, Leading zero omitted, Abs format (unit mm)*
G04 Created by KiCad (PCBNEW 6.0.0-d3dd2cf0fa~116~ubuntu20.04.1) date 2022-01-02 10:53:34*
%MOMM*%
%LPD*%
G01*
G04 APERTURE LIST*
%ADD10C,0.300000*%
%ADD11C,5.600000*%
G04 APERTURE END LIST*
D10*
X130076190Y-117335952D02*
X130076190Y-115669285D01*
X130076190Y-114835952D02*
X129957142Y-114955000D01*
X130076190Y-115074047D01*
X130195238Y-114955000D01*
X130076190Y-114835952D01*
X130076190Y-115074047D01*
X131266666Y-115669285D02*
X131266666Y-117335952D01*
X131266666Y-115907380D02*
X131385714Y-115788333D01*
X131623809Y-115669285D01*
X131980952Y-115669285D01*
X132219047Y-115788333D01*
X132338095Y-116026428D01*
X132338095Y-117335952D01*
X135314285Y-115074047D02*
X135433333Y-114955000D01*
X135671428Y-114835952D01*
X136266666Y-114835952D01*
X136504761Y-114955000D01*
X136623809Y-115074047D01*
X136742857Y-115312142D01*
X136742857Y-115550238D01*
X136623809Y-115907380D01*
X135195238Y-117335952D01*
X136742857Y-117335952D01*
X140236190Y-101460952D02*
X140236190Y-99794285D01*
X140236190Y-98960952D02*
X140117142Y-99080000D01*
X140236190Y-99199047D01*
X140355238Y-99080000D01*
X140236190Y-98960952D01*
X140236190Y-99199047D01*
X141426666Y-99794285D02*
X141426666Y-101460952D01*
X141426666Y-100032380D02*
X141545714Y-99913333D01*
X141783809Y-99794285D01*
X142140952Y-99794285D01*
X142379047Y-99913333D01*
X142498095Y-100151428D01*
X142498095Y-101460952D01*
X145355238Y-98960952D02*
X146902857Y-98960952D01*
X146069523Y-99913333D01*
X146426666Y-99913333D01*
X146664761Y-100032380D01*
X146783809Y-100151428D01*
X146902857Y-100389523D01*
X146902857Y-100984761D01*
X146783809Y-101222857D01*
X146664761Y-101341904D01*
X146426666Y-101460952D01*
X145712380Y-101460952D01*
X145474285Y-101341904D01*
X145355238Y-101222857D01*
X119916190Y-60820952D02*
X119916190Y-59154285D01*
X119916190Y-58320952D02*
X119797142Y-58440000D01*
X119916190Y-58559047D01*
X120035238Y-58440000D01*
X119916190Y-58320952D01*
X119916190Y-58559047D01*
X121106666Y-59154285D02*
X121106666Y-60820952D01*
X121106666Y-59392380D02*
X121225714Y-59273333D01*
X121463809Y-59154285D01*
X121820952Y-59154285D01*
X122059047Y-59273333D01*
X122178095Y-59511428D01*
X122178095Y-60820952D01*
X126582857Y-60820952D02*
X125154285Y-60820952D01*
X125868571Y-60820952D02*
X125868571Y-58320952D01*
X125630476Y-58678095D01*
X125392380Y-58916190D01*
X125154285Y-59035238D01*
X131326190Y-135115952D02*
X131088095Y-134996904D01*
X130969047Y-134877857D01*
X130850000Y-134639761D01*
X130850000Y-133925476D01*
X130969047Y-133687380D01*
X131088095Y-133568333D01*
X131326190Y-133449285D01*
X131683333Y-133449285D01*
X131921428Y-133568333D01*
X132040476Y-133687380D01*
X132159523Y-133925476D01*
X132159523Y-134639761D01*
X132040476Y-134877857D01*
X131921428Y-134996904D01*
X131683333Y-135115952D01*
X131326190Y-135115952D01*
X134302380Y-133449285D02*
X134302380Y-135115952D01*
X133230952Y-133449285D02*
X133230952Y-134758809D01*
X133350000Y-134996904D01*
X133588095Y-135115952D01*
X133945238Y-135115952D01*
X134183333Y-134996904D01*
X134302380Y-134877857D01*
X135135714Y-133449285D02*
X136088095Y-133449285D01*
X135492857Y-132615952D02*
X135492857Y-134758809D01*
X135611904Y-134996904D01*
X135850000Y-135115952D01*
X136088095Y-135115952D01*
X121992857Y-32170714D02*
X122421428Y-32313571D01*
X122564285Y-32456428D01*
X122707142Y-32742142D01*
X122707142Y-33170714D01*
X122564285Y-33456428D01*
X122421428Y-33599285D01*
X122135714Y-33742142D01*
X120992857Y-33742142D01*
X120992857Y-30742142D01*
X121992857Y-30742142D01*
X122278571Y-30885000D01*
X122421428Y-31027857D01*
X122564285Y-31313571D01*
X122564285Y-31599285D01*
X122421428Y-31885000D01*
X122278571Y-32027857D01*
X121992857Y-32170714D01*
X120992857Y-32170714D01*
X125278571Y-33742142D02*
X125278571Y-32170714D01*
X125135714Y-31885000D01*
X124850000Y-31742142D01*
X124278571Y-31742142D01*
X123992857Y-31885000D01*
X125278571Y-33599285D02*
X124992857Y-33742142D01*
X124278571Y-33742142D01*
X123992857Y-33599285D01*
X123850000Y-33313571D01*
X123850000Y-33027857D01*
X123992857Y-32742142D01*
X124278571Y-32599285D01*
X124992857Y-32599285D01*
X125278571Y-32456428D01*
X126564285Y-33599285D02*
X126850000Y-33742142D01*
X127421428Y-33742142D01*
X127707142Y-33599285D01*
X127850000Y-33313571D01*
X127850000Y-33170714D01*
X127707142Y-32885000D01*
X127421428Y-32742142D01*
X126992857Y-32742142D01*
X126707142Y-32599285D01*
X126564285Y-32313571D01*
X126564285Y-32170714D01*
X126707142Y-31885000D01*
X126992857Y-31742142D01*
X127421428Y-31742142D01*
X127707142Y-31885000D01*
X129135714Y-33742142D02*
X129135714Y-31742142D01*
X129135714Y-30742142D02*
X128992857Y-30885000D01*
X129135714Y-31027857D01*
X129278571Y-30885000D01*
X129135714Y-30742142D01*
X129135714Y-31027857D01*
X131850000Y-33599285D02*
X131564285Y-33742142D01*
X130992857Y-33742142D01*
X130707142Y-33599285D01*
X130564285Y-33456428D01*
X130421428Y-33170714D01*
X130421428Y-32313571D01*
X130564285Y-32027857D01*
X130707142Y-31885000D01*
X130992857Y-31742142D01*
X131564285Y-31742142D01*
X131850000Y-31885000D01*
X135421428Y-33742142D02*
X135421428Y-30742142D01*
X136421428Y-32885000D01*
X137421428Y-30742142D01*
X137421428Y-33742142D01*
X138850000Y-33742142D02*
X138850000Y-31742142D01*
X138850000Y-30742142D02*
X138707142Y-30885000D01*
X138850000Y-31027857D01*
X138992857Y-30885000D01*
X138850000Y-30742142D01*
X138850000Y-31027857D01*
X139992857Y-33742142D02*
X141564285Y-31742142D01*
X139992857Y-31742142D02*
X141564285Y-33742142D01*
X143850000Y-33599285D02*
X143564285Y-33742142D01*
X142992857Y-33742142D01*
X142707142Y-33599285D01*
X142564285Y-33313571D01*
X142564285Y-32170714D01*
X142707142Y-31885000D01*
X142992857Y-31742142D01*
X143564285Y-31742142D01*
X143850000Y-31885000D01*
X143992857Y-32170714D01*
X143992857Y-32456428D01*
X142564285Y-32742142D01*
X145278571Y-33742142D02*
X145278571Y-31742142D01*
X145278571Y-32313571D02*
X145421428Y-32027857D01*
X145564285Y-31885000D01*
X145850000Y-31742142D01*
X146135714Y-31742142D01*
X130076190Y-81140952D02*
X130076190Y-79474285D01*
X130076190Y-78640952D02*
X129957142Y-78760000D01*
X130076190Y-78879047D01*
X130195238Y-78760000D01*
X130076190Y-78640952D01*
X130076190Y-78879047D01*
X131266666Y-79474285D02*
X131266666Y-81140952D01*
X131266666Y-79712380D02*
X131385714Y-79593333D01*
X131623809Y-79474285D01*
X131980952Y-79474285D01*
X132219047Y-79593333D01*
X132338095Y-79831428D01*
X132338095Y-81140952D01*
X135314285Y-78879047D02*
X135433333Y-78760000D01*
X135671428Y-78640952D01*
X136266666Y-78640952D01*
X136504761Y-78760000D01*
X136623809Y-78879047D01*
X136742857Y-79117142D01*
X136742857Y-79355238D01*
X136623809Y-79712380D01*
X135195238Y-81140952D01*
X136742857Y-81140952D01*
X142101428Y-135008452D02*
X142101428Y-133341785D01*
X142101428Y-132508452D02*
X141982380Y-132627500D01*
X142101428Y-132746547D01*
X142220476Y-132627500D01*
X142101428Y-132508452D01*
X142101428Y-132746547D01*
X143291904Y-133341785D02*
X143291904Y-135008452D01*
X143291904Y-133579880D02*
X143410952Y-133460833D01*
X143649047Y-133341785D01*
X144006190Y-133341785D01*
X144244285Y-133460833D01*
X144363333Y-133698928D01*
X144363333Y-135008452D01*
X145315714Y-133341785D02*
X145910952Y-135008452D01*
X146506190Y-133341785D01*
X147458571Y-134770357D02*
X147577619Y-134889404D01*
X147458571Y-135008452D01*
X147339523Y-134889404D01*
X147458571Y-134770357D01*
X147458571Y-135008452D01*
X142756190Y-139033452D02*
X142518095Y-138914404D01*
X142399047Y-138795357D01*
X142280000Y-138557261D01*
X142280000Y-137842976D01*
X142399047Y-137604880D01*
X142518095Y-137485833D01*
X142756190Y-137366785D01*
X143113333Y-137366785D01*
X143351428Y-137485833D01*
X143470476Y-137604880D01*
X143589523Y-137842976D01*
X143589523Y-138557261D01*
X143470476Y-138795357D01*
X143351428Y-138914404D01*
X143113333Y-139033452D01*
X142756190Y-139033452D01*
X145732380Y-137366785D02*
X145732380Y-139033452D01*
X144660952Y-137366785D02*
X144660952Y-138676309D01*
X144780000Y-138914404D01*
X145018095Y-139033452D01*
X145375238Y-139033452D01*
X145613333Y-138914404D01*
X145732380Y-138795357D01*
X146565714Y-137366785D02*
X147518095Y-137366785D01*
X146922857Y-136533452D02*
X146922857Y-138676309D01*
X147041904Y-138914404D01*
X147280000Y-139033452D01*
X147518095Y-139033452D01*
X141506190Y-117228452D02*
X141506190Y-115561785D01*
X141506190Y-114728452D02*
X141387142Y-114847500D01*
X141506190Y-114966547D01*
X141625238Y-114847500D01*
X141506190Y-114728452D01*
X141506190Y-114966547D01*
X142696666Y-115561785D02*
X142696666Y-117228452D01*
X142696666Y-115799880D02*
X142815714Y-115680833D01*
X143053809Y-115561785D01*
X143410952Y-115561785D01*
X143649047Y-115680833D01*
X143768095Y-115918928D01*
X143768095Y-117228452D01*
X146625238Y-114728452D02*
X148172857Y-114728452D01*
X147339523Y-115680833D01*
X147696666Y-115680833D01*
X147934761Y-115799880D01*
X148053809Y-115918928D01*
X148172857Y-116157023D01*
X148172857Y-116752261D01*
X148053809Y-116990357D01*
X147934761Y-117109404D01*
X147696666Y-117228452D01*
X146982380Y-117228452D01*
X146744285Y-117109404D01*
X146625238Y-116990357D01*
X141684761Y-122205833D02*
X141565714Y-122086785D01*
X141327619Y-121729642D01*
X141208571Y-121491547D01*
X141089523Y-121134404D01*
X140970476Y-120539166D01*
X140970476Y-120062976D01*
X141089523Y-119467738D01*
X141208571Y-119110595D01*
X141327619Y-118872500D01*
X141565714Y-118515357D01*
X141684761Y-118396309D01*
X142637142Y-120301071D02*
X144541904Y-120301071D01*
X143589523Y-121253452D02*
X143589523Y-119348690D01*
X146922857Y-118753452D02*
X145732380Y-118753452D01*
X145613333Y-119943928D01*
X145732380Y-119824880D01*
X145970476Y-119705833D01*
X146565714Y-119705833D01*
X146803809Y-119824880D01*
X146922857Y-119943928D01*
X147041904Y-120182023D01*
X147041904Y-120777261D01*
X146922857Y-121015357D01*
X146803809Y-121134404D01*
X146565714Y-121253452D01*
X145970476Y-121253452D01*
X145732380Y-121134404D01*
X145613333Y-121015357D01*
X147875238Y-122205833D02*
X147994285Y-122086785D01*
X148232380Y-121729642D01*
X148351428Y-121491547D01*
X148470476Y-121134404D01*
X148589523Y-120539166D01*
X148589523Y-120062976D01*
X148470476Y-119467738D01*
X148351428Y-119110595D01*
X148232380Y-118872500D01*
X147994285Y-118515357D01*
X147875238Y-118396309D01*
X118646190Y-117335952D02*
X118646190Y-115669285D01*
X118646190Y-114835952D02*
X118527142Y-114955000D01*
X118646190Y-115074047D01*
X118765238Y-114955000D01*
X118646190Y-114835952D01*
X118646190Y-115074047D01*
X119836666Y-115669285D02*
X119836666Y-117335952D01*
X119836666Y-115907380D02*
X119955714Y-115788333D01*
X120193809Y-115669285D01*
X120550952Y-115669285D01*
X120789047Y-115788333D01*
X120908095Y-116026428D01*
X120908095Y-117335952D01*
X125312857Y-117335952D02*
X123884285Y-117335952D01*
X124598571Y-117335952D02*
X124598571Y-114835952D01*
X124360476Y-115193095D01*
X124122380Y-115431190D01*
X123884285Y-115550238D01*
%LPC*%
D11*
X120700000Y-148880000D03*
X120700000Y-26380000D03*
M02*
