%FSLAX45Y45*%
G04 Gerber Fmt 4.5, Leading zero omitted, Abs format (unit mm)*
G04 Created by KiCad (PCBNEW 6.0.0-d3dd2cf0fa~116~ubuntu20.04.1) date 2022-01-02 10:53:39*
%MOMM*%
%LPD*%
G01*
G04 APERTURE LIST*
%TA.AperFunction,Profile*%
%ADD10C,0.100000*%
%TD*%
%ADD11C,0.200000*%
G04 APERTURE END LIST*
D10*
X13639000Y-12826500D02*
G75*
G03*
X13639000Y-12826500I-305000J0D01*
G01*
X13639000Y-11049000D02*
G75*
G03*
X13639000Y-11049000I-305000J0D01*
G01*
X15350000Y-2338000D02*
X11320000Y-2338000D01*
X15350000Y-15188000D02*
X15350000Y-2338000D01*
X12496500Y-11049000D02*
G75*
G03*
X12496500Y-11049000I-305000J0D01*
G01*
X13689000Y-6984000D02*
G75*
G03*
X13689000Y-6984000I-355000J0D01*
G01*
X11320000Y-2338000D02*
X11320000Y-15188000D01*
X11320000Y-15188000D02*
X15350000Y-15188000D01*
X14784000Y-11049000D02*
G75*
G03*
X14784000Y-11049000I-305000J0D01*
G01*
X14784000Y-12826500D02*
G75*
G03*
X14784000Y-12826500I-305000J0D01*
G01*
X12674000Y-4954000D02*
G75*
G03*
X12674000Y-4954000I-355000J0D01*
G01*
X14706500Y-9016500D02*
G75*
G03*
X14706500Y-9016500I-355000J0D01*
G01*
D11*
X11572619Y-15503476D02*
X11572619Y-15303476D01*
X11620238Y-15303476D01*
X11648809Y-15313000D01*
X11667857Y-15332048D01*
X11677381Y-15351095D01*
X11686905Y-15389190D01*
X11686905Y-15417762D01*
X11677381Y-15455857D01*
X11667857Y-15474905D01*
X11648809Y-15493952D01*
X11620238Y-15503476D01*
X11572619Y-15503476D01*
X11772619Y-15503476D02*
X11772619Y-15370143D01*
X11772619Y-15408238D02*
X11782143Y-15389190D01*
X11791667Y-15379667D01*
X11810714Y-15370143D01*
X11829762Y-15370143D01*
X11896428Y-15503476D02*
X11896428Y-15370143D01*
X11896428Y-15303476D02*
X11886905Y-15313000D01*
X11896428Y-15322524D01*
X11905952Y-15313000D01*
X11896428Y-15303476D01*
X11896428Y-15322524D01*
X12020238Y-15503476D02*
X12001190Y-15493952D01*
X11991667Y-15474905D01*
X11991667Y-15303476D01*
X12125000Y-15503476D02*
X12105952Y-15493952D01*
X12096428Y-15474905D01*
X12096428Y-15303476D01*
X12353571Y-15503476D02*
X12353571Y-15303476D01*
X12420238Y-15446333D01*
X12486905Y-15303476D01*
X12486905Y-15503476D01*
X12667857Y-15503476D02*
X12667857Y-15398714D01*
X12658333Y-15379667D01*
X12639286Y-15370143D01*
X12601190Y-15370143D01*
X12582143Y-15379667D01*
X12667857Y-15493952D02*
X12648809Y-15503476D01*
X12601190Y-15503476D01*
X12582143Y-15493952D01*
X12572619Y-15474905D01*
X12572619Y-15455857D01*
X12582143Y-15436809D01*
X12601190Y-15427286D01*
X12648809Y-15427286D01*
X12667857Y-15417762D01*
X12763095Y-15370143D02*
X12763095Y-15570143D01*
X12763095Y-15379667D02*
X12782143Y-15370143D01*
X12820238Y-15370143D01*
X12839286Y-15379667D01*
X12848809Y-15389190D01*
X12858333Y-15408238D01*
X12858333Y-15465381D01*
X12848809Y-15484428D01*
X12839286Y-15493952D01*
X12820238Y-15503476D01*
X12782143Y-15503476D01*
X12763095Y-15493952D01*
X12944048Y-15484428D02*
X12953571Y-15493952D01*
X12944048Y-15503476D01*
X12934524Y-15493952D01*
X12944048Y-15484428D01*
X12944048Y-15503476D01*
X12944048Y-15379667D02*
X12953571Y-15389190D01*
X12944048Y-15398714D01*
X12934524Y-15389190D01*
X12944048Y-15379667D01*
X12944048Y-15398714D01*
M02*
